<!-- Generator: Adobe Illustrator 19.2.1, SVG Export Plug-In . SVG Version: 6.00 Build 0)  -->
<svg xmlns="http://www.w3.org/2000/svg" xmlns:xlink="http://www.w3.org/1999/xlink" version="1.1" id="Spanish" x="0px" y="0px" width="339.148px" height="72.284px" viewBox="0 0 339.148 72.284" enable-background="new 0 0 339.148 72.284" xml:space="preserve">
<path fill="#FFFFFF" d="M338.957,6.639l0.191-3.011l-49.64,0.002l-0.01-0.002H52.649c-4.809-2.32-10.204-3.622-15.902-3.622  c-20.112,0-36.472,16.211-36.472,36.138c0,19.925,16.36,36.136,36.472,36.136c5.698,0,11.093-1.303,15.902-3.623h229.264h11.039  h34.759l-0.199-3.019c-0.023-0.363-0.637-8.673-5.685-20.093c0.094-0.113,0.194-0.225,0.283-0.34  C337.576,25.839,338.907,7.414,338.957,6.639z"/>
<g>
	<linearGradient id="SVGID_1_" gradientUnits="userSpaceOnUse" x1="308.5771" y1="6.4609" x2="308.5771" y2="65.7315">
		<stop offset="0" style="stop-color:#AE86BC"/>
		<stop offset="0.1525" style="stop-color:#A672B1"/>
		<stop offset="0.3124" style="stop-color:#A063A9"/>
		<stop offset="0.465" style="stop-color:#9C59A3"/>
		<stop offset="0.6012" style="stop-color:#9B55A2"/>
		<stop offset="0.7308" style="stop-color:#9A54A1"/>
		<stop offset="0.8093" style="stop-color:#94509F"/>
		<stop offset="0.8742" style="stop-color:#8A489C"/>
		<stop offset="0.9316" style="stop-color:#7D3E98"/>
		<stop offset="0.9836" style="stop-color:#6D3192"/>
		<stop offset="1" style="stop-color:#662D91"/>
	</linearGradient>
	<path fill="url(#SVGID_1_)" d="M281.054,6.461c0,0,12.68,4.047,27.34,22.41c4.489,5.622,7.735,11.176,10.096,16.213   c0.441-0.531,0.936-1.08,1.38-1.637c15.085-18.892,16.232-36.986,16.232-36.986H281.054z"/>
	<path fill="#9A7BB1" d="M292.468,65.823h32.189c0,0-0.583-8.81-6.168-20.739C304.359,62.1,292.468,65.823,292.468,65.823z"/>
	<linearGradient id="SVGID_2_" gradientUnits="userSpaceOnUse" x1="183.988" y1="6.2952" x2="183.988" y2="65.8227">
		<stop offset="0" style="stop-color:#AE86BC"/>
		<stop offset="0.012" style="stop-color:#A97EB8"/>
		<stop offset="0.0451" style="stop-color:#9F6CAE"/>
		<stop offset="0.0818" style="stop-color:#975EA6"/>
		<stop offset="0.1236" style="stop-color:#9253A1"/>
		<stop offset="0.175" style="stop-color:#8F4D9E"/>
		<stop offset="0.2638" style="stop-color:#8E4B9D"/>
		<stop offset="0.7914" style="stop-color:#7E3E98"/>
		<stop offset="0.8555" style="stop-color:#7B3D97"/>
		<stop offset="0.9193" style="stop-color:#733996"/>
		<stop offset="0.983" style="stop-color:#653393"/>
		<stop offset="1" style="stop-color:#613193"/>
	</linearGradient>
	<path fill="url(#SVGID_2_)" d="M49.487,65.823h243.022c0,0,11.871-3.748,25.98-20.739c-2.364-5.045-5.617-10.606-10.114-16.238   C293.69,10.45,281.054,6.461,281.054,6.461H49.487"/>
</g>
<g>
	<path fill="#FFFFFF" d="M36.142,0C16.213,0,0,16.213,0,36.143c0,19.928,16.213,36.141,36.142,36.141   c19.928,0,36.141-16.213,36.141-36.141C72.283,16.213,56.07,0,36.142,0z"/>
	<g>
		<linearGradient id="SVGID_3_" gradientUnits="userSpaceOnUse" x1="16.9989" y1="9.1614" x2="54.8485" y2="63.2162">
			<stop offset="0.309" style="stop-color:#13B5EA"/>
			<stop offset="0.4731" style="stop-color:#008FC9"/>
			<stop offset="0.7645" style="stop-color:#005C9C"/>
			<stop offset="0.8989" style="stop-color:#004B8D"/>
		</linearGradient>
		<path fill="url(#SVGID_3_)" d="M68.945,36.133c0,18.26-14.804,33.061-33.064,33.061c-15.523,0-28.537-10.703-32.097-25.121    c6.472-0.072,12.607-1.52,18.151-4.049V27.159c0-1.022-0.359-1.768-1.064-2.24c-0.709-0.465-1.962-0.703-3.773-0.703v-1.191    c2.396-0.084,4.593-0.223,6.589-0.42c1.998-0.199,3.716-0.502,5.167-0.908v14.4c0.007-0.012,0.026-0.018,0.036-0.025v4.311    c0,1.061,0,2.221,0,3.475c0,1.219-0.024,2.414-0.065,3.59c-0.037,1.18-0.099,2.281-0.176,3.295    c-0.08,1.021-0.175,1.881-0.292,2.592c1.961,1.135,4.138,2.076,6.539,2.826c2.395,0.746,4.634,1.115,6.717,1.115    c1.766,0,3.474-0.266,5.126-0.793c1.653-0.523,3.114-1.311,4.393-2.33c1.275-1.018,2.305-2.277,3.091-3.772    c0.788-1.494,1.175-3.188,1.175-5.068c0-1.73-0.296-3.318-0.883-4.775c-0.586-1.455-1.415-2.713-2.478-3.769    c-1.064-1.064-2.319-1.897-3.777-2.512c-1.45-0.603-3.045-0.918-4.777-0.918c-1.301,0-2.624,0.236-3.98,0.686    c-1.36,0.459-2.588,1.027-3.692,1.695v-5.566c5.955-6.215,10.147-14.141,11.76-22.969c-7.37-3.129-15.906-3.535-23.983-0.473    c-8.977,3.407-15.54,10.399-18.685,18.723c3.03-8.957,9.891-16.547,19.423-20.172c7.968-3.02,16.29-2.783,23.551,0.057    c0.005-0.008-0.003,0.014,0,0C60.204,10.123,68.945,22.102,68.945,36.133z M36.821,53.063c0.9,1.555,2.433,2.322,4.585,2.322    c2.166,0,3.691-0.768,4.6-2.322c0.899-1.551,1.353-3.996,1.353-7.336c0-3.332-0.453-5.781-1.353-7.328    c-0.909-1.553-2.434-2.324-4.6-2.324c-2.153,0-3.686,0.771-4.585,2.324c-0.908,1.547-1.357,3.996-1.357,7.328    C35.465,49.067,35.914,51.512,36.821,53.063z M28.203,17.977c0.915-0.891,1.375-2.012,1.375-3.355c0-1.342-0.46-2.459-1.375-3.356    c-0.918-0.894-2.021-1.346-3.326-1.346c-1.307,0-2.411,0.451-3.328,1.346c-0.921,0.896-1.373,2.014-1.373,3.356    c0,1.344,0.451,2.465,1.373,3.355c0.917,0.9,2.021,1.348,3.328,1.348C26.182,19.325,27.284,18.877,28.203,17.977z"/>
	</g>
</g>
<g>
	<path fill="#FFFFFF" d="M79.824,14.2c1.008-0.168,2.328-0.313,4.008-0.313c2.064,0,3.576,0.481,4.537,1.345   c0.888,0.768,1.416,1.944,1.416,3.384c0,1.465-0.432,2.616-1.248,3.457c-1.104,1.176-2.904,1.775-4.945,1.775   c-0.624,0-1.2-0.023-1.68-0.144v6.48h-2.088V14.2z M81.912,22.001c0.456,0.12,1.032,0.168,1.729,0.168   c2.52,0,4.056-1.225,4.056-3.456c0-2.137-1.512-3.169-3.816-3.169c-0.912,0-1.608,0.072-1.968,0.168V22.001z"/>
	<path fill="#FFFFFF" d="M92.136,22.192c0-1.367-0.024-2.544-0.096-3.624h1.848l0.072,2.28h0.096c0.528-1.559,1.8-2.544,3.216-2.544   c0.24,0,0.408,0.023,0.6,0.072v1.992c-0.216-0.049-0.432-0.072-0.72-0.072c-1.488,0-2.544,1.128-2.832,2.712   c-0.048,0.288-0.096,0.624-0.096,0.984v6.192h-2.088V22.192z"/>
	<path fill="#FFFFFF" d="M110.258,24.281c0,4.296-2.977,6.168-5.785,6.168c-3.144,0-5.568-2.304-5.568-5.976   c0-3.888,2.544-6.168,5.76-6.168C108.001,18.305,110.258,20.729,110.258,24.281z M101.041,24.401c0,2.544,1.464,4.464,3.528,4.464   c2.016,0,3.528-1.896,3.528-4.512c0-1.969-0.984-4.465-3.48-4.465S101.041,22.192,101.041,24.401z"/>
	<path fill="#FFFFFF" d="M122.93,18.568c-0.048,0.84-0.096,1.776-0.096,3.192v6.745c0,2.664-0.528,4.296-1.656,5.304   c-1.128,1.057-2.76,1.392-4.224,1.392c-1.392,0-2.928-0.336-3.864-0.96l0.528-1.608c0.768,0.48,1.968,0.912,3.408,0.912   c2.16,0,3.745-1.128,3.745-4.057v-1.296h-0.048c-0.648,1.08-1.896,1.944-3.696,1.944c-2.88,0-4.944-2.448-4.944-5.665   c0-3.936,2.568-6.168,5.232-6.168c2.016,0,3.12,1.056,3.625,2.016h0.048l0.096-1.752H122.93z M120.745,23.153   c0-0.36-0.024-0.673-0.12-0.961c-0.384-1.224-1.416-2.232-2.953-2.232c-2.016,0-3.456,1.704-3.456,4.393   c0,2.279,1.152,4.176,3.432,4.176c1.296,0,2.472-0.816,2.928-2.16c0.12-0.36,0.168-0.767,0.168-1.128V23.153z"/>
	<path fill="#FFFFFF" d="M126.192,22.192c0-1.367-0.024-2.544-0.096-3.624h1.848l0.072,2.28h0.096   c0.528-1.559,1.8-2.544,3.216-2.544c0.24,0,0.408,0.023,0.6,0.072v1.992c-0.216-0.049-0.432-0.072-0.72-0.072   c-1.488,0-2.544,1.128-2.832,2.712c-0.048,0.288-0.096,0.624-0.096,0.984v6.192h-2.088V22.192z"/>
	<path fill="#FFFFFF" d="M140.353,30.185l-0.168-1.464h-0.072c-0.648,0.912-1.896,1.727-3.552,1.727   c-2.352,0-3.553-1.656-3.553-3.336c0-2.809,2.497-4.345,6.985-4.32v-0.24c0-0.96-0.264-2.688-2.64-2.688   c-1.08,0-2.208,0.337-3.024,0.864l-0.48-1.392c0.96-0.624,2.352-1.032,3.816-1.032c3.552,0,4.417,2.424,4.417,4.752v4.345   c0,1.008,0.048,1.992,0.192,2.784H140.353z M140.041,24.257c-2.304-0.048-4.92,0.36-4.92,2.616c0,1.368,0.912,2.017,1.992,2.017   c1.512,0,2.472-0.96,2.808-1.944c0.072-0.216,0.12-0.456,0.12-0.672V24.257z"/>
	<path fill="#FFFFFF" d="M145.488,21.713c0-1.2-0.024-2.185-0.096-3.145h1.848l0.097,1.872h0.071   c0.648-1.103,1.729-2.136,3.648-2.136c1.584,0,2.784,0.96,3.289,2.328h0.048c0.359-0.648,0.816-1.152,1.296-1.513   c0.696-0.527,1.464-0.815,2.568-0.815c1.536,0,3.816,1.008,3.816,5.04v6.841h-2.065v-6.576c0-2.233-0.816-3.577-2.52-3.577   c-1.2,0-2.136,0.889-2.496,1.921c-0.096,0.288-0.168,0.672-0.168,1.056v7.177h-2.064v-6.961c0-1.848-0.815-3.192-2.424-3.192   c-1.32,0-2.28,1.057-2.616,2.112c-0.12,0.313-0.168,0.673-0.168,1.032v7.009h-2.064V21.713z"/>
	<path fill="#FFFFFF" d="M171.936,30.185l-0.168-1.464h-0.072c-0.647,0.912-1.895,1.727-3.552,1.727   c-2.353,0-3.553-1.656-3.553-3.336c0-2.809,2.496-4.345,6.984-4.32v-0.24c0-0.96-0.264-2.688-2.64-2.688   c-1.08,0-2.208,0.337-3.024,0.864l-0.48-1.392c0.961-0.624,2.353-1.032,3.816-1.032c3.553,0,4.417,2.424,4.417,4.752v4.345   c0,1.008,0.048,1.992,0.191,2.784H171.936z M171.625,24.257c-2.305-0.048-4.921,0.36-4.921,2.616c0,1.368,0.912,2.017,1.992,2.017   c1.513,0,2.473-0.96,2.809-1.944c0.071-0.216,0.12-0.456,0.12-0.672V24.257z"/>
	<path fill="#FFFFFF" d="M192.192,13.144v14.041c0,1.032,0.023,2.208,0.096,3h-1.895l-0.097-2.017h-0.048   c-0.648,1.297-2.064,2.28-3.96,2.28c-2.809,0-4.969-2.376-4.969-5.904c-0.024-3.864,2.376-6.24,5.208-6.24   c1.776,0,2.977,0.84,3.505,1.776h0.048v-6.937H192.192z M190.08,23.297c0-0.264-0.024-0.624-0.096-0.888   c-0.313-1.345-1.465-2.448-3.049-2.448c-2.184,0-3.48,1.92-3.48,4.488c0,2.352,1.152,4.296,3.433,4.296   c1.416,0,2.712-0.935,3.097-2.52c0.071-0.288,0.096-0.576,0.096-0.912V23.297z"/>
	<path fill="#FFFFFF" d="M196.872,24.761c0.048,2.857,1.872,4.032,3.983,4.032c1.513,0,2.425-0.264,3.217-0.6l0.36,1.512   c-0.744,0.337-2.017,0.721-3.864,0.721c-3.577,0-5.713-2.353-5.713-5.857c0-3.505,2.064-6.265,5.448-6.265   c3.793,0,4.801,3.336,4.801,5.473c0,0.432-0.048,0.768-0.072,0.983H196.872z M203.064,23.249c0.023-1.344-0.553-3.433-2.929-3.433   c-2.136,0-3.072,1.969-3.24,3.433H203.064z"/>
	<path fill="#FFFFFF" d="M93.649,47.928c0,5.568-3.384,8.521-7.513,8.521c-4.272,0-7.272-3.313-7.272-8.209   c0-5.137,3.192-8.496,7.513-8.496C90.793,39.745,93.649,43.129,93.649,47.928z M81.096,48.192c0,3.457,1.872,6.553,5.161,6.553   c3.312,0,5.185-3.047,5.185-6.721c0-3.215-1.68-6.576-5.161-6.576C82.824,41.448,81.096,44.641,81.096,48.192z"/>
	<path fill="#FFFFFF" d="M96.288,48.192c0-1.367-0.024-2.543-0.096-3.623h1.848l0.072,2.279h0.096   c0.528-1.559,1.8-2.543,3.216-2.543c0.24,0,0.408,0.023,0.6,0.072v1.992c-0.216-0.049-0.432-0.072-0.72-0.072   c-1.488,0-2.544,1.127-2.832,2.711c-0.048,0.289-0.096,0.625-0.096,0.984v6.193h-2.088V48.192z"/>
	<path fill="#FFFFFF" d="M106.584,41.305c0.024,0.719-0.504,1.295-1.344,1.295c-0.744,0-1.272-0.576-1.272-1.295   c0-0.744,0.552-1.32,1.32-1.32C106.08,39.985,106.584,40.561,106.584,41.305z M104.231,56.186V44.569h2.112v11.617H104.231z"/>
	<path fill="#FFFFFF" d="M111.024,50.76c0.048,2.857,1.872,4.033,3.984,4.033c1.512,0,2.424-0.264,3.216-0.6l0.36,1.512   c-0.744,0.336-2.016,0.721-3.864,0.721c-3.576,0-5.712-2.354-5.712-5.857c0-3.504,2.064-6.264,5.448-6.264   c3.793,0,4.801,3.336,4.801,5.473c0,0.432-0.048,0.768-0.072,0.982H111.024z M117.216,49.249c0.024-1.344-0.552-3.432-2.928-3.432   c-2.136,0-3.072,1.969-3.24,3.432H117.216z"/>
	<path fill="#FFFFFF" d="M121.871,47.713c0-1.201-0.024-2.186-0.096-3.145h1.872l0.12,1.92h0.048c0.576-1.104,1.92-2.184,3.84-2.184   c1.608,0,4.104,0.959,4.104,4.943v6.938h-2.112v-6.697c0-1.871-0.696-3.432-2.688-3.432c-1.393,0-2.473,0.984-2.833,2.16   c-0.096,0.264-0.144,0.623-0.144,0.984v6.984h-2.112V47.713z"/>
	<path fill="#FFFFFF" d="M137.64,41.233v3.336h3.024v1.607h-3.024v6.266c0,1.439,0.408,2.256,1.584,2.256   c0.552,0,0.96-0.072,1.224-0.145l0.096,1.584c-0.408,0.168-1.056,0.289-1.872,0.289c-0.984,0-1.776-0.313-2.28-0.889   c-0.6-0.625-0.816-1.656-0.816-3.023v-6.338h-1.8v-1.607h1.8v-2.785L137.64,41.233z"/>
	<path fill="#FFFFFF" d="M149.472,56.186l-0.168-1.465h-0.072c-0.647,0.912-1.896,1.729-3.552,1.729   c-2.353,0-3.553-1.656-3.553-3.336c0-2.809,2.497-4.346,6.984-4.32v-0.24c0-0.961-0.264-2.689-2.64-2.689   c-1.08,0-2.208,0.338-3.025,0.865l-0.48-1.393c0.96-0.623,2.352-1.031,3.816-1.031c3.552,0,4.417,2.424,4.417,4.752v4.344   c0,1.008,0.048,1.992,0.191,2.785H149.472z M149.16,50.256c-2.305-0.047-4.921,0.361-4.921,2.617c0,1.367,0.912,2.016,1.992,2.016   c1.513,0,2.473-0.959,2.809-1.943c0.071-0.217,0.12-0.457,0.12-0.672V50.256z"/>
	<path fill="#FFFFFF" d="M162.889,55.754c-0.553,0.287-1.776,0.672-3.337,0.672c-3.504,0-5.784-2.377-5.784-5.93   c0-3.576,2.448-6.168,6.24-6.168c1.248,0,2.352,0.313,2.929,0.6l-0.48,1.633c-0.504-0.289-1.296-0.553-2.448-0.553   c-2.664,0-4.105,1.969-4.105,4.393c0,2.688,1.729,4.344,4.033,4.344c1.199,0,1.992-0.31,2.592-0.576L162.889,55.754z"/>
	<path fill="#FFFFFF" d="M167.712,41.305c0.023,0.719-0.504,1.295-1.345,1.295c-0.743,0-1.271-0.576-1.271-1.295   c0-0.744,0.552-1.32,1.32-1.32C167.208,39.985,167.712,40.561,167.712,41.305z M165.359,56.186V44.569h2.112v11.617H165.359z"/>
	<path fill="#FFFFFF" d="M181.488,50.282c0,4.295-2.976,6.168-5.784,6.168c-3.145,0-5.568-2.305-5.568-5.977   c0-3.889,2.544-6.168,5.761-6.168C179.232,44.305,181.488,46.729,181.488,50.282z M172.271,50.401c0,2.545,1.465,4.465,3.528,4.465   c2.017,0,3.528-1.896,3.528-4.512c0-1.969-0.983-4.465-3.479-4.465C173.352,45.889,172.271,48.192,172.271,50.401z M178.969,39.551   l-2.929,3.434h-1.512l2.112-3.434H178.969z"/>
	<path fill="#FFFFFF" d="M184.151,47.713c0-1.201-0.023-2.186-0.096-3.145h1.872l0.12,1.92h0.048   c0.576-1.104,1.92-2.184,3.841-2.184c1.607,0,4.104,0.959,4.104,4.943v6.938h-2.111v-6.697c0-1.871-0.696-3.432-2.689-3.432   c-1.393,0-2.473,0.984-2.832,2.16c-0.097,0.264-0.144,0.623-0.144,0.984v6.984h-2.112V47.713z"/>
	<path fill="#FFFFFF" d="M202.631,40.2c1.008-0.168,2.328-0.313,4.008-0.313c2.064,0,3.577,0.48,4.537,1.346   c0.888,0.768,1.416,1.943,1.416,3.383c0,1.465-0.433,2.617-1.248,3.457c-1.104,1.176-2.904,1.775-4.944,1.775   c-0.624,0-1.2-0.023-1.681-0.142v6.48h-2.088V40.2z M204.719,48c0.456,0.121,1.032,0.168,1.729,0.168   c2.521,0,4.057-1.225,4.057-3.455c0-2.137-1.513-3.17-3.816-3.17c-0.912,0-1.608,0.072-1.969,0.168V48z"/>
	<path fill="#FFFFFF" d="M214.942,48.192c0-1.367-0.023-2.543-0.096-3.623h1.848l0.072,2.279h0.096   c0.528-1.559,1.801-2.543,3.217-2.543c0.24,0,0.408,0.023,0.6,0.072v1.992c-0.216-0.049-0.432-0.072-0.72-0.072   c-1.488,0-2.544,1.127-2.832,2.711c-0.048,0.289-0.096,0.625-0.096,0.984v6.193h-2.089V48.192z"/>
	<path fill="#FFFFFF" d="M233.063,50.282c0,4.295-2.976,6.168-5.784,6.168c-3.145,0-5.568-2.305-5.568-5.977   c0-3.889,2.544-6.168,5.761-6.168C230.807,44.305,233.063,46.729,233.063,50.282z M223.846,50.401c0,2.545,1.465,4.465,3.528,4.465   c2.017,0,3.528-1.896,3.528-4.512c0-1.969-0.983-4.465-3.48-4.465C224.926,45.889,223.846,48.192,223.846,50.401z"/>
	<path fill="#FFFFFF" d="M235.941,56.186v-10.01h-1.632v-1.607h1.632v-0.553c0-1.631,0.36-3.119,1.345-4.057   c0.792-0.768,1.848-1.08,2.832-1.08c0.744,0,1.393,0.168,1.8,0.336l-0.288,1.633c-0.312-0.144-0.743-0.264-1.344-0.264   c-1.8,0-2.256,1.584-2.256,3.359v0.625h2.808v1.607h-2.808v10.01H235.941z"/>
	<path fill="#FFFFFF" d="M243.599,50.76c0.048,2.857,1.872,4.033,3.983,4.033c1.513,0,2.425-0.264,3.217-0.6l0.36,1.512   c-0.744,0.336-2.017,0.721-3.864,0.721c-3.577,0-5.713-2.354-5.713-5.857c0-3.504,2.064-6.264,5.448-6.264   c3.793,0,4.801,3.336,4.801,5.473c0,0.432-0.048,0.768-0.072,0.982H243.599z M249.791,49.249c0.023-1.344-0.553-3.432-2.929-3.432   c-2.136,0-3.072,1.969-3.24,3.432H249.791z"/>
	<path fill="#FFFFFF" d="M254.157,54.026c0.624,0.408,1.729,0.84,2.784,0.84c1.536,0,2.257-0.768,2.257-1.729   c0-1.008-0.601-1.561-2.16-2.137c-2.089-0.744-3.072-1.896-3.072-3.287c0-1.873,1.512-3.408,4.008-3.408   c1.177,0,2.208,0.336,2.857,0.719l-0.528,1.537c-0.456-0.289-1.296-0.672-2.376-0.672c-1.248,0-1.944,0.719-1.944,1.584   c0,0.959,0.696,1.393,2.208,1.969c2.017,0.768,3.049,1.775,3.049,3.504c0,2.039-1.584,3.48-4.345,3.48   c-1.271,0-2.448-0.313-3.264-0.793L254.157,54.026z"/>
	<path fill="#FFFFFF" d="M266.302,41.305c0.023,0.719-0.504,1.295-1.345,1.295c-0.743,0-1.272-0.576-1.272-1.295   c0-0.744,0.552-1.32,1.32-1.32C265.798,39.985,266.302,40.561,266.302,41.305z M263.949,56.186V44.569h2.112v11.617H263.949z"/>
	<path fill="#FFFFFF" d="M280.078,50.282c0,4.295-2.976,6.168-5.784,6.168c-3.145,0-5.568-2.305-5.568-5.977   c0-3.889,2.544-6.168,5.761-6.168C277.822,44.305,280.078,46.729,280.078,50.282z M270.861,50.401c0,2.545,1.465,4.465,3.528,4.465   c2.017,0,3.528-1.896,3.528-4.512c0-1.969-0.983-4.465-3.479-4.465C271.941,45.889,270.861,48.192,270.861,50.401z"/>
	<path fill="#FFFFFF" d="M282.741,47.713c0-1.201-0.023-2.186-0.096-3.145h1.872l0.12,1.92h0.048   c0.576-1.104,1.92-2.184,3.841-2.184c1.607,0,4.103,0.959,4.103,4.943v6.938h-2.111v-6.697c0-1.871-0.696-3.432-2.688-3.432   c-1.393,0-2.473,0.984-2.832,2.16c-0.097,0.264-0.145,0.623-0.145,0.984v6.984h-2.112V47.713z"/>
	<path fill="#FFFFFF" d="M302.493,56.186l-0.168-1.465h-0.072c-0.647,0.912-1.896,1.729-3.552,1.729   c-2.353,0-3.553-1.656-3.553-3.336c0-2.809,2.496-4.346,6.984-4.32v-0.24c0-0.961-0.264-2.689-2.64-2.689   c-1.08,0-2.208,0.338-3.024,0.865l-0.48-1.393c0.961-0.623,2.353-1.031,3.816-1.031c3.553,0,4.417,2.424,4.417,4.752v4.344   c0,1.008,0.048,1.992,0.191,2.785H302.493z M302.182,50.256c-2.305-0.047-4.921,0.361-4.921,2.617c0,1.367,0.912,2.016,1.992,2.016   c1.513,0,2.473-0.959,2.809-1.943c0.071-0.217,0.12-0.457,0.12-0.672V50.256z"/>
	<path fill="#FFFFFF" d="M307.629,39.145h2.112v17.041h-2.112V39.145z"/>
</g>
</svg>