<!-- Generator: Adobe Illustrator 19.2.1, SVG Export Plug-In . SVG Version: 6.00 Build 0)  -->
<svg xmlns="http://www.w3.org/2000/svg" xmlns:xlink="http://www.w3.org/1999/xlink" version="1.1" id="French" x="0px" y="0px" width="346.96px" height="72.293px" viewBox="0 0 346.96 72.293" enable-background="new 0 0 346.96 72.293" xml:space="preserve">
<path fill="#FFFFFF" d="M346.769,6.636l0.191-3.012l-49.652,0.003l-0.01-0.003H52.387C47.577,1.304,42.18,0,36.48,0  C16.364,0,0,16.216,0,36.146c0,19.932,16.364,36.146,36.48,36.146c5.7,0,11.096-1.305,15.906-3.624H289.71h11.042h34.767  l-0.199-3.02c-0.023-0.365-0.638-8.675-5.687-20.099c0.094-0.113,0.195-0.226,0.283-0.34  C345.388,25.841,346.718,7.411,346.769,6.636z"/>
<g>
	<linearGradient id="SVGID_1_" gradientUnits="userSpaceOnUse" x1="316.3808" y1="6.458" x2="316.3808" y2="65.7427">
		<stop offset="0" style="stop-color:#AE86BC"/>
		<stop offset="0.1525" style="stop-color:#A672B1"/>
		<stop offset="0.3124" style="stop-color:#A063A9"/>
		<stop offset="0.465" style="stop-color:#9C59A3"/>
		<stop offset="0.6012" style="stop-color:#9B55A2"/>
		<stop offset="0.7308" style="stop-color:#9A54A1"/>
		<stop offset="0.8093" style="stop-color:#94509F"/>
		<stop offset="0.8742" style="stop-color:#8A489C"/>
		<stop offset="0.9316" style="stop-color:#7D3E98"/>
		<stop offset="0.9836" style="stop-color:#6D3192"/>
		<stop offset="1" style="stop-color:#662D91"/>
	</linearGradient>
	<path fill="url(#SVGID_1_)" d="M288.85,6.458c0,0,12.684,4.048,27.348,22.415c4.49,5.623,7.736,11.18,10.098,16.217   c0.442-0.532,0.937-1.08,1.38-1.638c15.089-18.896,16.236-36.994,16.236-36.994H288.85z"/>
	<path fill="#9A7BB1" d="M300.267,65.835h32.197c0,0-0.582-8.812-6.169-20.745C312.162,62.112,300.267,65.835,300.267,65.835z"/>
	<linearGradient id="SVGID_2_" gradientUnits="userSpaceOnUse" x1="187.7596" y1="6.2922" x2="187.7596" y2="65.8349">
		<stop offset="0" style="stop-color:#AE86BC"/>
		<stop offset="0.012" style="stop-color:#A97EB8"/>
		<stop offset="0.0451" style="stop-color:#9F6CAE"/>
		<stop offset="0.0818" style="stop-color:#975EA6"/>
		<stop offset="0.1236" style="stop-color:#9253A1"/>
		<stop offset="0.175" style="stop-color:#8F4D9E"/>
		<stop offset="0.2638" style="stop-color:#8E4B9D"/>
		<stop offset="0.7914" style="stop-color:#7E3E98"/>
		<stop offset="0.8555" style="stop-color:#7B3D97"/>
		<stop offset="0.9193" style="stop-color:#733996"/>
		<stop offset="0.983" style="stop-color:#653393"/>
		<stop offset="1" style="stop-color:#613193"/>
	</linearGradient>
	<path fill="url(#SVGID_2_)" d="M49.224,65.835h251.084c0,0,11.875-3.75,25.987-20.745c-2.365-5.045-5.619-10.61-10.115-16.242   c-14.69-18.4-27.33-22.39-27.33-22.39H49.224"/>
</g>
<g>
	<path fill="#FFFFFF" d="M36.362,0.004C16.433,0.004,0.22,16.218,0.22,36.146c0,19.93,16.213,36.143,36.142,36.143   c19.928,0,36.141-16.213,36.141-36.143C72.503,16.218,56.29,0.004,36.362,0.004z"/>
	<g>
		<linearGradient id="SVGID_3_" gradientUnits="userSpaceOnUse" x1="17.2189" y1="9.1653" x2="55.0684" y2="63.22">
			<stop offset="0.309" style="stop-color:#13B5EA"/>
			<stop offset="0.4731" style="stop-color:#008FC9"/>
			<stop offset="0.7645" style="stop-color:#005C9C"/>
			<stop offset="0.8989" style="stop-color:#004B8D"/>
		</linearGradient>
		<path fill="url(#SVGID_3_)" d="M69.165,36.137c0,18.26-14.804,33.061-33.064,33.061c-15.523,0-28.537-10.701-32.097-25.12    c6.472-0.073,12.607-1.52,18.151-4.049V27.162c0-1.021-0.359-1.767-1.065-2.239c-0.708-0.466-1.962-0.704-3.773-0.704v-1.191    c2.397-0.084,4.593-0.223,6.589-0.421c1.998-0.199,3.716-0.501,5.167-0.908v14.4c0.007-0.011,0.026-0.017,0.036-0.025v4.312    c0,1.061,0,2.22,0,3.474c0,1.22-0.024,2.414-0.065,3.591c-0.037,1.18-0.099,2.282-0.176,3.296    c-0.08,1.019-0.175,1.879-0.292,2.592c1.96,1.133,4.138,2.076,6.539,2.824c2.395,0.748,4.634,1.115,6.717,1.115    c1.766,0,3.474-0.264,5.126-0.793c1.653-0.524,3.114-1.311,4.393-2.328c1.275-1.02,2.305-2.277,3.091-3.773    c0.788-1.493,1.175-3.187,1.175-5.067c0-1.731-0.296-3.318-0.883-4.776c-0.586-1.455-1.416-2.713-2.478-3.77    c-1.064-1.064-2.319-1.896-3.777-2.511c-1.45-0.604-3.045-0.918-4.777-0.918c-1.301,0-2.624,0.235-3.98,0.686    c-1.36,0.458-2.588,1.026-3.692,1.694v-5.566c5.955-6.215,10.147-14.141,11.76-22.969c-7.37-3.128-15.906-3.535-23.983-0.472    C14.831,10.12,8.268,17.111,5.123,25.437c3.03-8.958,9.891-16.548,19.423-20.173c7.968-3.02,16.29-2.782,23.551,0.057    c0.005-0.008-0.003,0.014,0,0C60.424,10.127,69.165,22.106,69.165,36.137z M37.042,53.068c0.9,1.553,2.433,2.32,4.585,2.32    c2.166,0,3.691-0.768,4.6-2.32c0.899-1.553,1.352-3.998,1.352-7.337c0-3.333-0.453-5.782-1.352-7.329    c-0.909-1.552-2.434-2.324-4.6-2.324c-2.153,0-3.686,0.773-4.585,2.324c-0.908,1.547-1.356,3.996-1.356,7.329    C35.685,49.07,36.134,51.516,37.042,53.068z M28.423,17.981c0.916-0.892,1.375-2.012,1.375-3.355c0-1.343-0.459-2.46-1.375-3.357    c-0.918-0.894-2.02-1.345-3.326-1.345c-1.307,0-2.411,0.45-3.328,1.345c-0.921,0.897-1.373,2.014-1.373,3.357    c0,1.344,0.451,2.464,1.373,3.355c0.917,0.9,2.021,1.347,3.328,1.347C26.402,19.328,27.504,18.882,28.423,17.981z"/>
	</g>
</g>
<g>
	<path fill="#FFFFFF" d="M80.044,14.205c1.008-0.168,2.328-0.313,4.008-0.313c2.064,0,3.576,0.48,4.537,1.345   c0.888,0.768,1.416,1.944,1.416,3.384c0,1.465-0.432,2.616-1.248,3.457c-1.104,1.176-2.904,1.775-4.945,1.775   c-0.624,0-1.2-0.023-1.68-0.144v6.48h-2.088V14.205z M82.132,22.005c0.456,0.12,1.032,0.168,1.729,0.168   c2.52,0,4.056-1.225,4.056-3.456c0-2.137-1.512-3.169-3.816-3.169c-0.912,0-1.608,0.072-1.968,0.168V22.005z"/>
	<path fill="#FFFFFF" d="M92.356,22.197c0-1.367-0.024-2.544-0.096-3.624h1.848l0.072,2.28h0.096c0.528-1.559,1.8-2.544,3.216-2.544   c0.24,0,0.408,0.023,0.6,0.072v1.992c-0.216-0.049-0.432-0.072-0.72-0.072c-1.488,0-2.545,1.128-2.832,2.712   c-0.048,0.288-0.096,0.624-0.096,0.984v6.192h-2.088V22.197z"/>
	<path fill="#FFFFFF" d="M110.478,24.286c0,4.296-2.977,6.168-5.785,6.168c-3.144,0-5.568-2.304-5.568-5.976   c0-3.888,2.544-6.168,5.76-6.168C108.222,18.309,110.478,20.733,110.478,24.286z M101.261,24.406c0,2.544,1.464,4.464,3.528,4.464   c2.016,0,3.528-1.896,3.528-4.512c0-1.969-0.984-4.465-3.48-4.465C102.341,19.893,101.261,22.197,101.261,24.406z"/>
	<path fill="#FFFFFF" d="M123.15,18.573c-0.048,0.84-0.096,1.776-0.096,3.192v6.745c0,2.664-0.528,4.296-1.656,5.304   c-1.128,1.057-2.76,1.393-4.224,1.393c-1.392,0-2.928-0.336-3.864-0.96l0.528-1.608c0.768,0.48,1.968,0.912,3.408,0.912   c2.16,0,3.745-1.128,3.745-4.057v-1.296h-0.048c-0.648,1.08-1.896,1.944-3.696,1.944c-2.88,0-4.944-2.448-4.944-5.665   c0-3.936,2.568-6.168,5.232-6.168c2.016,0,3.12,1.056,3.625,2.016h0.048l0.096-1.752H123.15z M120.965,23.158   c0-0.36-0.024-0.673-0.12-0.961c-0.384-1.224-1.416-2.232-2.953-2.232c-2.016,0-3.456,1.704-3.456,4.393   c0,2.279,1.152,4.176,3.432,4.176c1.296,0,2.472-0.816,2.928-2.16c0.12-0.36,0.168-0.767,0.168-1.128V23.158z"/>
	<path fill="#FFFFFF" d="M126.413,22.197c0-1.367-0.024-2.544-0.096-3.624h1.848l0.072,2.28h0.096   c0.528-1.559,1.8-2.544,3.216-2.544c0.24,0,0.408,0.023,0.6,0.072v1.992c-0.216-0.049-0.432-0.072-0.72-0.072   c-1.488,0-2.544,1.128-2.832,2.712c-0.048,0.288-0.096,0.624-0.096,0.984v6.192h-2.088V22.197z"/>
	<path fill="#FFFFFF" d="M140.573,30.19l-0.168-1.464h-0.072c-0.648,0.912-1.896,1.727-3.552,1.727   c-2.353,0-3.553-1.656-3.553-3.336c0-2.809,2.497-4.345,6.985-4.32v-0.24c0-0.96-0.264-2.688-2.64-2.688   c-1.08,0-2.209,0.337-3.025,0.864l-0.48-1.392c0.96-0.624,2.352-1.032,3.816-1.032c3.552,0,4.417,2.424,4.417,4.752v4.345   c0,1.008,0.048,1.992,0.192,2.784H140.573z M140.261,24.261c-2.304-0.048-4.921,0.36-4.921,2.616c0,1.368,0.912,2.017,1.992,2.017   c1.512,0,2.472-0.96,2.808-1.944c0.072-0.216,0.12-0.456,0.12-0.672V24.261z"/>
	<path fill="#FFFFFF" d="M145.708,21.717c0-1.2-0.024-2.185-0.096-3.145h1.848l0.097,1.872h0.071   c0.648-1.104,1.729-2.136,3.648-2.136c1.584,0,2.784,0.96,3.289,2.328h0.048c0.359-0.648,0.815-1.152,1.296-1.513   c0.696-0.527,1.464-0.815,2.568-0.815c1.536,0,3.816,1.008,3.816,5.04v6.841h-2.064v-6.576c0-2.233-0.816-3.577-2.52-3.577   c-1.2,0-2.136,0.889-2.496,1.921c-0.096,0.288-0.168,0.672-0.168,1.056v7.177h-2.064v-6.961c0-1.848-0.816-3.192-2.424-3.192   c-1.32,0-2.28,1.057-2.616,2.112c-0.12,0.313-0.168,0.673-0.168,1.032v7.009h-2.064V21.717z"/>
	<path fill="#FFFFFF" d="M165.724,21.717c0-1.2-0.023-2.185-0.096-3.145h1.848l0.097,1.872h0.071   c0.648-1.104,1.729-2.136,3.648-2.136c1.584,0,2.784,0.96,3.289,2.328h0.048c0.359-0.648,0.815-1.152,1.296-1.513   c0.696-0.527,1.464-0.815,2.568-0.815c1.536,0,3.816,1.008,3.816,5.04v6.841h-2.064v-6.576c0-2.233-0.816-3.577-2.52-3.577   c-1.2,0-2.136,0.889-2.496,1.921c-0.096,0.288-0.168,0.672-0.168,1.056v7.177h-2.064v-6.961c0-1.848-0.815-3.192-2.424-3.192   c-1.32,0-2.28,1.057-2.616,2.112c-0.12,0.313-0.168,0.673-0.168,1.032v7.009h-2.064V21.717z"/>
	<path fill="#FFFFFF" d="M186.916,24.765c0.048,2.856,1.872,4.032,3.983,4.032c1.513,0,2.425-0.264,3.217-0.6l0.36,1.512   c-0.744,0.337-2.017,0.721-3.864,0.721c-3.577,0-5.713-2.353-5.713-5.857c0-3.505,2.064-6.265,5.448-6.265   c3.793,0,4.801,3.336,4.801,5.473c0,0.432-0.048,0.768-0.072,0.983H186.916z M193.109,23.253c0.023-1.344-0.553-3.433-2.929-3.433   c-2.136,0-3.072,1.969-3.24,3.433H193.109z"/>
	<path fill="#FFFFFF" d="M209.284,30.19l-0.168-1.464h-0.072c-0.647,0.912-1.895,1.727-3.552,1.727   c-2.353,0-3.553-1.656-3.553-3.336c0-2.809,2.496-4.345,6.984-4.32v-0.24c0-0.96-0.264-2.688-2.64-2.688   c-1.08,0-2.208,0.337-3.024,0.864l-0.48-1.392c0.961-0.624,2.353-1.032,3.816-1.032c3.553,0,4.417,2.424,4.417,4.752v4.345   c0,1.008,0.048,1.992,0.191,2.784H209.284z M205.707,13.556l2.088,3.433h-1.488l-2.928-3.433H205.707z M208.972,24.261   c-2.305-0.048-4.921,0.36-4.921,2.616c0,1.368,0.912,2.017,1.992,2.017c1.513,0,2.473-0.96,2.809-1.944   c0.071-0.216,0.12-0.456,0.12-0.672V24.261z"/>
	<path fill="#FFFFFF" d="M230.019,24.286c0,4.296-2.976,6.168-5.784,6.168c-3.144,0-5.568-2.304-5.568-5.976   c0-3.888,2.544-6.168,5.761-6.168C227.763,18.309,230.019,20.733,230.019,24.286z M220.802,24.406c0,2.544,1.465,4.464,3.528,4.464   c2.017,0,3.528-1.896,3.528-4.512c0-1.969-0.983-4.465-3.479-4.465C221.882,19.893,220.802,22.197,220.802,24.406z"/>
	<path fill="#FFFFFF" d="M232.682,22.197c0-1.367-0.023-2.544-0.096-3.624h1.848l0.072,2.28h0.096   c0.528-1.559,1.801-2.544,3.217-2.544c0.24,0,0.408,0.023,0.6,0.072v1.992c-0.216-0.049-0.432-0.072-0.72-0.072   c-1.488,0-2.544,1.128-2.832,2.712c-0.048,0.288-0.096,0.624-0.096,0.984v6.192h-2.089V22.197z"/>
	<path fill="#FFFFFF" d="M242.979,15.309c0.023,0.72-0.504,1.296-1.345,1.296c-0.743,0-1.271-0.576-1.271-1.296   c0-0.744,0.552-1.32,1.32-1.32C242.475,13.989,242.979,14.565,242.979,15.309z M240.626,30.19V18.573h2.112V30.19H240.626z"/>
	<path fill="#FFFFFF" d="M247.419,24.765c0.048,2.856,1.872,4.032,3.984,4.032c1.512,0,2.424-0.264,3.216-0.6l0.36,1.512   c-0.744,0.337-2.017,0.721-3.864,0.721c-3.577,0-5.713-2.353-5.713-5.857c0-3.505,2.064-6.265,5.448-6.265   c3.793,0,4.801,3.336,4.801,5.473c0,0.432-0.048,0.768-0.072,0.983H247.419z M253.612,23.253c0.023-1.344-0.553-3.433-2.929-3.433   c-2.136,0-3.072,1.969-3.24,3.433H253.612z"/>
	<path fill="#FFFFFF" d="M258.266,21.717c0-1.2-0.023-2.185-0.096-3.145h1.872l0.12,1.92h0.048c0.576-1.104,1.92-2.184,3.841-2.184   c1.607,0,4.103,0.96,4.103,4.944v6.936h-2.111v-6.696c0-1.872-0.696-3.433-2.689-3.433c-1.393,0-2.473,0.984-2.832,2.16   c-0.097,0.264-0.145,0.624-0.145,0.984v6.984h-2.112V21.717z"/>
	<path fill="#FFFFFF" d="M274.033,15.237v3.336h3.025v1.608h-3.025v6.265c0,1.439,0.408,2.256,1.585,2.256   c0.552,0,0.96-0.072,1.224-0.144l0.096,1.584c-0.407,0.168-1.056,0.288-1.872,0.288c-0.983,0-1.775-0.313-2.28-0.889   c-0.6-0.624-0.815-1.656-0.815-3.023v-6.337h-1.801v-1.608h1.801v-2.784L274.033,15.237z"/>
	<path fill="#FFFFFF" d="M285.865,30.19l-0.168-1.464h-0.072c-0.647,0.912-1.895,1.727-3.552,1.727   c-2.353,0-3.553-1.656-3.553-3.336c0-2.809,2.496-4.345,6.984-4.32v-0.24c0-0.96-0.264-2.688-2.64-2.688   c-1.08,0-2.208,0.337-3.024,0.864l-0.48-1.392c0.961-0.624,2.353-1.032,3.816-1.032c3.553,0,4.417,2.424,4.417,4.752v4.345   c0,1.008,0.048,1.992,0.191,2.784H285.865z M285.553,24.261c-2.305-0.048-4.921,0.36-4.921,2.616c0,1.368,0.912,2.017,1.992,2.017   c1.513,0,2.473-0.96,2.809-1.944c0.071-0.216,0.12-0.456,0.12-0.672V24.261z"/>
	<path fill="#FFFFFF" d="M293.449,15.237v3.336h3.024v1.608h-3.024v6.265c0,1.439,0.408,2.256,1.585,2.256   c0.552,0,0.96-0.072,1.224-0.144l0.096,1.584c-0.407,0.168-1.056,0.288-1.872,0.288c-0.983,0-1.775-0.313-2.28-0.889   c-0.6-0.624-0.815-1.656-0.815-3.023v-6.337h-1.801v-1.608h1.801v-2.784L293.449,15.237z"/>
	<path fill="#FFFFFF" d="M301.201,15.309c0.023,0.72-0.504,1.296-1.345,1.296c-0.743,0-1.271-0.576-1.271-1.296   c0-0.744,0.552-1.32,1.32-1.32C300.697,13.989,301.201,14.565,301.201,15.309z M298.848,30.19V18.573h2.112V30.19H298.848z"/>
	<path fill="#FFFFFF" d="M314.977,24.286c0,4.296-2.976,6.168-5.784,6.168c-3.145,0-5.568-2.304-5.568-5.976   c0-3.888,2.544-6.168,5.761-6.168C312.721,18.309,314.977,20.733,314.977,24.286z M305.76,24.406c0,2.544,1.465,4.464,3.528,4.464   c2.017,0,3.528-1.896,3.528-4.512c0-1.969-0.983-4.465-3.479-4.465C306.84,19.893,305.76,22.197,305.76,24.406z"/>
	<path fill="#FFFFFF" d="M317.64,21.717c0-1.2-0.023-2.185-0.096-3.145h1.872l0.12,1.92h0.048c0.576-1.104,1.92-2.184,3.841-2.184   c1.607,0,4.103,0.96,4.103,4.944v6.936h-2.111v-6.696c0-1.872-0.696-3.433-2.688-3.433c-1.393,0-2.473,0.984-2.832,2.16   c-0.097,0.264-0.145,0.624-0.145,0.984v6.984h-2.112V21.717z"/>
	<path fill="#FFFFFF" d="M79.972,48.366c0-1.488-0.048-2.689-0.096-3.793h1.896l0.096,1.992h0.048   c0.864-1.416,2.232-2.256,4.128-2.256c2.808,0,4.921,2.375,4.921,5.904c0,4.176-2.545,6.24-5.28,6.24   c-1.536,0-2.88-0.672-3.577-1.824h-0.048v6.313h-2.088V48.366z M82.061,51.462c0,0.313,0.048,0.6,0.096,0.863   c0.384,1.465,1.656,2.473,3.168,2.473c2.232,0,3.528-1.824,3.528-4.488c0-2.328-1.224-4.32-3.456-4.32   c-1.44,0-2.784,1.031-3.192,2.615c-0.072,0.266-0.144,0.576-0.144,0.865V51.462z"/>
	<path fill="#FFFFFF" d="M93.628,48.196c0-1.367-0.024-2.543-0.096-3.623h1.848l0.072,2.279h0.096   c0.528-1.559,1.8-2.543,3.216-2.543c0.24,0,0.408,0.023,0.6,0.072v1.992c-0.216-0.049-0.432-0.072-0.72-0.072   c-1.488,0-2.545,1.127-2.832,2.711c-0.048,0.289-0.096,0.625-0.096,0.984v6.193h-2.088V48.196z"/>
	<path fill="#FFFFFF" d="M111.749,50.286c0,4.295-2.977,6.168-5.785,6.168c-3.144,0-5.568-2.305-5.568-5.977   c0-3.889,2.544-6.168,5.76-6.168C109.493,44.31,111.749,46.733,111.749,50.286z M102.533,50.405c0,2.545,1.464,4.465,3.528,4.465   c2.016,0,3.528-1.896,3.528-4.512c0-1.969-0.984-4.465-3.481-4.465C103.613,45.894,102.533,48.196,102.533,50.405z"/>
	<path fill="#FFFFFF" d="M114.628,56.19v-10.01h-1.632v-1.607h1.632v-0.553c0-1.631,0.36-3.119,1.344-4.057   c0.792-0.768,1.848-1.08,2.832-1.08c0.744,0,1.392,0.168,1.8,0.336l-0.288,1.633c-0.312-0.145-0.744-0.264-1.344-0.264   c-1.8,0-2.256,1.584-2.256,3.359v0.625h2.809v1.607h-2.809v10.01H114.628z"/>
	<path fill="#FFFFFF" d="M122.284,50.765c0.048,2.857,1.872,4.033,3.984,4.033c1.512,0,2.424-0.264,3.216-0.6l0.36,1.512   c-0.744,0.336-2.016,0.721-3.864,0.721c-3.576,0-5.712-2.353-5.712-5.857c0-3.504,2.064-6.264,5.448-6.264   c3.793,0,4.801,3.336,4.801,5.473c0,0.432-0.048,0.768-0.072,0.983H122.284z M128.477,49.253c0.024-1.344-0.552-3.432-2.928-3.432   c-2.136,0-3.072,1.969-3.24,3.432H128.477z"/>
	<path fill="#FFFFFF" d="M132.845,54.03c0.624,0.408,1.728,0.84,2.784,0.84c1.536,0,2.256-0.768,2.256-1.728   c0-1.008-0.6-1.561-2.16-2.137c-2.088-0.744-3.072-1.897-3.072-3.287c0-1.873,1.512-3.408,4.008-3.408   c1.176,0,2.209,0.336,2.856,0.719l-0.528,1.537c-0.456-0.289-1.296-0.672-2.377-0.672c-1.248,0-1.944,0.719-1.944,1.584   c0,0.959,0.696,1.393,2.208,1.969c2.016,0.768,3.048,1.775,3.048,3.504c0,2.039-1.585,3.48-4.345,3.48   c-1.272,0-2.448-0.313-3.264-0.793L132.845,54.03z"/>
	<path fill="#FFFFFF" d="M142.349,54.03c0.624,0.408,1.728,0.84,2.784,0.84c1.536,0,2.256-0.768,2.256-1.728   c0-1.008-0.6-1.561-2.16-2.137c-2.088-0.744-3.072-1.897-3.072-3.287c0-1.873,1.512-3.408,4.008-3.408   c1.176,0,2.208,0.336,2.856,0.719l-0.528,1.537c-0.456-0.289-1.296-0.672-2.376-0.672c-1.248,0-1.944,0.719-1.944,1.584   c0,0.959,0.696,1.393,2.208,1.969c2.016,0.768,3.048,1.775,3.048,3.504c0,2.039-1.584,3.48-4.345,3.48   c-1.272,0-2.448-0.313-3.264-0.793L142.349,54.03z"/>
	<path fill="#FFFFFF" d="M154.492,41.31c0.023,0.719-0.504,1.295-1.345,1.295c-0.743,0-1.271-0.576-1.271-1.295   c0-0.744,0.552-1.32,1.32-1.32C153.988,39.989,154.492,40.565,154.492,41.31z M152.139,56.19V44.573h2.112V56.19H152.139z"/>
	<path fill="#FFFFFF" d="M168.268,50.286c0,4.295-2.976,6.168-5.784,6.168c-3.145,0-5.568-2.305-5.568-5.977   c0-3.889,2.544-6.168,5.761-6.168C166.012,44.31,168.268,46.733,168.268,50.286z M159.051,50.405c0,2.545,1.465,4.465,3.528,4.465   c2.017,0,3.528-1.896,3.528-4.512c0-1.969-0.983-4.465-3.479-4.465C160.131,45.894,159.051,48.196,159.051,50.405z"/>
	<path fill="#FFFFFF" d="M170.931,47.718c0-1.201-0.023-2.186-0.096-3.145h1.872l0.12,1.92h0.048   c0.576-1.103,1.92-2.184,3.841-2.184c1.607,0,4.104,0.959,4.104,4.943v6.938h-2.111v-6.697c0-1.871-0.696-3.432-2.689-3.432   c-1.392,0-2.473,0.984-2.832,2.16c-0.097,0.264-0.144,0.623-0.144,0.984v6.984h-2.112V47.718z"/>
	<path fill="#FFFFFF" d="M184.25,47.718c0-1.201-0.023-2.186-0.096-3.145h1.872l0.12,1.92h0.048c0.576-1.103,1.92-2.184,3.841-2.184   c1.607,0,4.104,0.959,4.104,4.943v6.938h-2.111v-6.697c0-1.871-0.696-3.432-2.688-3.432c-1.393,0-2.473,0.984-2.832,2.16   c-0.097,0.264-0.145,0.623-0.145,0.984v6.984h-2.112V47.718z"/>
	<path fill="#FFFFFF" d="M198.748,50.765c0.048,2.857,1.872,4.033,3.984,4.033c1.512,0,2.424-0.264,3.216-0.6l0.36,1.512   c-0.744,0.336-2.017,0.721-3.864,0.721c-3.577,0-5.713-2.353-5.713-5.857c0-3.504,2.064-6.264,5.448-6.264   c3.793,0,4.801,3.336,4.801,5.473c0,0.432-0.048,0.768-0.072,0.983H198.748z M204.94,49.253c0.023-1.344-0.553-3.432-2.929-3.432   c-2.136,0-3.072,1.969-3.24,3.432H204.94z"/>
	<path fill="#FFFFFF" d="M209.594,39.149h2.112V56.19h-2.112V39.149z"/>
	<path fill="#FFFFFF" d="M215.258,39.149h2.112V56.19h-2.112V39.149z"/>
	<path fill="#FFFFFF" d="M222.099,50.765c0.048,2.857,1.872,4.033,3.984,4.033c1.512,0,2.424-0.264,3.216-0.6l0.36,1.512   c-0.744,0.336-2.017,0.721-3.864,0.721c-3.577,0-5.713-2.353-5.713-5.857c0-3.504,2.064-6.264,5.448-6.264   c3.793,0,4.801,3.336,4.801,5.473c0,0.432-0.048,0.768-0.072,0.983H222.099z M228.291,49.253c0.023-1.344-0.553-3.432-2.929-3.432   c-2.136,0-3.072,1.969-3.24,3.432H228.291z"/>
</g>
</svg>