<!-- Generator: Adobe Illustrator 19.2.1, SVG Export Plug-In . SVG Version: 6.00 Build 0)  -->
<svg xmlns="http://www.w3.org/2000/svg" xmlns:xlink="http://www.w3.org/1999/xlink" version="1.1" id="English" x="0px" y="0px" width="240.976px" height="72.282px" viewBox="0 0 240.976 72.282" enable-background="new 0 0 240.976 72.282" xml:space="preserve">
<path fill="#FFFFFF" d="M240.787,6.635l0.189-3.013H51.924C47.16,1.304,41.814,0,36.169,0C16.243,0,0.032,16.213,0.032,36.142  c0,19.927,16.21,36.14,36.137,36.14c5.646,0,10.992-1.304,15.756-3.622h177.719l-0.197-3.021c-0.023-0.363-0.619-8.668-5.625-20.094  c0.094-0.113,0.186-0.228,0.275-0.341C239.419,25.838,240.738,7.409,240.787,6.635z"/>
<g>
	<linearGradient id="SVGID_1_" gradientUnits="userSpaceOnUse" x1="211.2622" y1="6.457" x2="211.2622" y2="65.7336">
		<stop offset="0" style="stop-color:#AE86BC"/>
		<stop offset="0.1525" style="stop-color:#A672B1"/>
		<stop offset="0.3124" style="stop-color:#A063A9"/>
		<stop offset="0.465" style="stop-color:#9C59A3"/>
		<stop offset="0.6012" style="stop-color:#9B55A2"/>
		<stop offset="0.7308" style="stop-color:#9A54A1"/>
		<stop offset="0.8093" style="stop-color:#94509F"/>
		<stop offset="0.8742" style="stop-color:#8A489C"/>
		<stop offset="0.9316" style="stop-color:#7D3E98"/>
		<stop offset="0.9836" style="stop-color:#6D3192"/>
		<stop offset="1" style="stop-color:#662D91"/>
	</linearGradient>
	<path fill="url(#SVGID_1_)" d="M184.992,6.457c0,0,10.563,4.047,25.088,22.412c4.447,5.622,7.664,11.176,10.002,16.214   c0.438-0.532,0.928-1.08,1.369-1.638c14.947-18.894,16.082-36.989,16.082-36.989H184.992z"/>
	<path fill="#9A7BB1" d="M194.298,65.825h31.895c0,0-0.578-8.81-6.111-20.741C206.082,62.103,194.298,65.825,194.298,65.825z"/>
	<linearGradient id="SVGID_2_" gradientUnits="userSpaceOnUse" x1="135.5654" y1="6.2902" x2="135.5654" y2="65.8246">
		<stop offset="0" style="stop-color:#AE86BC"/>
		<stop offset="0.012" style="stop-color:#A97EB8"/>
		<stop offset="0.0451" style="stop-color:#9F6CAE"/>
		<stop offset="0.0818" style="stop-color:#975EA6"/>
		<stop offset="0.1236" style="stop-color:#9253A1"/>
		<stop offset="0.175" style="stop-color:#8F4D9E"/>
		<stop offset="0.2638" style="stop-color:#8E4B9D"/>
		<stop offset="0.7914" style="stop-color:#7E3E98"/>
		<stop offset="0.8555" style="stop-color:#7B3D97"/>
		<stop offset="0.9193" style="stop-color:#733996"/>
		<stop offset="0.983" style="stop-color:#653393"/>
		<stop offset="1" style="stop-color:#613193"/>
	</linearGradient>
	<path fill="url(#SVGID_2_)" d="M51.049,65.825h143.29c0,0,11.764-3.748,25.742-20.741c-2.342-5.046-5.564-10.608-10.021-16.24   c-14.549-18.398-25.068-22.388-25.068-22.388H51.049"/>
</g>
<g>
	<path fill="#FFFFFF" d="M36.142,0C16.213,0,0,16.213,0,36.142c0,19.927,16.213,36.14,36.142,36.14   c19.928,0,36.141-16.213,36.141-36.14C72.283,16.213,56.07,0,36.142,0z"/>
	<g>
		<linearGradient id="SVGID_3_" gradientUnits="userSpaceOnUse" x1="16.999" y1="9.1605" x2="54.8481" y2="63.2146">
			<stop offset="0.309" style="stop-color:#13B5EA"/>
			<stop offset="0.4731" style="stop-color:#008FC9"/>
			<stop offset="0.7645" style="stop-color:#005C9C"/>
			<stop offset="0.8989" style="stop-color:#004B8D"/>
		</linearGradient>
		<path fill="url(#SVGID_3_)" d="M68.945,36.132c0,18.259-14.804,33.06-33.064,33.06c-15.523,0-28.537-10.702-32.097-25.12    c6.472-0.073,12.607-1.52,18.151-4.049V27.157c0-1.021-0.359-1.767-1.064-2.239c-0.708-0.466-1.962-0.704-3.773-0.704v-1.19    c2.396-0.084,4.593-0.223,6.589-0.421c1.998-0.199,3.716-0.501,5.167-0.908v14.4c0.007-0.011,0.026-0.017,0.036-0.025v4.311    c0,1.061,0,2.22,0,3.474c0,1.22-0.024,2.414-0.065,3.591c-0.037,1.18-0.099,2.281-0.176,3.295c-0.08,1.021-0.175,1.88-0.292,2.592    c1.961,1.134,4.138,2.076,6.539,2.825c2.395,0.747,4.634,1.115,6.717,1.115c1.766,0,3.474-0.265,5.126-0.793    c1.653-0.523,3.114-1.311,4.393-2.329c1.275-1.019,2.305-2.277,3.091-3.772c0.788-1.493,1.175-3.187,1.175-5.067    c0-1.731-0.296-3.318-0.883-4.776c-0.586-1.455-1.416-2.713-2.478-3.77c-1.064-1.064-2.319-1.896-3.777-2.51    c-1.45-0.604-3.045-0.918-4.777-0.918c-1.301,0-2.624,0.235-3.98,0.686c-1.36,0.458-2.588,1.026-3.692,1.694v-5.566    c5.955-6.215,10.147-14.141,11.76-22.968c-7.37-3.128-15.906-3.535-23.983-0.472C14.611,10.115,8.048,17.106,4.903,25.432    c3.03-8.958,9.891-16.548,19.423-20.172c7.968-3.019,16.289-2.782,23.551,0.057c0.005-0.008-0.004,0.014,0,0    C60.204,10.122,68.945,22.101,68.945,36.132z M36.821,53.062c0.9,1.554,2.433,2.321,4.585,2.321c2.166,0,3.691-0.768,4.6-2.321    c0.899-1.552,1.353-3.997,1.353-7.336c0-3.333-0.453-5.782-1.353-7.329c-0.909-1.552-2.434-2.324-4.6-2.324    c-2.153,0-3.685,0.772-4.585,2.324c-0.908,1.547-1.356,3.996-1.356,7.329C35.465,49.065,35.914,51.51,36.821,53.062z     M28.203,17.976c0.916-0.892,1.375-2.012,1.375-3.355c0-1.343-0.459-2.46-1.375-3.357c-0.918-0.894-2.021-1.345-3.326-1.345    c-1.307,0-2.411,0.45-3.328,1.345c-0.921,0.897-1.372,2.014-1.372,3.357c0,1.344,0.451,2.464,1.372,3.355    c0.917,0.9,2.021,1.347,3.328,1.347C26.182,19.323,27.284,18.877,28.203,17.976z"/>
	</g>
</g>
<path fill="#FFFFFF" d="M25.75,43.057"/>
<g>
	<path fill="#FFFFFF" d="M91.672,31.157c-0.768,0.385-2.304,0.769-4.272,0.769c-4.561,0-7.993-2.881-7.993-8.185   c0-5.064,3.432-8.497,8.449-8.497c2.016,0,3.288,0.432,3.84,0.72l-0.504,1.704c-0.792-0.384-1.92-0.672-3.264-0.672   c-3.792,0-6.313,2.425-6.313,6.673c0,3.96,2.28,6.505,6.216,6.505c1.272,0,2.568-0.265,3.409-0.673L91.672,31.157z"/>
	<path fill="#FFFFFF" d="M100.48,31.685l-0.168-1.464h-0.072c-0.648,0.912-1.896,1.727-3.552,1.727   c-2.353,0-3.553-1.656-3.553-3.336c0-2.809,2.496-4.345,6.985-4.32v-0.24c0-0.96-0.264-2.688-2.64-2.688   c-1.08,0-2.208,0.337-3.024,0.864l-0.48-1.392c0.96-0.624,2.352-1.032,3.816-1.032c3.552,0,4.416,2.424,4.416,4.752v4.345   c0,1.008,0.048,1.992,0.192,2.784H100.48z M100.168,25.756c-2.304-0.048-4.92,0.36-4.92,2.616c0,1.368,0.912,2.017,1.992,2.017   c1.512,0,2.472-0.96,2.808-1.944c0.072-0.216,0.12-0.456,0.12-0.672V25.756z"/>
	<path fill="#FFFFFF" d="M105.616,23.692c0-1.367-0.024-2.544-0.096-3.624h1.848l0.072,2.28h0.096c0.528-1.56,1.8-2.544,3.216-2.544   c0.24,0,0.408,0.023,0.6,0.072v1.992c-0.216-0.049-0.432-0.072-0.72-0.072c-1.488,0-2.544,1.128-2.832,2.712   c-0.048,0.288-0.096,0.624-0.096,0.984v6.192h-2.088V23.692z"/>
	<path fill="#FFFFFF" d="M114.4,26.26c0.048,2.856,1.872,4.032,3.984,4.032c1.512,0,2.424-0.264,3.216-0.6l0.36,1.512   c-0.744,0.337-2.016,0.721-3.864,0.721c-3.576,0-5.712-2.353-5.712-5.857c0-3.505,2.064-6.265,5.448-6.265   c3.792,0,4.8,3.336,4.8,5.473c0,0.432-0.048,0.768-0.071,0.983H114.4z M120.592,24.749c0.024-1.344-0.552-3.433-2.928-3.433   c-2.136,0-3.072,1.969-3.24,3.433H120.592z"/>
	<path fill="#FFFFFF" d="M126.424,26.26c0.048,2.856,1.872,4.032,3.984,4.032c1.512,0,2.424-0.264,3.216-0.6l0.36,1.512   c-0.744,0.337-2.017,0.721-3.864,0.721c-3.577,0-5.713-2.353-5.713-5.857c0-3.505,2.065-6.265,5.448-6.265   c3.793,0,4.801,3.336,4.801,5.473c0,0.432-0.048,0.768-0.072,0.983H126.424z M132.617,24.749c0.023-1.344-0.553-3.433-2.929-3.433   c-2.136,0-3.072,1.969-3.24,3.433H132.617z"/>
	<path fill="#FFFFFF" d="M137.271,23.692c0-1.367-0.023-2.544-0.096-3.624h1.848l0.072,2.28h0.096   c0.528-1.56,1.801-2.544,3.217-2.544c0.24,0,0.408,0.023,0.6,0.072v1.992c-0.216-0.049-0.432-0.072-0.72-0.072   c-1.488,0-2.544,1.128-2.832,2.712c-0.048,0.288-0.096,0.624-0.096,0.984v6.192h-2.089V23.692z"/>
	<path fill="#FFFFFF" d="M149.895,24.413v1.559h-5.929v-1.559H149.895z"/>
	<path fill="#FFFFFF" d="M152.367,23.692c0-1.367-0.023-2.544-0.096-3.624h1.848l0.072,2.28h0.096   c0.528-1.56,1.801-2.544,3.217-2.544c0.24,0,0.408,0.023,0.6,0.072v1.992c-0.216-0.049-0.432-0.072-0.72-0.072   c-1.488,0-2.544,1.128-2.832,2.712c-0.048,0.288-0.096,0.624-0.096,0.984v6.192h-2.089V23.692z"/>
	<path fill="#FFFFFF" d="M161.151,26.26c0.048,2.856,1.872,4.032,3.984,4.032c1.512,0,2.424-0.264,3.216-0.6l0.36,1.512   c-0.744,0.337-2.017,0.721-3.864,0.721c-3.577,0-5.713-2.353-5.713-5.857c0-3.505,2.064-6.265,5.448-6.265   c3.793,0,4.801,3.336,4.801,5.473c0,0.432-0.048,0.768-0.072,0.983H161.151z M167.343,24.749c0.023-1.344-0.553-3.433-2.929-3.433   c-2.136,0-3.072,1.969-3.24,3.433H167.343z"/>
	<path fill="#FFFFFF" d="M171.998,14.644h2.112v17.041h-2.112V14.644z"/>
	<path fill="#FFFFFF" d="M184.094,31.685l-0.168-1.464h-0.072c-0.647,0.912-1.895,1.727-3.552,1.727   c-2.353,0-3.553-1.656-3.553-3.336c0-2.809,2.496-4.345,6.984-4.32v-0.24c0-0.96-0.264-2.688-2.64-2.688   c-1.08,0-2.208,0.337-3.024,0.864l-0.48-1.392c0.961-0.624,2.352-1.032,3.816-1.032c3.553,0,4.417,2.424,4.417,4.752v4.345   c0,1.008,0.048,1.992,0.191,2.784H184.094z M183.783,25.756c-2.305-0.048-4.921,0.36-4.921,2.616c0,1.368,0.912,2.017,1.992,2.017   c1.513,0,2.473-0.96,2.809-1.944c0.071-0.216,0.12-0.456,0.12-0.672V25.756z"/>
	<path fill="#FFFFFF" d="M191.677,16.732v3.336h3.024v1.608h-3.024v6.265c0,1.439,0.408,2.256,1.585,2.256   c0.552,0,0.96-0.072,1.224-0.144l0.096,1.584c-0.407,0.168-1.056,0.288-1.872,0.288c-0.983,0-1.775-0.313-2.28-0.889   c-0.6-0.624-0.815-1.656-0.815-3.023v-6.337h-1.801v-1.608h1.801v-2.784L191.677,16.732z"/>
	<path fill="#FFFFFF" d="M198.11,26.26c0.048,2.856,1.872,4.032,3.984,4.032c1.512,0,2.424-0.264,3.216-0.6l0.36,1.512   c-0.744,0.337-2.017,0.721-3.864,0.721c-3.577,0-5.713-2.353-5.713-5.857c0-3.505,2.064-6.265,5.448-6.265   c3.793,0,4.801,3.336,4.801,5.473c0,0.432-0.048,0.768-0.072,0.983H198.11z M204.302,24.749c0.023-1.344-0.553-3.433-2.929-3.433   c-2.136,0-3.072,1.969-3.24,3.433H204.302z"/>
	<path fill="#FFFFFF" d="M218.99,14.644v14.041c0,1.032,0.023,2.208,0.096,3h-1.896l-0.097-2.017h-0.048   c-0.648,1.297-2.064,2.28-3.96,2.28c-2.809,0-4.969-2.376-4.969-5.904c-0.024-3.864,2.376-6.24,5.208-6.24   c1.776,0,2.977,0.84,3.505,1.776h0.048v-6.936H218.99z M216.877,24.796c0-0.264-0.024-0.624-0.096-0.888   c-0.312-1.345-1.465-2.448-3.049-2.448c-2.184,0-3.48,1.92-3.48,4.488c0,2.352,1.152,4.296,3.433,4.296   c1.416,0,2.712-0.936,3.097-2.52c0.071-0.288,0.096-0.576,0.096-0.912V24.796z"/>
	<path fill="#FFFFFF" d="M80.368,38.7c1.008-0.168,2.328-0.313,4.008-0.313c2.064,0,3.576,0.48,4.537,1.345   c0.888,0.768,1.416,1.944,1.416,3.384c0,1.465-0.432,2.616-1.248,3.457c-1.104,1.176-2.904,1.775-4.945,1.775   c-0.624,0-1.2-0.023-1.68-0.143v6.48h-2.088V38.7z M82.456,46.5c0.456,0.12,1.032,0.168,1.729,0.168   c2.52,0,4.056-1.225,4.056-3.456c0-2.137-1.512-3.169-3.816-3.169c-0.912,0-1.608,0.072-1.968,0.168V46.5z"/>
	<path fill="#FFFFFF" d="M92.68,46.692c0-1.367-0.024-2.544-0.096-3.624h1.848l0.072,2.28H94.6c0.528-1.56,1.8-2.544,3.216-2.544   c0.24,0,0.408,0.023,0.6,0.072v1.992c-0.216-0.049-0.432-0.072-0.72-0.072c-1.488,0-2.544,1.128-2.832,2.712   c-0.048,0.288-0.096,0.624-0.096,0.984v6.192H92.68V46.692z"/>
	<path fill="#FFFFFF" d="M110.801,48.781c0,4.296-2.977,6.168-5.785,6.168c-3.144,0-5.568-2.304-5.568-5.977   c0-3.888,2.544-6.168,5.76-6.168C108.545,42.804,110.801,45.228,110.801,48.781z M101.584,48.901c0,2.544,1.464,4.464,3.528,4.464   c2.016,0,3.528-1.896,3.528-4.512c0-1.969-0.984-4.465-3.48-4.465C102.665,44.388,101.584,46.692,101.584,48.901z"/>
	<path fill="#FFFFFF" d="M123.473,43.068c-0.048,0.84-0.097,1.776-0.097,3.192v6.745c0,2.664-0.527,4.296-1.655,5.304   c-1.129,1.057-2.761,1.392-4.225,1.392c-1.392,0-2.928-0.336-3.864-0.96l0.528-1.608c0.768,0.48,1.968,0.912,3.408,0.912   c2.161,0,3.745-1.128,3.745-4.057v-1.296h-0.048c-0.648,1.08-1.896,1.944-3.697,1.944c-2.88,0-4.944-2.448-4.944-5.665   c0-3.936,2.568-6.168,5.232-6.168c2.016,0,3.121,1.056,3.624,2.016h0.048l0.096-1.752H123.473z M121.289,47.653   c0-0.36-0.023-0.673-0.12-0.961c-0.384-1.224-1.416-2.231-2.952-2.231c-2.016,0-3.456,1.704-3.456,4.393   c0,2.279,1.152,4.176,3.432,4.176c1.296,0,2.472-0.816,2.928-2.16c0.12-0.36,0.168-0.768,0.168-1.128V47.653z"/>
	<path fill="#FFFFFF" d="M126.736,46.692c0-1.367-0.023-2.544-0.096-3.624h1.848l0.072,2.28h0.096   c0.528-1.56,1.801-2.544,3.217-2.544c0.24,0,0.408,0.023,0.6,0.072v1.992c-0.216-0.049-0.432-0.072-0.72-0.072   c-1.488,0-2.544,1.128-2.832,2.712c-0.048,0.288-0.096,0.624-0.096,0.984v6.192h-2.089V46.692z"/>
	<path fill="#FFFFFF" d="M140.896,54.685l-0.168-1.464h-0.072c-0.647,0.912-1.895,1.728-3.552,1.728   c-2.353,0-3.553-1.656-3.553-3.336c0-2.809,2.496-4.345,6.984-4.32v-0.24c0-0.96-0.264-2.688-2.64-2.688   c-1.08,0-2.208,0.337-3.024,0.864l-0.48-1.392c0.961-0.624,2.353-1.032,3.816-1.032c3.553,0,4.417,2.424,4.417,4.752v4.345   c0,1.008,0.048,1.992,0.191,2.784H140.896z M140.585,48.756c-2.305-0.048-4.921,0.36-4.921,2.616c0,1.368,0.912,2.017,1.992,2.017   c1.513,0,2.473-0.96,2.809-1.944c0.071-0.216,0.12-0.456,0.12-0.672V48.756z"/>
	<path fill="#FFFFFF" d="M146.031,46.212c0-1.2-0.023-2.185-0.096-3.145h1.848l0.097,1.872h0.071   c0.648-1.104,1.729-2.136,3.648-2.136c1.584,0,2.784,0.96,3.289,2.328h0.048c0.359-0.648,0.816-1.152,1.296-1.513   c0.696-0.527,1.464-0.815,2.568-0.815c1.536,0,3.816,1.008,3.816,5.04v6.841h-2.064v-6.576c0-2.232-0.816-3.577-2.521-3.577   c-1.2,0-2.136,0.889-2.496,1.921c-0.096,0.288-0.168,0.672-0.168,1.056v7.177h-2.064v-6.961c0-1.848-0.815-3.192-2.424-3.192   c-1.32,0-2.28,1.057-2.616,2.112c-0.12,0.313-0.168,0.673-0.168,1.032v7.009h-2.064V46.212z"/>
	<path fill="#FFFFFF" d="M166.046,46.212c0-1.2-0.023-2.185-0.096-3.145h1.848l0.097,1.872h0.071   c0.648-1.104,1.729-2.136,3.648-2.136c1.584,0,2.784,0.96,3.289,2.328h0.048c0.359-0.648,0.815-1.152,1.296-1.513   c0.696-0.527,1.464-0.815,2.568-0.815c1.536,0,3.816,1.008,3.816,5.04v6.841h-2.064v-6.576c0-2.232-0.816-3.577-2.521-3.577   c-1.2,0-2.136,0.889-2.496,1.921c-0.096,0.288-0.168,0.672-0.168,1.056v7.177h-2.064v-6.961c0-1.848-0.815-3.192-2.424-3.192   c-1.32,0-2.28,1.057-2.616,2.112c-0.12,0.313-0.168,0.673-0.168,1.032v7.009h-2.064V46.212z"/>
	<path fill="#FFFFFF" d="M187.239,49.26c0.048,2.856,1.872,4.032,3.984,4.032c1.512,0,2.424-0.264,3.216-0.6l0.36,1.512   c-0.744,0.337-2.017,0.721-3.864,0.721c-3.577,0-5.713-2.353-5.713-5.856c0-3.505,2.064-6.265,5.448-6.265   c3.793,0,4.801,3.336,4.801,5.473c0,0.432-0.048,0.768-0.072,0.983H187.239z M193.431,47.749c0.023-1.344-0.553-3.433-2.929-3.433   c-2.136,0-3.072,1.969-3.24,3.433H193.431z"/>
</g>
</svg>