<!-- Generator: Adobe Illustrator 19.2.1, SVG Export Plug-In . SVG Version: 6.00 Build 0)  -->
<svg xmlns="http://www.w3.org/2000/svg" xmlns:xlink="http://www.w3.org/1999/xlink" version="1.1" id="Layer_1" x="0px" y="0px" width="240.977px" height="72.283px" viewBox="0 0 240.977 72.283" enable-background="new 0 0 240.977 72.283" xml:space="preserve">
<g>
	<path fill="#FFFFFF" d="M240.787,6.635l0.19-3.013H51.924C47.16,1.304,41.814,0,36.169,0C16.243,0,0.032,16.213,0.032,36.142   c0,19.928,16.21,36.141,36.137,36.141c5.646,0,10.992-1.304,15.756-3.622h177.719l-0.198-3.021   c-0.023-0.363-0.619-8.668-5.624-20.094c0.093-0.113,0.185-0.228,0.274-0.341C239.419,25.838,240.738,7.409,240.787,6.635z"/>
	<g>
		<g>
			<linearGradient id="SVGID_1_" gradientUnits="userSpaceOnUse" x1="210.2627" y1="6.457" x2="210.2627" y2="65.735">
				<stop offset="0" style="stop-color:#74D1F6"/>
				<stop offset="0.133" style="stop-color:#66CDEE"/>
				<stop offset="0.3755" style="stop-color:#30C2DF"/>
				<stop offset="0.6503" style="stop-color:#00B5CC"/>
				<stop offset="0.7487" style="stop-color:#00B3CB"/>
				<stop offset="0.8082" style="stop-color:#00AECA"/>
				<stop offset="0.8575" style="stop-color:#00A8C9"/>
				<stop offset="0.9011" style="stop-color:#009EC7"/>
				<stop offset="0.9409" style="stop-color:#0091C3"/>
				<stop offset="0.9776" style="stop-color:#0081BE"/>
				<stop offset="1" style="stop-color:#1C75BC"/>
			</linearGradient>
			<path fill="url(#SVGID_1_)" d="M182.992,6.457c0,0,12.561,4.047,27.087,22.413c4.448,5.622,7.665,11.177,10.002,16.215     c0.439-0.532,0.929-1.08,1.369-1.638c14.947-18.895,16.083-36.99,16.083-36.99H182.992z"/>
			<path fill="#96D1F2" d="M194.299,65.826h31.895c0,0-0.578-8.81-6.112-20.741C206.082,62.104,194.299,65.826,194.299,65.826z"/>
			<linearGradient id="SVGID_2_" gradientUnits="userSpaceOnUse" x1="135.5652" y1="6.2902" x2="135.5652" y2="65.8256">
				<stop offset="0" style="stop-color:#66C0EC"/>
				<stop offset="0.0598" style="stop-color:#59BEE5"/>
				<stop offset="0.2784" style="stop-color:#00B8D7"/>
				<stop offset="0.4586" style="stop-color:#00B6CF"/>
				<stop offset="0.5767" style="stop-color:#00B5CC"/>
				<stop offset="0.6945" style="stop-color:#00B3CB"/>
				<stop offset="0.7667" style="stop-color:#00AECA"/>
				<stop offset="0.8266" style="stop-color:#00A8C9"/>
				<stop offset="0.8797" style="stop-color:#009EC7"/>
				<stop offset="0.9284" style="stop-color:#0091C3"/>
				<stop offset="0.9733" style="stop-color:#0081BE"/>
				<stop offset="1" style="stop-color:#1C75BC"/>
			</linearGradient>
			<path fill="url(#SVGID_2_)" d="M51.049,65.826h143.29c0,0,11.765-3.748,25.742-20.741c-2.341-5.046-5.564-10.608-10.02-16.24     c-14.55-18.398-27.068-22.388-27.068-22.388H51.049"/>
		</g>
		<g>
			<path fill="#FFFFFF" d="M36.142,0C16.213,0,0,16.213,0,36.142C0,56.07,16.213,72.283,36.142,72.283     c19.928,0,36.141-16.213,36.141-36.141C72.283,16.213,56.07,0,36.142,0z"/>
			<g>
				<linearGradient id="SVGID_3_" gradientUnits="userSpaceOnUse" x1="16.9988" y1="9.1609" x2="54.8482" y2="63.2154">
					<stop offset="0.309" style="stop-color:#13B5EA"/>
					<stop offset="0.4731" style="stop-color:#008FC9"/>
					<stop offset="0.7645" style="stop-color:#005C9C"/>
					<stop offset="0.8989" style="stop-color:#004B8D"/>
				</linearGradient>
				<path fill="url(#SVGID_3_)" d="M68.945,36.132c0,18.26-14.804,33.061-33.064,33.061c-15.523,0-28.537-10.702-32.097-25.12      c6.472-0.073,12.607-1.52,18.151-4.049V27.158c0-1.021-0.359-1.767-1.064-2.239c-0.709-0.466-1.962-0.704-3.773-0.704v-1.19      c2.396-0.084,4.593-0.223,6.589-0.421c1.998-0.199,3.716-0.501,5.167-0.908v14.4c0.007-0.011,0.026-0.017,0.036-0.025v4.312      c0,1.061,0,2.22,0,3.474c0,1.22-0.024,2.414-0.065,3.591c-0.037,1.18-0.099,2.281-0.176,3.295      c-0.08,1.021-0.175,1.88-0.292,2.592c1.961,1.134,4.138,2.076,6.539,2.825c2.395,0.747,4.634,1.115,6.717,1.115      c1.766,0,3.474-0.265,5.126-0.793c1.653-0.523,3.114-1.311,4.393-2.329c1.275-1.019,2.305-2.277,3.091-3.773      c0.788-1.493,1.175-3.187,1.175-5.067c0-1.731-0.296-3.318-0.883-4.776c-0.586-1.455-1.415-2.713-2.478-3.77      c-1.064-1.064-2.319-1.896-3.777-2.511c-1.45-0.604-3.045-0.918-4.777-0.918c-1.301,0-2.624,0.235-3.98,0.686      c-1.36,0.458-2.588,1.026-3.692,1.694V30.15c5.955-6.215,10.147-14.141,11.76-22.968c-7.37-3.128-15.906-3.535-23.983-0.472      C14.611,10.116,8.048,17.107,4.903,25.432c3.03-8.958,9.891-16.548,19.423-20.172c7.968-3.019,16.29-2.782,23.551,0.057      c0.005-0.008-0.003,0.014,0,0C60.204,10.123,68.945,22.102,68.945,36.132z M36.821,53.063c0.9,1.554,2.433,2.321,4.585,2.321      c2.166,0,3.691-0.768,4.6-2.321c0.899-1.552,1.353-3.997,1.353-7.336c0-3.333-0.453-5.782-1.353-7.329      c-0.909-1.552-2.434-2.324-4.6-2.324c-2.153,0-3.686,0.772-4.585,2.324c-0.908,1.547-1.356,3.996-1.356,7.329      C35.465,49.066,35.914,51.511,36.821,53.063z M28.203,17.977c0.915-0.892,1.375-2.012,1.375-3.355      c0-1.343-0.46-2.46-1.375-3.357c-0.919-0.894-2.021-1.345-3.326-1.345c-1.307,0-2.411,0.45-3.328,1.345      c-0.921,0.897-1.372,2.014-1.372,3.357c0,1.344,0.451,2.464,1.372,3.355c0.917,0.9,2.021,1.347,3.328,1.347      C26.182,19.324,27.284,18.877,28.203,17.977z"/>
			</g>
		</g>
	</g>
</g>
<g>
	<path fill="#FFFFFF" d="M80.283,12.929c1.008-0.168,2.328-0.312,4.008-0.312c2.064,0,3.577,0.479,4.537,1.344   c0.888,0.768,1.416,1.943,1.416,3.385c0,1.464-0.433,2.615-1.248,3.456c-1.105,1.176-2.904,1.775-4.944,1.775   c-0.624,0-1.2-0.023-1.681-0.144v6.48h-2.088V12.929z M82.371,20.73c0.456,0.12,1.032,0.168,1.728,0.168   c2.521,0,4.057-1.225,4.057-3.456c0-2.137-1.513-3.168-3.816-3.168c-0.912,0-1.608,0.071-1.969,0.168V20.73z"/>
	<path fill="#FFFFFF" d="M92.594,20.921c0-1.367-0.023-2.544-0.096-3.624h1.848l0.072,2.28h0.096   c0.528-1.56,1.801-2.544,3.217-2.544c0.24,0,0.408,0.023,0.6,0.072v1.992c-0.216-0.049-0.432-0.072-0.72-0.072   c-1.488,0-2.544,1.128-2.832,2.712c-0.048,0.288-0.097,0.624-0.097,0.984v6.192h-2.088V20.921z"/>
	<path fill="#FFFFFF" d="M110.715,23.01c0,4.296-2.976,6.168-5.784,6.168c-3.145,0-5.568-2.304-5.568-5.977   c0-3.888,2.544-6.168,5.761-6.168C108.459,17.034,110.715,19.458,110.715,23.01z M101.499,23.13c0,2.544,1.465,4.464,3.528,4.464   c2.017,0,3.528-1.896,3.528-4.512c0-1.969-0.983-4.465-3.479-4.465C102.579,18.618,101.499,20.921,101.499,23.13z"/>
	<path fill="#FFFFFF" d="M123.387,17.297c-0.047,0.84-0.096,1.776-0.096,3.192v6.745c0,2.664-0.527,4.296-1.656,5.304   c-1.128,1.057-2.759,1.392-4.224,1.392c-1.392,0-2.928-0.336-3.864-0.96l0.528-1.608c0.768,0.48,1.968,0.912,3.408,0.912   c2.16,0,3.744-1.128,3.744-4.057v-1.296h-0.048c-0.648,1.08-1.896,1.944-3.696,1.944c-2.88,0-4.944-2.448-4.944-5.665   c0-3.935,2.568-6.168,5.232-6.168c2.017,0,3.12,1.056,3.624,2.016h0.049l0.096-1.752H123.387z M121.204,21.882   c0-0.36-0.024-0.673-0.12-0.961c-0.384-1.224-1.416-2.232-2.952-2.232c-2.017,0-3.457,1.704-3.457,4.393   c0,2.279,1.152,4.176,3.433,4.176c1.296,0,2.473-0.816,2.929-2.16c0.12-0.36,0.168-0.768,0.168-1.128V21.882z"/>
	<path fill="#FFFFFF" d="M126.65,20.921c0-1.367-0.023-2.544-0.096-3.624h1.848l0.072,2.28h0.096   c0.529-1.56,1.801-2.544,3.217-2.544c0.24,0,0.408,0.023,0.6,0.072v1.992c-0.215-0.049-0.432-0.072-0.719-0.072   c-1.488,0-2.545,1.128-2.832,2.712c-0.049,0.288-0.098,0.624-0.098,0.984v6.192h-2.088V20.921z"/>
	<path fill="#FFFFFF" d="M140.811,28.914l-0.168-1.464h-0.072c-0.646,0.912-1.895,1.727-3.551,1.727   c-2.354,0-3.553-1.656-3.553-3.336c0-2.809,2.496-4.345,6.984-4.32v-0.24c0-0.96-0.264-2.688-2.641-2.688   c-1.08,0-2.207,0.336-3.024,0.864l-0.48-1.392c0.961-0.624,2.352-1.032,3.816-1.032c3.553,0,4.416,2.424,4.416,4.752v4.345   c0,1.008,0.049,1.992,0.191,2.784H140.811z M140.5,22.986c-2.305-0.048-4.922,0.36-4.922,2.616c0,1.368,0.912,2.017,1.992,2.017   c1.514,0,2.473-0.96,2.809-1.944c0.072-0.216,0.121-0.456,0.121-0.672V22.986z"/>
	<path fill="#FFFFFF" d="M145.947,20.442c0-1.2-0.023-2.185-0.096-3.145h1.848l0.096,1.872h0.072   c0.648-1.103,1.729-2.136,3.648-2.136c1.584,0,2.783,0.96,3.289,2.328h0.047c0.359-0.648,0.816-1.152,1.297-1.513   c0.695-0.527,1.463-0.815,2.568-0.815c1.535,0,3.816,1.008,3.816,5.04v6.841h-2.064v-6.576c0-2.233-0.816-3.577-2.521-3.577   c-1.199,0-2.135,0.889-2.496,1.921c-0.096,0.288-0.168,0.672-0.168,1.056v7.177h-2.064v-6.961c0-1.848-0.814-3.192-2.424-3.192   c-1.32,0-2.279,1.057-2.615,2.112c-0.121,0.313-0.168,0.673-0.168,1.032v7.009h-2.064V20.442z"/>
	<path fill="#FFFFFF" d="M172.395,28.914l-0.168-1.464h-0.072c-0.647,0.912-1.896,1.727-3.552,1.727   c-2.353,0-3.552-1.656-3.552-3.336c0-2.809,2.495-4.345,6.983-4.32v-0.24c0-0.96-0.264-2.688-2.64-2.688   c-1.08,0-2.208,0.336-3.025,0.864l-0.48-1.392c0.961-0.624,2.353-1.032,3.816-1.032c3.553,0,4.417,2.424,4.417,4.752v4.345   c0,1.008,0.048,1.992,0.191,2.784H172.395z M172.083,22.986c-2.305-0.048-4.921,0.36-4.921,2.616c0,1.368,0.912,2.017,1.992,2.017   c1.513,0,2.473-0.96,2.809-1.944c0.071-0.216,0.12-0.456,0.12-0.672V22.986z"/>
	<path fill="#FFFFFF" d="M90.244,37.874v14.041c0,1.032,0.023,2.208,0.096,3h-1.896l-0.097-2.017h-0.048   c-0.648,1.297-2.064,2.28-3.96,2.28c-2.809,0-4.969-2.376-4.969-5.904c-0.024-3.864,2.376-6.24,5.208-6.24   c1.776,0,2.977,0.84,3.505,1.776h0.048v-6.937H90.244z M88.131,48.026c0-0.264-0.024-0.624-0.096-0.888   c-0.313-1.345-1.465-2.448-3.049-2.448c-2.184,0-3.48,1.92-3.48,4.488c0,2.352,1.152,4.296,3.433,4.296   c1.416,0,2.712-0.935,3.097-2.519c0.071-0.288,0.096-0.576,0.096-0.912V48.026z"/>
	<path fill="#FFFFFF" d="M94.923,49.49c0.048,2.856,1.872,4.032,3.983,4.032c1.513,0,2.425-0.264,3.217-0.6l0.36,1.512   c-0.744,0.337-2.017,0.721-3.864,0.721c-3.577,0-5.713-2.353-5.713-5.856c0-3.505,2.064-6.265,5.448-6.265   c3.793,0,4.801,3.336,4.801,5.473c0,0.432-0.048,0.768-0.072,0.983H94.923z M101.116,47.978c0.023-1.344-0.553-3.433-2.929-3.433   c-2.136,0-3.072,1.969-3.24,3.433H101.116z"/>
	<path fill="#FFFFFF" d="M105.77,37.874h2.112v17.041h-2.112V37.874z"/>
	<path fill="#FFFFFF" d="M116.594,38.954c1.272-0.192,2.784-0.337,4.44-0.337c3,0,5.137,0.696,6.553,2.017   c1.439,1.32,2.279,3.192,2.279,5.809c0,2.641-0.816,4.801-2.328,6.288c-1.512,1.513-4.008,2.328-7.153,2.328   c-1.488,0-2.736-0.071-3.792-0.191V38.954z M118.682,53.258c0.528,0.096,1.296,0.12,2.112,0.12c4.465,0,6.889-2.496,6.889-6.864   c0.023-3.816-2.137-6.241-6.553-6.241c-1.08,0-1.896,0.097-2.448,0.217V53.258z"/>
	<path fill="#FFFFFF" d="M134.857,40.034c0.023,0.72-0.504,1.296-1.344,1.296c-0.744,0-1.271-0.576-1.271-1.296   c0-0.744,0.551-1.32,1.32-1.32C134.354,38.713,134.857,39.29,134.857,40.034z M132.506,54.915V43.297h2.111v11.617H132.506z"/>
	<path fill="#FFFFFF" d="M138.121,47.09c0-1.488-0.047-2.689-0.096-3.793h1.896l0.096,1.992h0.049   c0.863-1.416,2.232-2.256,4.127-2.256c2.809,0,4.922,2.376,4.922,5.904c0,4.177-2.545,6.24-5.281,6.24   c-1.535,0-2.881-0.672-3.576-1.824h-0.049v6.313h-2.088V47.09z M140.209,50.186c0,0.313,0.049,0.601,0.098,0.864   c0.383,1.464,1.656,2.472,3.168,2.472c2.232,0,3.527-1.823,3.527-4.488c0-2.328-1.223-4.32-3.455-4.32   c-1.441,0-2.785,1.032-3.193,2.616c-0.072,0.265-0.145,0.576-0.145,0.864V50.186z"/>
	<path fill="#FFFFFF" d="M151.777,37.874h2.111v17.041h-2.111V37.874z"/>
	<path fill="#FFFFFF" d="M167.953,49.01c0,4.296-2.975,6.168-5.783,6.168c-3.145,0-5.568-2.304-5.568-5.977   c0-3.888,2.543-6.168,5.76-6.168C165.697,43.034,167.953,45.458,167.953,49.01z M158.736,49.13c0,2.544,1.465,4.464,3.529,4.464   c2.016,0,3.527-1.896,3.527-4.512c0-1.969-0.982-4.465-3.479-4.465C159.816,44.618,158.736,46.921,158.736,49.13z"/>
	<path fill="#FFFFFF" d="M170.616,46.442c0-1.2-0.023-2.185-0.096-3.145h1.848l0.097,1.872h0.071   c0.648-1.104,1.729-2.136,3.648-2.136c1.584,0,2.784,0.96,3.289,2.328h0.048c0.359-0.648,0.815-1.152,1.296-1.513   c0.696-0.527,1.464-0.815,2.568-0.815c1.536,0,3.816,1.008,3.816,5.04v6.841h-2.064v-6.576c0-2.233-0.816-3.577-2.52-3.577   c-1.2,0-2.136,0.889-2.496,1.921c-0.096,0.288-0.168,0.672-0.168,1.056v7.177h-2.064v-6.961c0-1.848-0.815-3.192-2.424-3.192   c-1.32,0-2.28,1.057-2.616,2.112c-0.12,0.313-0.168,0.673-0.168,1.032v7.009h-2.064V46.442z"/>
	<path fill="#FFFFFF" d="M197.064,54.915l-0.168-1.464h-0.072c-0.647,0.912-1.895,1.728-3.552,1.728   c-2.353,0-3.553-1.656-3.553-3.336c0-2.809,2.496-4.345,6.984-4.32v-0.24c0-0.96-0.264-2.688-2.64-2.688   c-1.08,0-2.208,0.336-3.024,0.864l-0.48-1.392c0.961-0.624,2.352-1.032,3.816-1.032c3.553,0,4.417,2.424,4.417,4.752v4.345   c0,1.008,0.048,1.992,0.191,2.784H197.064z M196.753,48.986c-2.305-0.048-4.921,0.36-4.921,2.616c0,1.368,0.912,2.017,1.992,2.017   c1.513,0,2.473-0.96,2.809-1.944c0.071-0.216,0.12-0.456,0.12-0.672V48.986z"/>
</g>
</svg>