<!-- Generator: Adobe Illustrator 19.2.1, SVG Export Plug-In . SVG Version: 6.00 Build 0)  -->
<svg xmlns="http://www.w3.org/2000/svg" xmlns:xlink="http://www.w3.org/1999/xlink" version="1.1" id="Layer_1" x="0px" y="0px" width="240.977px" height="72.282px" viewBox="0 0 240.977 72.282" enable-background="new 0 0 240.977 72.282" xml:space="preserve">
<g>
	<path fill="#FFFFFF" d="M240.788,6.635l0.189-3.013H51.924C47.16,1.304,41.814,0,36.169,0C16.243,0,0.032,16.213,0.032,36.142   c0,19.928,16.21,36.141,36.137,36.141c5.646,0,10.992-1.304,15.756-3.622h177.72l-0.198-3.021   c-0.023-0.363-0.619-8.668-5.624-20.094c0.093-0.113,0.184-0.228,0.274-0.341C239.419,25.838,240.739,7.409,240.788,6.635z"/>
	<g>
		<g>
			<linearGradient id="SVGID_1_" gradientUnits="userSpaceOnUse" x1="210.2632" y1="6.457" x2="210.2632" y2="65.7342">
				<stop offset="0" style="stop-color:#74D1F6"/>
				<stop offset="0.133" style="stop-color:#66CDEE"/>
				<stop offset="0.3755" style="stop-color:#30C2DF"/>
				<stop offset="0.6503" style="stop-color:#00B5CC"/>
				<stop offset="0.7487" style="stop-color:#00B3CB"/>
				<stop offset="0.8082" style="stop-color:#00AECA"/>
				<stop offset="0.8575" style="stop-color:#00A8C9"/>
				<stop offset="0.9011" style="stop-color:#009EC7"/>
				<stop offset="0.9409" style="stop-color:#0091C3"/>
				<stop offset="0.9776" style="stop-color:#0081BE"/>
				<stop offset="1" style="stop-color:#1C75BC"/>
			</linearGradient>
			<path fill="url(#SVGID_1_)" d="M182.993,6.457c0,0,12.562,4.047,27.087,22.412c4.448,5.622,7.665,11.177,10.002,16.215     c0.438-0.532,0.929-1.08,1.369-1.638c14.947-18.895,16.083-36.989,16.083-36.989H182.993z"/>
			<path fill="#96D1F2" d="M194.299,65.825h31.895c0,0-0.578-8.81-6.112-20.741C206.082,62.104,194.299,65.825,194.299,65.825z"/>
			<linearGradient id="SVGID_2_" gradientUnits="userSpaceOnUse" x1="135.5654" y1="6.2902" x2="135.5654" y2="65.8251">
				<stop offset="0" style="stop-color:#66C0EC"/>
				<stop offset="0.0598" style="stop-color:#59BEE5"/>
				<stop offset="0.2784" style="stop-color:#00B8D7"/>
				<stop offset="0.4586" style="stop-color:#00B6CF"/>
				<stop offset="0.5767" style="stop-color:#00B5CC"/>
				<stop offset="0.6945" style="stop-color:#00B3CB"/>
				<stop offset="0.7667" style="stop-color:#00AECA"/>
				<stop offset="0.8266" style="stop-color:#00A8C9"/>
				<stop offset="0.8797" style="stop-color:#009EC7"/>
				<stop offset="0.9284" style="stop-color:#0091C3"/>
				<stop offset="0.9733" style="stop-color:#0081BE"/>
				<stop offset="1" style="stop-color:#1C75BC"/>
			</linearGradient>
			<path fill="url(#SVGID_2_)" d="M51.049,65.825h143.29c0,0,11.765-3.748,25.742-20.741c-2.341-5.046-5.564-10.608-10.021-16.24     c-14.55-18.398-27.068-22.388-27.068-22.388H51.049"/>
		</g>
		<g>
			<path fill="#FFFFFF" d="M36.142,0C16.213,0,0,16.213,0,36.142c0,19.928,16.213,36.141,36.142,36.141     c19.928,0,36.141-16.213,36.141-36.141C72.283,16.213,56.07,0,36.142,0z"/>
			<g>
				<linearGradient id="SVGID_3_" gradientUnits="userSpaceOnUse" x1="16.9989" y1="9.1605" x2="54.8482" y2="63.2149">
					<stop offset="0.309" style="stop-color:#13B5EA"/>
					<stop offset="0.4731" style="stop-color:#008FC9"/>
					<stop offset="0.7645" style="stop-color:#005C9C"/>
					<stop offset="0.8989" style="stop-color:#004B8D"/>
				</linearGradient>
				<path fill="url(#SVGID_3_)" d="M68.945,36.132c0,18.26-14.804,33.06-33.064,33.06c-15.523,0-28.537-10.702-32.097-25.12      c6.472-0.073,12.607-1.52,18.151-4.049V27.157c0-1.021-0.359-1.767-1.064-2.239c-0.708-0.466-1.962-0.704-3.773-0.704v-1.19      c2.396-0.084,4.593-0.223,6.589-0.421c1.998-0.199,3.716-0.501,5.167-0.908v14.4c0.007-0.011,0.026-0.017,0.036-0.025v4.311      c0,1.061,0,2.22,0,3.474c0,1.22-0.024,2.414-0.065,3.591c-0.037,1.18-0.099,2.281-0.176,3.295      c-0.08,1.021-0.175,1.88-0.292,2.592c1.96,1.134,4.138,2.076,6.539,2.825c2.395,0.747,4.634,1.115,6.717,1.115      c1.766,0,3.474-0.265,5.126-0.793c1.653-0.523,3.114-1.311,4.393-2.329c1.275-1.019,2.305-2.277,3.091-3.772      c0.788-1.493,1.175-3.187,1.175-5.067c0-1.731-0.296-3.318-0.883-4.776c-0.586-1.455-1.416-2.713-2.478-3.77      c-1.064-1.064-2.319-1.896-3.777-2.511c-1.45-0.604-3.045-0.918-4.777-0.918c-1.301,0-2.624,0.235-3.981,0.686      c-1.36,0.458-2.588,1.026-3.692,1.694v-5.566c5.955-6.215,10.147-14.141,11.76-22.968c-7.37-3.128-15.906-3.535-23.983-0.472      c-8.977,3.405-15.54,10.396-18.685,18.722c3.03-8.958,9.891-16.548,19.423-20.172c7.968-3.019,16.29-2.782,23.551,0.057      c0.005-0.008-0.004,0.014,0,0C60.204,10.122,68.945,22.101,68.945,36.132z M36.821,53.063c0.9,1.554,2.433,2.321,4.585,2.321      c2.166,0,3.691-0.768,4.6-2.321c0.899-1.552,1.352-3.997,1.352-7.336c0-3.333-0.453-5.782-1.352-7.329      c-0.909-1.552-2.434-2.324-4.6-2.324c-2.153,0-3.686,0.772-4.585,2.324c-0.908,1.547-1.356,3.996-1.356,7.329      C35.465,49.065,35.914,51.511,36.821,53.063z M28.203,17.976c0.915-0.892,1.375-2.012,1.375-3.355      c0-1.343-0.46-2.46-1.375-3.357c-0.919-0.894-2.021-1.345-3.326-1.345c-1.307,0-2.411,0.45-3.328,1.345      c-0.921,0.897-1.372,2.014-1.372,3.357c0,1.344,0.451,2.464,1.372,3.355c0.917,0.9,2.021,1.347,3.328,1.347      C26.182,19.323,27.284,18.877,28.203,17.976z"/>
			</g>
		</g>
	</g>
</g>
<path fill="#FFFFFF" d="M25.75,43.058"/>
<g>
	<path fill="#FFFFFF" d="M79.37,14.692c1.273-0.192,2.784-0.336,4.441-0.336c3,0,5.137,0.695,6.553,2.016   c1.439,1.32,2.28,3.192,2.28,5.809c0,2.641-0.816,4.801-2.328,6.288c-1.513,1.513-4.009,2.328-7.153,2.328   c-1.488,0-2.736-0.071-3.792-0.191V14.692z M81.458,28.997c0.528,0.096,1.296,0.12,2.112,0.12c4.465,0,6.889-2.496,6.889-6.864   c0.024-3.816-2.136-6.24-6.553-6.24c-1.08,0-1.896,0.096-2.448,0.216V28.997z"/>
	<path fill="#FFFFFF" d="M97.634,15.772c0.023,0.72-0.504,1.296-1.345,1.296c-0.743,0-1.271-0.576-1.271-1.296   c0-0.744,0.552-1.32,1.32-1.32C97.13,14.452,97.634,15.028,97.634,15.772z M95.281,30.653V19.036h2.112v11.617H95.281z"/>
	<path fill="#FFFFFF" d="M100.897,22.829c0-1.488-0.048-2.688-0.096-3.793h1.896l0.096,1.992h0.048   c0.864-1.416,2.232-2.256,4.128-2.256c2.809,0,4.921,2.376,4.921,5.904c0,4.177-2.544,6.24-5.28,6.24   c-1.536,0-2.881-0.672-3.576-1.824h-0.048v6.313h-2.089V22.829z M102.986,25.925c0,0.313,0.048,0.601,0.096,0.864   c0.384,1.464,1.656,2.472,3.168,2.472c2.232,0,3.528-1.823,3.528-4.488c0-2.328-1.224-4.32-3.456-4.32   c-1.44,0-2.784,1.032-3.192,2.616c-0.072,0.265-0.144,0.576-0.144,0.864V25.925z"/>
	<path fill="#FFFFFF" d="M114.553,13.612h2.112v17.041h-2.112V13.612z"/>
	<path fill="#FFFFFF" d="M130.73,24.749c0,4.296-2.977,6.168-5.785,6.168c-3.144,0-5.568-2.304-5.568-5.977   c0-3.888,2.544-6.168,5.761-6.168C128.474,18.772,130.73,21.196,130.73,24.749z M121.513,24.869c0,2.544,1.465,4.464,3.527,4.464   c2.018,0,3.529-1.896,3.529-4.512c0-1.969-0.984-4.465-3.48-4.465C122.593,20.356,121.513,22.66,121.513,24.869z"/>
	<path fill="#FFFFFF" d="M133.392,22.181c0-1.2-0.023-2.184-0.096-3.144h1.848l0.098,1.872h0.07c0.648-1.103,1.73-2.136,3.649-2.136   c1.584,0,2.784,0.96,3.289,2.328h0.048c0.359-0.648,0.815-1.152,1.296-1.513c0.696-0.527,1.464-0.816,2.568-0.816   c1.536,0,3.816,1.008,3.816,5.04v6.841h-2.064v-6.576c0-2.232-0.816-3.577-2.521-3.577c-1.2,0-2.136,0.889-2.496,1.921   c-0.096,0.288-0.168,0.672-0.168,1.056v7.177h-2.064v-6.961c0-1.848-0.815-3.192-2.424-3.192c-1.32,0-2.281,1.057-2.617,2.112   c-0.119,0.313-0.168,0.673-0.168,1.032v7.009h-2.065V22.181z"/>
	<path fill="#FFFFFF" d="M159.841,30.653l-0.168-1.464h-0.072c-0.647,0.912-1.895,1.728-3.552,1.728   c-2.353,0-3.553-1.656-3.553-3.336c0-2.809,2.496-4.345,6.984-4.32v-0.24c0-0.96-0.264-2.688-2.64-2.688   c-1.08,0-2.208,0.336-3.024,0.864l-0.48-1.392c0.961-0.624,2.353-1.032,3.816-1.032c3.553,0,4.417,2.424,4.417,4.752v4.345   c0,1.008,0.048,1.992,0.191,2.784H159.841z M159.53,24.725c-2.305-0.048-4.921,0.36-4.921,2.616c0,1.368,0.912,2.017,1.992,2.017   c1.513,0,2.473-0.96,2.809-1.944c0.071-0.216,0.12-0.456,0.12-0.672V24.725z"/>
	<path fill="#FFFFFF" d="M79.37,37.668c1.008-0.168,2.328-0.313,4.008-0.313c2.065,0,3.577,0.48,4.537,1.345   c0.888,0.768,1.416,1.944,1.416,3.384c0,1.465-0.433,2.616-1.248,3.457c-1.104,1.176-2.904,1.775-4.944,1.775   c-0.624,0-1.2-0.023-1.681-0.144v6.481H79.37V37.668z M81.458,45.469c0.456,0.12,1.032,0.168,1.729,0.168   c2.521,0,4.057-1.225,4.057-3.456c0-2.137-1.513-3.169-3.816-3.169c-0.912,0-1.608,0.072-1.969,0.168V45.469z"/>
	<path fill="#FFFFFF" d="M91.682,45.66c0-1.367-0.023-2.544-0.096-3.624h1.848l0.072,2.28h0.096c0.528-1.56,1.801-2.544,3.217-2.544   c0.24,0,0.408,0.023,0.6,0.072v1.992c-0.216-0.049-0.432-0.072-0.72-0.072c-1.488,0-2.544,1.128-2.832,2.712   c-0.048,0.288-0.097,0.624-0.097,0.984v6.192h-2.088V45.66z"/>
	<path fill="#FFFFFF" d="M109.803,47.749c0,4.296-2.976,6.168-5.784,6.168c-3.145,0-5.568-2.304-5.568-5.977   c0-3.888,2.544-6.168,5.761-6.168C107.547,41.772,109.803,44.196,109.803,47.749z M100.586,47.869c0,2.544,1.465,4.464,3.528,4.464   c2.017,0,3.528-1.896,3.528-4.512c0-1.969-0.983-4.465-3.48-4.465C101.666,43.356,100.586,45.66,100.586,47.869z"/>
	<path fill="#FFFFFF" d="M122.474,42.036c-0.047,0.84-0.096,1.776-0.096,3.192v6.745c0,2.664-0.527,4.296-1.656,5.304   c-1.128,1.057-2.76,1.393-4.225,1.393c-1.392,0-2.928-0.336-3.864-0.96l0.528-1.608c0.768,0.48,1.968,0.912,3.408,0.912   c2.16,0,3.744-1.128,3.744-4.057v-1.296h-0.048c-0.648,1.08-1.896,1.944-3.696,1.944c-2.88,0-4.944-2.448-4.944-5.665   c0-3.936,2.568-6.168,5.232-6.168c2.017,0,3.12,1.056,3.624,2.016h0.048l0.097-1.752H122.474z M120.291,46.621   c0-0.36-0.024-0.673-0.12-0.961c-0.384-1.224-1.416-2.231-2.952-2.231c-2.017,0-3.457,1.704-3.457,4.393   c0,2.279,1.152,4.176,3.433,4.176c1.296,0,2.473-0.816,2.929-2.16c0.12-0.36,0.168-0.768,0.168-1.128V46.621z"/>
	<path fill="#FFFFFF" d="M125.738,45.66c0-1.367-0.023-2.544-0.096-3.624h1.848l0.072,2.28h0.096   c0.529-1.56,1.801-2.544,3.217-2.544c0.24,0,0.408,0.023,0.6,0.072v1.992c-0.215-0.049-0.432-0.072-0.719-0.072   c-1.488,0-2.545,1.128-2.832,2.712c-0.049,0.288-0.098,0.624-0.098,0.984v6.192h-2.088V45.66z"/>
	<path fill="#FFFFFF" d="M139.899,53.653l-0.168-1.464h-0.072c-0.647,0.912-1.895,1.728-3.552,1.728   c-2.354,0-3.553-1.656-3.553-3.336c0-2.809,2.496-4.345,6.984-4.32v-0.24c0-0.96-0.264-2.688-2.641-2.688   c-1.08,0-2.207,0.336-3.023,0.864l-0.48-1.392c0.961-0.624,2.351-1.032,3.816-1.032c3.553,0,4.417,2.424,4.417,4.752v4.345   c0,1.008,0.048,1.992,0.191,2.784H139.899z M139.587,47.725c-2.305-0.048-4.922,0.36-4.922,2.616c0,1.368,0.912,2.017,1.992,2.017   c1.514,0,2.474-0.96,2.81-1.944c0.071-0.216,0.12-0.456,0.12-0.672V47.725z"/>
	<path fill="#FFFFFF" d="M145.035,45.181c0-1.2-0.023-2.184-0.096-3.145h1.848l0.097,1.872h0.071   c0.648-1.104,1.729-2.136,3.648-2.136c1.584,0,2.784,0.96,3.289,2.328h0.048c0.359-0.649,0.815-1.152,1.296-1.513   c0.696-0.527,1.464-0.815,2.568-0.815c1.536,0,3.816,1.008,3.816,5.04v6.841h-2.064v-6.576c0-2.232-0.816-3.577-2.521-3.577   c-1.2,0-2.136,0.889-2.496,1.921c-0.096,0.288-0.168,0.672-0.168,1.056v7.177h-2.064v-6.961c0-1.848-0.815-3.192-2.424-3.192   c-1.32,0-2.28,1.057-2.616,2.112c-0.12,0.313-0.168,0.673-0.168,1.032v7.009h-2.064V45.181z"/>
	<path fill="#FFFFFF" d="M165.05,45.181c0-1.2-0.023-2.184-0.096-3.145h1.848l0.097,1.872h0.071   c0.648-1.104,1.729-2.136,3.648-2.136c1.584,0,2.784,0.96,3.289,2.328h0.048c0.359-0.649,0.815-1.152,1.296-1.513   c0.696-0.527,1.464-0.815,2.568-0.815c1.536,0,3.816,1.008,3.816,5.04v6.841h-2.064v-6.576c0-2.232-0.816-3.577-2.52-3.577   c-1.2,0-2.136,0.889-2.496,1.921c-0.096,0.288-0.168,0.672-0.168,1.056v7.177h-2.064v-6.961c0-1.848-0.816-3.192-2.424-3.192   c-1.32,0-2.28,1.057-2.616,2.112c-0.12,0.313-0.168,0.673-0.168,1.032v7.009h-2.064V45.181z"/>
	<path fill="#FFFFFF" d="M186.243,48.229c0.048,2.856,1.872,4.032,3.984,4.032c1.512,0,2.424-0.264,3.216-0.6l0.36,1.512   c-0.744,0.337-2.017,0.721-3.864,0.721c-3.577,0-5.713-2.353-5.713-5.856c0-3.505,2.064-6.265,5.448-6.265   c3.793,0,4.801,3.336,4.801,5.473c0,0.432-0.048,0.768-0.072,0.983H186.243z M192.435,46.717c0.023-1.344-0.553-3.433-2.929-3.433   c-2.136,0-3.072,1.969-3.24,3.433H192.435z"/>
</g>
</svg>