<!-- Generator: Adobe Illustrator 19.2.1, SVG Export Plug-In . SVG Version: 6.00 Build 0)  -->
<svg xmlns="http://www.w3.org/2000/svg" xmlns:xlink="http://www.w3.org/1999/xlink" version="1.1" id="Layer_1" x="0px" y="0px" width="240.977px" height="72.282px" viewBox="0 0 240.977 72.282" enable-background="new 0 0 240.977 72.282" xml:space="preserve">
<g>
	<path fill="#FFFFFF" d="M240.788,6.635l0.189-3.012l-189.053,0C47.16,1.304,41.814,0,36.169,0C16.243,0,0.032,16.213,0.032,36.142   c0,19.928,16.21,36.141,36.137,36.141c5.646,0,10.992-1.304,15.756-3.622h177.72l-0.198-3.021   c-0.023-0.363-0.619-8.668-5.624-20.094c0.093-0.113,0.184-0.228,0.274-0.341C239.419,25.838,240.739,7.41,240.788,6.635z"/>
	<g>
		<g>
			<linearGradient id="SVGID_1_" gradientUnits="userSpaceOnUse" x1="210.2632" y1="6.457" x2="210.2632" y2="65.7342">
				<stop offset="0" style="stop-color:#74D1F6"/>
				<stop offset="0.133" style="stop-color:#66CDEE"/>
				<stop offset="0.3755" style="stop-color:#30C2DF"/>
				<stop offset="0.6503" style="stop-color:#00B5CC"/>
				<stop offset="0.7487" style="stop-color:#00B3CB"/>
				<stop offset="0.8082" style="stop-color:#00AECA"/>
				<stop offset="0.8575" style="stop-color:#00A8C9"/>
				<stop offset="0.9011" style="stop-color:#009EC7"/>
				<stop offset="0.9409" style="stop-color:#0091C3"/>
				<stop offset="0.9776" style="stop-color:#0081BE"/>
				<stop offset="1" style="stop-color:#1C75BC"/>
			</linearGradient>
			<path fill="url(#SVGID_1_)" d="M182.993,6.457c0,0,12.562,4.047,27.087,22.412c4.448,5.622,7.665,11.177,10.002,16.215     c0.438-0.532,0.929-1.08,1.369-1.638c14.947-18.895,16.083-36.989,16.083-36.989H182.993z"/>
			<path fill="#96D1F2" d="M194.299,65.825h31.895c0,0-0.578-8.81-6.112-20.741C206.082,62.104,194.299,65.825,194.299,65.825z"/>
			<linearGradient id="SVGID_2_" gradientUnits="userSpaceOnUse" x1="135.5654" y1="6.2907" x2="135.5654" y2="65.8251">
				<stop offset="0" style="stop-color:#66C0EC"/>
				<stop offset="0.0598" style="stop-color:#59BEE5"/>
				<stop offset="0.2784" style="stop-color:#00B8D7"/>
				<stop offset="0.4586" style="stop-color:#00B6CF"/>
				<stop offset="0.5767" style="stop-color:#00B5CC"/>
				<stop offset="0.6945" style="stop-color:#00B3CB"/>
				<stop offset="0.7667" style="stop-color:#00AECA"/>
				<stop offset="0.8266" style="stop-color:#00A8C9"/>
				<stop offset="0.8797" style="stop-color:#009EC7"/>
				<stop offset="0.9284" style="stop-color:#0091C3"/>
				<stop offset="0.9733" style="stop-color:#0081BE"/>
				<stop offset="1" style="stop-color:#1C75BC"/>
			</linearGradient>
			<path fill="url(#SVGID_2_)" d="M51.049,65.825h143.29c0,0,11.765-3.748,25.742-20.741c-2.341-5.046-5.564-10.608-10.021-16.24     c-14.55-18.398-27.068-22.387-27.068-22.387H51.049"/>
		</g>
		<g>
			<path fill="#FFFFFF" d="M36.142,0C16.213,0,0,16.213,0,36.142c0,19.928,16.213,36.141,36.142,36.141     c19.928,0,36.141-16.213,36.141-36.141C72.283,16.213,56.07,0,36.142,0z"/>
			<g>
				<linearGradient id="SVGID_3_" gradientUnits="userSpaceOnUse" x1="16.9989" y1="9.1605" x2="54.8482" y2="63.2149">
					<stop offset="0.309" style="stop-color:#13B5EA"/>
					<stop offset="0.4731" style="stop-color:#008FC9"/>
					<stop offset="0.7645" style="stop-color:#005C9C"/>
					<stop offset="0.8989" style="stop-color:#004B8D"/>
				</linearGradient>
				<path fill="url(#SVGID_3_)" d="M68.945,36.132c0,18.26-14.804,33.06-33.064,33.06c-15.523,0-28.537-10.702-32.097-25.12      c6.472-0.073,12.607-1.52,18.151-4.049V27.157c0-1.021-0.359-1.767-1.064-2.239c-0.708-0.466-1.962-0.704-3.773-0.704v-1.19      c2.396-0.084,4.593-0.223,6.589-0.421c1.998-0.199,3.716-0.501,5.167-0.908v14.4c0.007-0.011,0.026-0.017,0.036-0.025v4.311      c0,1.061,0,2.22,0,3.474c0,1.22-0.024,2.414-0.065,3.591c-0.037,1.18-0.099,2.281-0.176,3.295      c-0.08,1.021-0.175,1.88-0.292,2.592c1.96,1.134,4.138,2.076,6.539,2.825c2.395,0.747,4.634,1.115,6.717,1.115      c1.766,0,3.474-0.265,5.126-0.793c1.653-0.523,3.114-1.311,4.393-2.329c1.275-1.019,2.305-2.277,3.091-3.772      c0.788-1.493,1.175-3.187,1.175-5.067c0-1.731-0.296-3.318-0.883-4.776c-0.586-1.455-1.416-2.713-2.478-3.77      c-1.064-1.064-2.319-1.896-3.777-2.511c-1.45-0.604-3.045-0.918-4.777-0.918c-1.301,0-2.624,0.235-3.981,0.686      c-1.36,0.458-2.588,1.026-3.692,1.694v-5.566c5.955-6.215,10.147-14.141,11.76-22.968c-7.37-3.128-15.906-3.535-23.983-0.472      c-8.977,3.405-15.54,10.396-18.685,18.722c3.03-8.958,9.891-16.548,19.423-20.172c7.968-3.019,16.29-2.782,23.551,0.057      c0.005-0.008-0.004,0.014,0,0C60.204,10.122,68.945,22.101,68.945,36.132z M36.821,53.063c0.9,1.554,2.433,2.321,4.585,2.321      c2.166,0,3.691-0.768,4.6-2.321c0.899-1.552,1.352-3.997,1.352-7.336c0-3.333-0.453-5.782-1.352-7.329      c-0.909-1.552-2.434-2.324-4.6-2.324c-2.153,0-3.686,0.772-4.585,2.324c-0.908,1.547-1.356,3.996-1.356,7.329      C35.465,49.065,35.914,51.511,36.821,53.063z M28.203,17.976c0.915-0.892,1.375-2.012,1.375-3.355      c0-1.343-0.46-2.46-1.375-3.357c-0.919-0.894-2.021-1.345-3.326-1.345c-1.307,0-2.411,0.45-3.328,1.345      c-0.921,0.897-1.372,2.014-1.372,3.357c0,1.344,0.451,2.464,1.372,3.355c0.917,0.9,2.021,1.347,3.328,1.347      C26.182,19.323,27.284,18.877,28.203,17.976z"/>
			</g>
		</g>
	</g>
</g>
<g>
	<path fill="#FFFFFF" d="M80.283,12.929c1.008-0.168,2.328-0.313,4.008-0.313c2.064,0,3.576,0.48,4.536,1.345   c0.888,0.768,1.416,1.943,1.416,3.384c0,1.464-0.432,2.616-1.248,3.456c-1.104,1.177-2.904,1.776-4.945,1.776   c-0.624,0-1.2-0.023-1.68-0.144v6.48h-2.088V12.929z M82.371,20.729c0.456,0.119,1.032,0.168,1.729,0.168   c2.52,0,4.056-1.225,4.056-3.457c0-2.136-1.512-3.168-3.816-3.168c-0.912,0-1.608,0.072-1.968,0.168V20.729z"/>
	<path fill="#FFFFFF" d="M92.595,20.921c0-1.368-0.023-2.544-0.096-3.624h1.848l0.072,2.28h0.096   c0.528-1.561,1.801-2.544,3.217-2.544c0.24,0,0.408,0.023,0.6,0.071v1.992c-0.216-0.048-0.432-0.071-0.72-0.071   c-1.488,0-2.544,1.128-2.832,2.712c-0.048,0.288-0.097,0.624-0.097,0.984v6.192h-2.088V20.921z"/>
	<path fill="#FFFFFF" d="M110.715,23.01c0,4.296-2.976,6.168-5.784,6.168c-3.145,0-5.568-2.304-5.568-5.977   c0-3.889,2.544-6.168,5.761-6.168C108.459,17.033,110.715,19.457,110.715,23.01z M101.498,23.129c0,2.545,1.465,4.465,3.528,4.465   c2.017,0,3.528-1.896,3.528-4.513c0-1.968-0.983-4.464-3.479-4.464C102.578,18.617,101.498,20.921,101.498,23.129z"/>
	<path fill="#FFFFFF" d="M123.388,17.297c-0.049,0.84-0.096,1.776-0.096,3.192v6.744c0,2.664-0.529,4.297-1.656,5.305   c-1.128,1.056-2.76,1.392-4.225,1.392c-1.392,0-2.928-0.337-3.864-0.961l0.528-1.607c0.768,0.479,1.968,0.912,3.408,0.912   c2.16,0,3.745-1.128,3.745-4.057v-1.296h-0.049c-0.648,1.08-1.896,1.944-3.696,1.944c-2.88,0-4.944-2.448-4.944-5.665   c0-3.936,2.568-6.168,5.232-6.168c2.017,0,3.12,1.056,3.624,2.016h0.047l0.098-1.752H123.388z M121.205,21.881   c0-0.359-0.025-0.672-0.121-0.96c-0.383-1.224-1.415-2.233-2.952-2.233c-2.017,0-3.457,1.705-3.457,4.393   c0,2.28,1.152,4.177,3.433,4.177c1.296,0,2.473-0.816,2.929-2.16c0.119-0.36,0.168-0.769,0.168-1.128V21.881z"/>
	<path fill="#FFFFFF" d="M126.65,20.921c0-1.368-0.023-2.544-0.096-3.624h1.848l0.072,2.28h0.096   c0.529-1.561,1.801-2.544,3.217-2.544c0.24,0,0.408,0.023,0.6,0.071v1.992c-0.215-0.048-0.432-0.071-0.719-0.071   c-1.488,0-2.545,1.128-2.832,2.712c-0.049,0.288-0.096,0.624-0.096,0.984v6.192h-2.09V20.921z"/>
	<path fill="#FFFFFF" d="M140.811,28.914l-0.168-1.465h-0.072c-0.646,0.912-1.896,1.729-3.552,1.729   c-2.352,0-3.553-1.656-3.553-3.336c0-2.809,2.496-4.345,6.985-4.32v-0.24c0-0.96-0.264-2.689-2.641-2.689   c-1.079,0-2.208,0.336-3.024,0.864l-0.48-1.393c0.961-0.624,2.354-1.031,3.816-1.031c3.554,0,4.417,2.424,4.417,4.752v4.345   c0,1.008,0.049,1.992,0.191,2.784H140.811z M140.501,22.985c-2.306-0.048-4.921,0.36-4.921,2.616c0,1.368,0.912,2.017,1.991,2.017   c1.514,0,2.473-0.961,2.809-1.944c0.072-0.217,0.121-0.456,0.121-0.672V22.985z"/>
	<path fill="#FFFFFF" d="M145.946,20.441c0-1.2-0.023-2.185-0.096-3.145h1.848l0.098,1.872h0.07   c0.648-1.104,1.729-2.136,3.648-2.136c1.584,0,2.785,0.96,3.289,2.328h0.049c0.359-0.648,0.814-1.152,1.295-1.513   c0.697-0.527,1.465-0.815,2.568-0.815c1.537,0,3.816,1.008,3.816,5.04v6.841h-2.064v-6.577c0-2.232-0.816-3.576-2.52-3.576   c-1.201,0-2.137,0.889-2.496,1.92c-0.096,0.288-0.168,0.673-0.168,1.057v7.177h-2.064v-6.961c0-1.848-0.816-3.192-2.424-3.192   c-1.32,0-2.281,1.057-2.617,2.112c-0.119,0.313-0.168,0.672-0.168,1.032v7.009h-2.064V20.441z"/>
	<path fill="#FFFFFF" d="M165.961,20.441c0-1.2-0.023-2.185-0.096-3.145h1.848l0.098,1.872h0.07   c0.648-1.104,1.728-2.136,3.648-2.136c1.584,0,2.785,0.96,3.289,2.328h0.049c0.359-0.648,0.814-1.152,1.295-1.513   c0.697-0.527,1.465-0.815,2.568-0.815c1.537,0,3.816,1.008,3.816,5.04v6.841h-2.065v-6.577c0-2.232-0.816-3.576-2.519-3.576   c-1.201,0-2.137,0.889-2.496,1.92c-0.096,0.288-0.168,0.673-0.168,1.057v7.177h-2.064v-6.961c0-1.848-0.816-3.192-2.424-3.192   c-1.32,0-2.281,1.057-2.617,2.112c-0.119,0.313-0.168,0.672-0.168,1.032v7.009h-2.064V20.441z"/>
	<path fill="#FFFFFF" d="M187.155,23.489c0.049,2.856,1.873,4.032,3.984,4.032c1.512,0,2.424-0.264,3.217-0.6l0.359,1.512   c-0.744,0.336-2.016,0.721-3.863,0.721c-3.578,0-5.713-2.353-5.713-5.858c0-3.504,2.064-6.264,5.447-6.264   c3.793,0,4.801,3.336,4.801,5.472c0,0.433-0.047,0.769-0.072,0.984H187.155z M193.348,21.978c0.023-1.345-0.553-3.433-2.93-3.433   c-2.135,0-3.072,1.968-3.24,3.433H193.348z"/>
	<path fill="#FFFFFF" d="M90.243,37.872v14.041c0,1.032,0.024,2.209,0.097,3.001h-1.896l-0.096-2.017h-0.048   c-0.648,1.296-2.064,2.28-3.96,2.28c-2.808,0-4.968-2.376-4.968-5.904c-0.024-3.864,2.376-6.24,5.209-6.24   c1.776,0,2.976,0.84,3.504,1.775h0.048v-6.937H90.243z M88.131,48.025c0-0.265-0.024-0.624-0.096-0.889   c-0.312-1.344-1.464-2.448-3.048-2.448c-2.185,0-3.48,1.921-3.48,4.489c0,2.352,1.152,4.296,3.432,4.296   c1.416,0,2.712-0.935,3.096-2.521c0.072-0.288,0.096-0.576,0.096-0.912V48.025z"/>
	<path fill="#FFFFFF" d="M103.467,51.745c0,1.2,0.024,2.257,0.097,3.169h-1.872l-0.12-1.896h-0.048   c-0.553,0.937-1.776,2.16-3.841,2.16c-1.824,0-4.009-1.008-4.009-5.088v-6.793h2.112v6.433c0,2.208,0.673,3.696,2.593,3.696   c1.416,0,2.4-0.984,2.784-1.92c0.12-0.313,0.191-0.696,0.191-1.08v-7.129h2.112V51.745z"/>
	<path fill="#FFFFFF" d="M122.091,37.872v14.041c0,1.032,0.024,2.209,0.096,3.001h-1.897l-0.096-2.017h-0.048   c-0.648,1.296-2.064,2.28-3.96,2.28c-2.809,0-4.969-2.376-4.969-5.904c-0.024-3.864,2.376-6.24,5.208-6.24   c1.776,0,2.977,0.84,3.505,1.775h0.048v-6.937H122.091z M119.979,48.025c0-0.265-0.024-0.624-0.096-0.889   c-0.313-1.344-1.465-2.448-3.049-2.448c-2.184,0-3.48,1.921-3.48,4.489c0,2.352,1.152,4.296,3.433,4.296   c1.416,0,2.712-0.935,3.097-2.521c0.071-0.288,0.096-0.576,0.096-0.912V48.025z"/>
	<path fill="#FFFFFF" d="M127.947,40.032c0.023,0.721-0.504,1.297-1.346,1.297c-0.742,0-1.271-0.576-1.271-1.297   c0-0.744,0.553-1.319,1.32-1.319C127.443,38.713,127.947,39.288,127.947,40.032z M125.593,54.914V43.297h2.113v11.617H125.593z"/>
	<path fill="#FFFFFF" d="M131.21,47.089c0-1.488-0.049-2.688-0.096-3.792h1.896l0.096,1.992h0.047   c0.865-1.416,2.232-2.256,4.128-2.256c2.809,0,4.922,2.376,4.922,5.904c0,4.176-2.545,6.24-5.281,6.24   c-1.536,0-2.88-0.672-3.575-1.824h-0.049v6.313h-2.088V47.089z M133.298,50.186c0,0.312,0.049,0.6,0.096,0.864   c0.385,1.464,1.656,2.472,3.168,2.472c2.232,0,3.528-1.824,3.528-4.488c0-2.328-1.223-4.32-3.456-4.32   c-1.439,0-2.783,1.032-3.191,2.616c-0.072,0.264-0.145,0.576-0.145,0.864V50.186z"/>
	<path fill="#FFFFFF" d="M144.866,37.872h2.111v17.042h-2.111V37.872z"/>
	<path fill="#FFFFFF" d="M161.041,49.01c0,4.296-2.975,6.168-5.783,6.168c-3.145,0-5.568-2.304-5.568-5.977   c0-3.889,2.543-6.168,5.76-6.168C158.786,43.033,161.041,45.457,161.041,49.01z M151.825,49.129c0,2.545,1.465,4.465,3.529,4.465   c2.016,0,3.527-1.896,3.527-4.513c0-1.968-0.983-4.464-3.479-4.464C152.905,44.617,151.825,46.921,151.825,49.129z M156.075,38.28   l2.303,3.433h-1.631l-1.393-2.28h-0.049l-1.391,2.28h-1.561l2.256-3.433H156.075z"/>
	<path fill="#FFFFFF" d="M163.706,46.441c0-1.2-0.023-2.185-0.096-3.145h1.848l0.096,1.872h0.072   c0.648-1.104,1.729-2.136,3.648-2.136c1.584,0,2.783,0.96,3.289,2.328h0.047c0.359-0.648,0.816-1.152,1.297-1.513   c0.695-0.527,1.463-0.815,2.568-0.815c1.535,0,3.816,1.008,3.816,5.04v6.841h-2.064v-6.577c0-2.231-0.816-3.576-2.521-3.576   c-1.199,0-2.135,0.889-2.496,1.92c-0.096,0.288-0.168,0.673-0.168,1.057v7.177h-2.064v-6.961c0-1.848-0.814-3.192-2.424-3.192   c-1.32,0-2.279,1.057-2.615,2.112c-0.121,0.313-0.168,0.672-0.168,1.032v7.009h-2.064V46.441z"/>
	<path fill="#FFFFFF" d="M184.897,49.489c0.049,2.856,1.873,4.032,3.984,4.032c1.512,0,2.424-0.264,3.217-0.6l0.359,1.512   c-0.744,0.336-2.016,0.721-3.863,0.721c-3.578,0-5.713-2.353-5.713-5.858c0-3.504,2.064-6.264,5.447-6.264   c3.793,0,4.801,3.336,4.801,5.472c0,0.433-0.047,0.769-0.072,0.984H184.897z M191.09,47.978c0.023-1.345-0.553-3.433-2.93-3.433   c-2.135,0-3.072,1.968-3.24,3.433H191.09z"/>
</g>
</svg>