<!-- Generator: Adobe Illustrator 19.2.1, SVG Export Plug-In . SVG Version: 6.00 Build 0)  -->
<svg xmlns="http://www.w3.org/2000/svg" xmlns:xlink="http://www.w3.org/1999/xlink" version="1.1" id="French" x="0px" y="0px" width="339.487px" height="72.283px" viewBox="0 0 339.487 72.283" enable-background="new 0 0 339.487 72.283" xml:space="preserve">
<path fill="#FFFFFF" d="M339.298,6.635l0.189-3.012l-62.449,0.003l-0.01-0.003H52.204C47.41,1.304,42.032,0,36.353,0  C16.308,0,0,16.213,0,36.142s16.308,36.142,36.353,36.142c5.679,0,11.057-1.304,15.851-3.623h217.264h18.975h39.647l-0.199-3.02  c-0.023-0.364-0.635-8.674-5.666-20.095c0.094-0.114,0.193-0.226,0.283-0.34C337.921,25.838,339.249,7.41,339.298,6.635z"/>
<g>
	<linearGradient id="SVGID_1_" gradientUnits="userSpaceOnUse" x1="309.0186" y1="6.4571" x2="309.0186" y2="65.7343">
		<stop offset="0" style="stop-color:#F68C6B"/>
		<stop offset="0.258" style="stop-color:#F47853"/>
		<stop offset="0.5306" style="stop-color:#F2653F"/>
		<stop offset="0.7725" style="stop-color:#F15934"/>
		<stop offset="0.9571" style="stop-color:#F15530"/>
	</linearGradient>
	<path fill="url(#SVGID_1_)" d="M281.585,6.457c0,0,12.637,4.047,27.248,22.412c4.475,5.622,7.711,11.178,10.063,16.215   c0.441-0.532,0.934-1.08,1.377-1.638c15.037-18.894,16.18-36.989,16.18-36.989H281.585z"/>
	<path fill="#F68C6B" d="M292.96,65.826h32.084c0,0-0.582-8.811-6.148-20.742C304.814,62.104,292.96,65.826,292.96,65.826z"/>
	<linearGradient id="SVGID_2_" gradientUnits="userSpaceOnUse" x1="187.4599" y1="6.2913" x2="187.4599" y2="65.8261">
		<stop offset="0.1779" style="stop-color:#F15A2C"/>
		<stop offset="0.532" style="stop-color:#ED572C"/>
		<stop offset="0.7069" style="stop-color:#E34E2D"/>
		<stop offset="0.8425" style="stop-color:#D6402D"/>
		<stop offset="0.9573" style="stop-color:#C62A2D"/>
		<stop offset="1" style="stop-color:#BE1E2D"/>
	</linearGradient>
	<path fill="url(#SVGID_2_)" d="M56.024,65.826h236.975c0,0,11.836-3.749,25.896-20.742c-2.355-5.045-5.598-10.608-10.08-16.24   c-14.637-18.398-27.23-22.387-27.23-22.387H56.024"/>
</g>
<g>
	<path fill="#FFFFFF" d="M36.142,0C16.213,0,0,16.213,0,36.142s16.213,36.142,36.142,36.142c19.928,0,36.141-16.213,36.141-36.142   S56.07,0,36.142,0z"/>
	<g>
		<linearGradient id="SVGID_3_" gradientUnits="userSpaceOnUse" x1="16.9989" y1="9.1606" x2="54.8482" y2="63.215">
			<stop offset="0.309" style="stop-color:#13B5EA"/>
			<stop offset="0.4731" style="stop-color:#008FC9"/>
			<stop offset="0.7645" style="stop-color:#005C9C"/>
			<stop offset="0.8989" style="stop-color:#004B8D"/>
		</linearGradient>
		<path fill="url(#SVGID_3_)" d="M68.945,36.132c0,18.26-14.804,33.06-33.064,33.06c-15.524,0-28.537-10.702-32.097-25.12    c6.472-0.073,12.607-1.52,18.151-4.049V27.157c0-1.021-0.359-1.767-1.064-2.239c-0.708-0.466-1.962-0.704-3.773-0.704v-1.19    c2.396-0.084,4.593-0.223,6.589-0.421c1.998-0.199,3.716-0.501,5.167-0.908v14.4c0.007-0.011,0.026-0.017,0.036-0.025v4.312    c0,1.06,0,2.22,0,3.474c0,1.22-0.024,2.414-0.065,3.591c-0.037,1.18-0.099,2.281-0.176,3.295c-0.08,1.021-0.175,1.88-0.292,2.592    c1.961,1.134,4.138,2.076,6.539,2.825c2.395,0.747,4.634,1.115,6.717,1.115c1.766,0,3.474-0.265,5.126-0.793    c1.653-0.523,3.114-1.311,4.393-2.329c1.275-1.018,2.305-2.277,3.091-3.772c0.788-1.493,1.175-3.187,1.175-5.067    c0-1.731-0.296-3.318-0.883-4.776c-0.586-1.455-1.416-2.713-2.478-3.769c-1.064-1.065-2.319-1.897-3.777-2.511    c-1.45-0.604-3.045-0.918-4.777-0.918c-1.301,0-2.624,0.235-3.98,0.686c-1.36,0.458-2.588,1.026-3.692,1.694v-5.566    c5.955-6.215,10.147-14.141,11.76-22.968c-7.37-3.128-15.906-3.535-23.983-0.472C14.611,10.115,8.048,17.107,4.903,25.432    c3.03-8.958,9.891-16.548,19.423-20.172c7.968-3.02,16.29-2.782,23.551,0.057c0.005-0.008-0.004,0.014,0,0    C60.204,10.122,68.945,22.102,68.945,36.132z M36.821,53.063c0.9,1.554,2.433,2.321,4.585,2.321c2.166,0,3.691-0.768,4.6-2.321    c0.9-1.552,1.353-3.997,1.353-7.336c0-3.333-0.453-5.782-1.353-7.329c-0.909-1.552-2.434-2.324-4.6-2.324    c-2.153,0-3.686,0.772-4.585,2.324c-0.908,1.547-1.357,3.996-1.357,7.329C35.465,49.065,35.914,51.511,36.821,53.063z     M28.203,17.977c0.916-0.892,1.375-2.012,1.375-3.356c0-1.343-0.459-2.46-1.375-3.356c-0.918-0.895-2.021-1.345-3.326-1.345    c-1.307,0-2.411,0.45-3.328,1.345c-0.921,0.896-1.372,2.014-1.372,3.356c0,1.344,0.451,2.464,1.372,3.356    c0.917,0.9,2.021,1.347,3.328,1.347C26.182,19.323,27.284,18.877,28.203,17.977z"/>
	</g>
</g>
<g>
	<path fill="#FFFFFF" d="M79.706,13.025c1.008-0.168,2.328-0.312,4.008-0.312c2.064,0,3.576,0.48,4.536,1.344   c0.888,0.768,1.417,1.944,1.417,3.384c0,1.464-0.432,2.616-1.248,3.456c-1.104,1.176-2.904,1.776-4.945,1.776   c-0.624,0-1.2-0.024-1.68-0.144v6.48h-2.088V13.025z M81.794,20.826c0.456,0.12,1.032,0.168,1.729,0.168   c2.52,0,4.056-1.224,4.056-3.457c0-2.136-1.512-3.168-3.816-3.168c-0.912,0-1.608,0.072-1.968,0.168V20.826z"/>
	<path fill="#FFFFFF" d="M92.018,21.018c0-1.368-0.024-2.544-0.096-3.624h1.848l0.072,2.28h0.096c0.528-1.56,1.8-2.544,3.216-2.544   c0.24,0,0.408,0.024,0.6,0.072v1.992c-0.216-0.048-0.432-0.072-0.72-0.072c-1.488,0-2.544,1.128-2.832,2.712   c-0.048,0.288-0.096,0.624-0.096,0.984v6.192h-2.088V21.018z"/>
	<path fill="#FFFFFF" d="M110.139,23.106c0,4.296-2.977,6.168-5.785,6.168c-3.144,0-5.568-2.304-5.568-5.977   c0-3.889,2.545-6.168,5.76-6.168C107.883,17.129,110.139,19.553,110.139,23.106z M100.922,23.226c0,2.545,1.464,4.464,3.528,4.464   c2.016,0,3.528-1.896,3.528-4.512c0-1.968-0.984-4.464-3.48-4.464S100.922,21.018,100.922,23.226z"/>
	<path fill="#FFFFFF" d="M122.811,17.393c-0.048,0.84-0.096,1.776-0.096,3.192v6.745c0,2.664-0.528,4.296-1.656,5.305   c-1.128,1.056-2.76,1.392-4.224,1.392c-1.392,0-2.928-0.336-3.864-0.961l0.528-1.608c0.768,0.48,1.968,0.912,3.408,0.912   c2.16,0,3.745-1.128,3.745-4.057v-1.296h-0.048c-0.648,1.08-1.896,1.944-3.696,1.944c-2.88,0-4.944-2.448-4.944-5.665   c0-3.936,2.568-6.168,5.232-6.168c2.016,0,3.12,1.056,3.624,2.016h0.048l0.096-1.752H122.811z M120.626,21.978   c0-0.36-0.024-0.672-0.12-0.96c-0.384-1.224-1.417-2.232-2.953-2.232c-2.016,0-3.456,1.705-3.456,4.393   c0,2.28,1.152,4.176,3.432,4.176c1.296,0,2.472-0.816,2.928-2.16c0.12-0.36,0.168-0.768,0.168-1.128V21.978z"/>
	<path fill="#FFFFFF" d="M126.074,21.018c0-1.368-0.024-2.544-0.096-3.624h1.848l0.072,2.28h0.096c0.528-1.56,1.8-2.544,3.216-2.544   c0.24,0,0.408,0.024,0.6,0.072v1.992c-0.216-0.048-0.432-0.072-0.72-0.072c-1.488,0-2.544,1.128-2.832,2.712   c-0.048,0.288-0.096,0.624-0.096,0.984v6.192h-2.088V21.018z"/>
	<path fill="#FFFFFF" d="M140.235,29.01l-0.168-1.464h-0.072c-0.648,0.912-1.896,1.729-3.553,1.729   c-2.353,0-3.553-1.656-3.553-3.336c0-2.808,2.497-4.344,6.986-4.32v-0.24c0-0.96-0.266-2.688-2.641-2.688   c-1.081,0-2.209,0.336-3.025,0.864l-0.48-1.392c0.96-0.624,2.352-1.032,3.818-1.032c3.551,0,4.416,2.424,4.416,4.753v4.344   c0,1.008,0.047,1.992,0.191,2.784H140.235z M139.923,23.082c-2.305-0.048-4.921,0.36-4.921,2.616c0,1.368,0.912,2.017,1.993,2.017   c1.512,0,2.473-0.96,2.809-1.944c0.072-0.216,0.119-0.456,0.119-0.672V23.082z"/>
	<path fill="#FFFFFF" d="M145.37,20.538c0-1.2-0.023-2.184-0.096-3.144h1.848l0.098,1.873h0.07c0.648-1.104,1.729-2.136,3.648-2.136   c1.584,0,2.785,0.96,3.289,2.328h0.049c0.359-0.648,0.814-1.152,1.295-1.512c0.697-0.528,1.465-0.816,2.568-0.816   c1.537,0,3.816,1.008,3.816,5.04v6.841h-2.064v-6.577c0-2.232-0.816-3.576-2.52-3.576c-1.201,0-2.137,0.888-2.496,1.92   c-0.096,0.288-0.168,0.672-0.168,1.056v7.177h-2.064v-6.96c0-1.848-0.816-3.192-2.424-3.192c-1.32,0-2.281,1.056-2.617,2.112   c-0.119,0.312-0.168,0.672-0.168,1.032v7.009h-2.064V20.538z"/>
	<path fill="#FFFFFF" d="M165.388,20.538c0-1.2-0.023-2.184-0.096-3.144h1.848l0.096,1.873h0.072   c0.648-1.104,1.729-2.136,3.648-2.136c1.584,0,2.783,0.96,3.289,2.328h0.047c0.359-0.648,0.816-1.152,1.297-1.512   c0.695-0.528,1.463-0.816,2.568-0.816c1.535,0,3.816,1.008,3.816,5.04v6.841h-2.064v-6.577c0-2.232-0.816-3.576-2.521-3.576   c-1.199,0-2.135,0.888-2.496,1.92c-0.096,0.288-0.168,0.672-0.168,1.056v7.177h-2.064v-6.96c0-1.848-0.814-3.192-2.424-3.192   c-1.32,0-2.279,1.056-2.615,2.112c-0.121,0.312-0.168,0.672-0.168,1.032v7.009h-2.064V20.538z"/>
	<path fill="#FFFFFF" d="M186.579,23.586c0.049,2.856,1.873,4.032,3.984,4.032c1.512,0,2.424-0.264,3.217-0.6l0.359,1.512   c-0.744,0.336-2.016,0.72-3.863,0.72c-3.578,0-5.713-2.352-5.713-5.857c0-3.504,2.064-6.264,5.447-6.264   c3.793,0,4.801,3.336,4.801,5.472c0,0.432-0.047,0.768-0.072,0.984H186.579z M192.772,22.074c0.023-1.344-0.553-3.432-2.93-3.432   c-2.135,0-3.072,1.968-3.24,3.432H192.772z"/>
	<path fill="#FFFFFF" d="M212.548,11.969V26.01c0,1.032,0.023,2.208,0.096,3h-1.896l-0.096-2.016h-0.049   c-0.648,1.296-2.064,2.28-3.959,2.28c-2.809,0-4.969-2.376-4.969-5.905c-0.025-3.864,2.375-6.24,5.207-6.24   c1.777,0,2.977,0.84,3.506,1.776h0.047v-6.937H212.548z M210.435,22.122c0-0.264-0.023-0.624-0.096-0.888   c-0.313-1.344-1.465-2.448-3.049-2.448c-2.184,0-3.48,1.92-3.48,4.489c0,2.352,1.152,4.296,3.434,4.296   c1.416,0,2.711-0.936,3.096-2.52c0.072-0.288,0.096-0.576,0.096-0.912V22.122z"/>
	<path fill="#FFFFFF" d="M218.858,12.569c-0.553,2.016-1.584,4.585-2.256,5.689l-1.344,0.168c0.527-1.416,1.15-3.912,1.416-5.641   L218.858,12.569z"/>
	<path fill="#FFFFFF" d="M220.491,23.586c0.047,2.856,1.871,4.032,3.984,4.032c1.512,0,2.424-0.264,3.215-0.6l0.361,1.512   c-0.744,0.336-2.018,0.72-3.865,0.72c-3.576,0-5.713-2.352-5.713-5.857c0-3.504,2.065-6.264,5.449-6.264   c3.793,0,4.801,3.336,4.801,5.472c0,0.432-0.049,0.768-0.072,0.984H220.491z M226.683,22.074c0.024-1.344-0.553-3.432-2.928-3.432   c-2.137,0-3.072,1.968-3.24,3.432H226.683z M227.186,12.377l-2.928,3.432h-1.512l2.111-3.432H227.186z"/>
	<path fill="#FFFFFF" d="M241.37,11.969V26.01c0,1.032,0.024,2.208,0.096,3h-1.895l-0.098-2.016h-0.047   c-0.648,1.296-2.064,2.28-3.961,2.28c-2.809,0-4.969-2.376-4.969-5.905c-0.024-3.864,2.377-6.24,5.209-6.24   c1.775,0,2.976,0.84,3.504,1.776h0.049v-6.937H241.37z M239.259,22.122c0-0.264-0.025-0.624-0.096-0.888   c-0.313-1.344-1.465-2.448-3.049-2.448c-2.184,0-3.48,1.92-3.48,4.489c0,2.352,1.152,4.296,3.432,4.296   c1.416,0,2.713-0.936,3.098-2.52c0.07-0.288,0.096-0.576,0.096-0.912V22.122z"/>
	<path fill="#FFFFFF" d="M254.595,25.842c0,1.2,0.023,2.256,0.096,3.168h-1.871l-0.121-1.896h-0.047   c-0.553,0.936-1.777,2.16-3.842,2.16c-1.824,0-4.008-1.008-4.008-5.088v-6.793h2.111v6.433c0,2.208,0.674,3.696,2.594,3.696   c1.416,0,2.4-0.984,2.783-1.92c0.121-0.312,0.191-0.696,0.191-1.08v-7.129h2.113V25.842z"/>
	<path fill="#FFFFFF" d="M266.378,28.578c-0.553,0.288-1.775,0.672-3.336,0.672c-3.504,0-5.785-2.376-5.785-5.929   c0-3.576,2.449-6.168,6.24-6.168c1.248,0,2.353,0.312,2.93,0.6l-0.48,1.632c-0.504-0.288-1.297-0.552-2.449-0.552   c-2.664,0-4.104,1.968-4.104,4.392c0,2.689,1.729,4.345,4.033,4.345c1.199,0,1.992-0.312,2.592-0.576L266.378,28.578z"/>
	<path fill="#FFFFFF" d="M275.282,29.01l-0.168-1.464h-0.072c-0.648,0.912-1.896,1.729-3.553,1.729   c-2.352,0-3.553-1.656-3.553-3.336c0-2.808,2.496-4.344,6.984-4.32v-0.24c0-0.96-0.264-2.688-2.639-2.688   c-1.08,0-2.209,0.336-3.025,0.864l-0.48-1.392c0.961-0.624,2.354-1.032,3.816-1.032c3.553,0,4.418,2.424,4.418,4.753v4.344   c0,1.008,0.047,1.992,0.191,2.784H275.282z M274.97,23.082c-2.305-0.048-4.92,0.36-4.92,2.616c0,1.368,0.912,2.017,1.992,2.017   c1.512,0,2.473-0.96,2.809-1.944c0.07-0.216,0.119-0.456,0.119-0.672V23.082z"/>
	<path fill="#FFFFFF" d="M282.864,14.057v3.336h3.025v1.608h-3.025v6.265c0,1.44,0.408,2.256,1.586,2.256   c0.551,0,0.959-0.072,1.223-0.144l0.096,1.584c-0.406,0.168-1.055,0.288-1.871,0.288c-0.984,0-1.775-0.312-2.281-0.888   c-0.6-0.624-0.814-1.656-0.814-3.024v-6.336h-1.801v-1.608h1.801v-2.784L282.864,14.057z"/>
	<path fill="#FFFFFF" d="M290.618,14.129c0.023,0.72-0.504,1.296-1.346,1.296c-0.742,0-1.271-0.576-1.271-1.296   c0-0.744,0.553-1.32,1.32-1.32C290.114,12.809,290.618,13.385,290.618,14.129z M288.265,29.01V17.393h2.113V29.01H288.265z"/>
	<path fill="#FFFFFF" d="M304.394,23.106c0,4.296-2.975,6.168-5.783,6.168c-3.145,0-5.568-2.304-5.568-5.977   c0-3.889,2.543-6.168,5.76-6.168C302.138,17.129,304.394,19.553,304.394,23.106z M295.177,23.226c0,2.545,1.465,4.464,3.529,4.464   c2.016,0,3.527-1.896,3.527-4.512c0-1.968-0.982-4.464-3.478-4.464C296.257,18.713,295.177,21.018,295.177,23.226z"/>
	<path fill="#FFFFFF" d="M307.058,20.538c0-1.2-0.023-2.184-0.096-3.144h1.871l0.121,1.92h0.047c0.576-1.104,1.92-2.184,3.842-2.184   c1.607,0,4.103,0.96,4.103,4.944v6.937h-2.111v-6.697c0-1.872-0.697-3.432-2.69-3.432c-1.393,0-2.473,0.984-2.832,2.16   c-0.096,0.264-0.145,0.624-0.145,0.984v6.984h-2.111V20.538z"/>
	<path fill="#FFFFFF" d="M81.986,40.129c0.024,0.72-0.504,1.296-1.344,1.296c-0.744,0-1.272-0.576-1.272-1.296   c0-0.744,0.552-1.32,1.32-1.32C81.482,38.809,81.986,39.385,81.986,40.129z M79.634,55.01V43.393h2.112V55.01H79.634z"/>
	<path fill="#FFFFFF" d="M85.249,46.538c0-1.2-0.024-2.184-0.096-3.145h1.872l0.12,1.92h0.048c0.576-1.104,1.921-2.184,3.84-2.184   c1.608,0,4.104,0.96,4.104,4.944v6.937h-2.112v-6.697c0-1.872-0.696-3.432-2.688-3.432c-1.393,0-2.473,0.984-2.832,2.16   c-0.096,0.264-0.144,0.624-0.144,0.984v6.984h-2.112V46.538z"/>
	<path fill="#FFFFFF" d="M101.018,40.057v3.336h3.024v1.608h-3.024v6.265c0,1.44,0.408,2.256,1.584,2.256   c0.552,0,0.96-0.072,1.224-0.144l0.096,1.584c-0.408,0.168-1.056,0.288-1.872,0.288c-0.984,0-1.776-0.312-2.28-0.888   c-0.6-0.624-0.816-1.656-0.816-3.024v-6.336h-1.8v-1.608h1.8v-2.784L101.018,40.057z"/>
	<path fill="#FFFFFF" d="M107.45,49.586c0.048,2.856,1.872,4.032,3.984,4.032c1.512,0,2.424-0.264,3.216-0.6l0.36,1.512   c-0.744,0.336-2.016,0.72-3.864,0.72c-3.576,0-5.712-2.353-5.712-5.857c0-3.504,2.064-6.264,5.448-6.264   c3.792,0,4.801,3.336,4.801,5.472c0,0.432-0.048,0.768-0.072,0.984H107.45z M113.642,48.074c0.024-1.344-0.552-3.432-2.928-3.432   c-2.136,0-3.072,1.968-3.24,3.432H113.642z"/>
	<path fill="#FFFFFF" d="M118.297,47.018c0-1.368-0.024-2.544-0.096-3.625h1.848l0.072,2.28h0.096c0.528-1.56,1.8-2.544,3.216-2.544   c0.24,0,0.408,0.024,0.6,0.072v1.992c-0.216-0.048-0.432-0.072-0.72-0.072c-1.488,0-2.544,1.128-2.832,2.712   c-0.048,0.288-0.096,0.624-0.096,0.984v6.192h-2.088V47.018z"/>
	<path fill="#FFFFFF" d="M126.241,46.538c0-1.2-0.024-2.184-0.096-3.145h1.848l0.096,1.873h0.072   c0.648-1.104,1.728-2.136,3.648-2.136c1.584,0,2.784,0.96,3.288,2.328h0.048c0.36-0.648,0.817-1.152,1.296-1.512   c0.697-0.528,1.465-0.816,2.568-0.816c1.537,0,3.816,1.008,3.816,5.04v6.841h-2.064v-6.577c0-2.232-0.814-3.576-2.52-3.576   c-1.199,0-2.137,0.888-2.497,1.92c-0.096,0.288-0.168,0.672-0.168,1.056v7.177h-2.064v-6.96c0-1.848-0.816-3.192-2.424-3.192   c-1.32,0-2.28,1.056-2.616,2.112c-0.12,0.312-0.168,0.672-0.168,1.032v7.009h-2.064V46.538z"/>
	<path fill="#FFFFFF" d="M147.435,49.586c0.049,2.856,1.873,4.032,3.984,4.032c1.512,0,2.424-0.264,3.217-0.6l0.359,1.512   c-0.744,0.336-2.016,0.72-3.863,0.72c-3.578,0-5.713-2.353-5.713-5.857c0-3.504,2.064-6.264,5.447-6.264   c3.793,0,4.801,3.336,4.801,5.472c0,0.432-0.047,0.768-0.072,0.984H147.435z M153.628,48.074c0.023-1.344-0.553-3.432-2.93-3.432   c-2.135,0-3.072,1.968-3.24,3.432H153.628z M154.132,38.377l-2.93,3.432h-1.512l2.113-3.432H154.132z"/>
	<path fill="#FFFFFF" d="M168.315,37.969V52.01c0,1.032,0.023,2.208,0.096,3h-1.896l-0.096-2.016h-0.049   c-0.648,1.296-2.064,2.28-3.959,2.28c-2.809,0-4.969-2.376-4.969-5.905c-0.025-3.864,2.375-6.24,5.207-6.24   c1.777,0,2.977,0.84,3.506,1.776h0.047v-6.937H168.315z M166.202,48.122c0-0.264-0.023-0.624-0.096-0.888   c-0.313-1.344-1.465-2.448-3.049-2.448c-2.184,0-3.48,1.92-3.48,4.489c0,2.352,1.152,4.296,3.434,4.296   c1.416,0,2.711-0.936,3.096-2.521c0.072-0.288,0.096-0.576,0.096-0.912V48.122z"/>
	<path fill="#FFFFFF" d="M174.171,40.129c0.023,0.72-0.504,1.296-1.346,1.296c-0.742,0-1.271-0.576-1.271-1.296   c0-0.744,0.553-1.32,1.32-1.32C173.667,38.809,174.171,39.385,174.171,40.129z M171.817,55.01V43.393h2.113V55.01H171.817z"/>
	<path fill="#FFFFFF" d="M183.866,55.01l-0.168-1.464h-0.072c-0.646,0.912-1.895,1.729-3.551,1.729   c-2.354,0-3.553-1.656-3.553-3.336c0-2.808,2.496-4.344,6.984-4.32v-0.24c0-0.96-0.264-2.688-2.641-2.688   c-1.08,0-2.207,0.336-3.023,0.864l-0.48-1.392c0.961-0.624,2.352-1.032,3.816-1.032c3.553,0,4.416,2.424,4.416,4.753v4.344   c0,1.008,0.049,1.992,0.191,2.784H183.866z M183.556,49.082c-2.305-0.048-4.922,0.36-4.922,2.616c0,1.368,0.912,2.017,1.992,2.017   c1.514,0,2.473-0.961,2.809-1.944c0.072-0.216,0.121-0.456,0.121-0.672V49.082z"/>
	<path fill="#FFFFFF" d="M191.354,40.129c0.023,0.72-0.504,1.296-1.346,1.296c-0.742,0-1.271-0.576-1.271-1.296   c0-0.744,0.553-1.32,1.32-1.32C190.851,38.809,191.354,39.385,191.354,40.129z M189.001,55.01V43.393h2.113V55.01H189.001z"/>
	<path fill="#FFFFFF" d="M194.618,47.018c0-1.368-0.023-2.544-0.096-3.625h1.848l0.072,2.28h0.096   c0.527-1.56,1.801-2.544,3.217-2.544c0.24,0,0.408,0.024,0.6,0.072v1.992c-0.217-0.048-0.432-0.072-0.721-0.072   c-1.488,0-2.543,1.128-2.832,2.712c-0.047,0.288-0.096,0.624-0.096,0.984v6.192h-2.088V47.018z"/>
	<path fill="#FFFFFF" d="M203.401,49.586c0.049,2.856,1.873,4.032,3.984,4.032c1.512,0,2.424-0.264,3.217-0.6l0.359,1.512   c-0.744,0.336-2.016,0.72-3.863,0.72c-3.578,0-5.713-2.353-5.713-5.857c0-3.504,2.064-6.264,5.447-6.264   c3.793,0,4.801,3.336,4.801,5.472c0,0.432-0.047,0.768-0.072,0.984H203.401z M209.595,48.074c0.023-1.344-0.553-3.432-2.93-3.432   c-2.135,0-3.072,1.968-3.24,3.432H209.595z"/>
</g>
</svg>