<!-- Generator: Adobe Illustrator 19.2.1, SVG Export Plug-In . SVG Version: 6.00 Build 0)  -->
<svg xmlns="http://www.w3.org/2000/svg" xmlns:xlink="http://www.w3.org/1999/xlink" version="1.1" id="Layer_1" x="0px" y="0px" width="240.977px" height="72.283px" viewBox="0 0 240.977 72.283" enable-background="new 0 0 240.977 72.283" xml:space="preserve">
<g>
	<path fill="#FFFFFF" d="M240.788,6.635l0.189-3.012L51.924,3.622C47.16,1.304,41.814,0,36.169,0   C16.243,0,0.032,16.213,0.032,36.142c0,19.928,16.21,36.141,36.137,36.141c5.646,0,10.992-1.305,15.756-3.623h177.72l-0.198-3.02   c-0.023-0.363-0.619-8.668-5.624-20.094c0.093-0.113,0.184-0.229,0.274-0.342C239.419,25.838,240.739,7.41,240.788,6.635z"/>
	<g>
		<g>
			<linearGradient id="SVGID_1_" gradientUnits="userSpaceOnUse" x1="210.2632" y1="6.457" x2="210.2632" y2="65.7336">
				<stop offset="0" style="stop-color:#F68C6B"/>
				<stop offset="0.258" style="stop-color:#F47853"/>
				<stop offset="0.5306" style="stop-color:#F2653F"/>
				<stop offset="0.7725" style="stop-color:#F15934"/>
				<stop offset="0.9571" style="stop-color:#F15530"/>
			</linearGradient>
			<path fill="url(#SVGID_1_)" d="M182.993,6.457c0,0,12.562,4.047,27.087,22.412c4.448,5.622,7.665,11.177,10.002,16.214     c0.438-0.531,0.929-1.08,1.369-1.637c14.947-18.894,16.083-36.99,16.083-36.99H182.993z"/>
			<path fill="#F68C6B" d="M194.299,65.826h31.895c0,0-0.578-8.811-6.112-20.742C206.082,62.103,194.299,65.826,194.299,65.826z"/>
			<linearGradient id="SVGID_2_" gradientUnits="userSpaceOnUse" x1="135.5654" y1="6.2912" x2="135.5654" y2="65.8255">
				<stop offset="0.1779" style="stop-color:#F15A2C"/>
				<stop offset="0.532" style="stop-color:#ED572C"/>
				<stop offset="0.7069" style="stop-color:#E34E2D"/>
				<stop offset="0.8425" style="stop-color:#D6402D"/>
				<stop offset="0.9573" style="stop-color:#C62A2D"/>
				<stop offset="1" style="stop-color:#BE1E2D"/>
			</linearGradient>
			<path fill="url(#SVGID_2_)" d="M51.049,65.826h143.29c0,0,11.765-3.748,25.742-20.742c-2.341-5.045-5.564-10.608-10.021-16.24     c-14.55-18.398-27.068-22.387-27.068-22.387H51.049"/>
		</g>
		<g>
			<path fill="#FFFFFF" d="M36.142,0C16.213,0,0,16.213,0,36.142C0,56.07,16.213,72.283,36.142,72.283     c19.928,0,36.141-16.213,36.141-36.141C72.283,16.213,56.07,0,36.142,0z"/>
			<g>
				<linearGradient id="SVGID_3_" gradientUnits="userSpaceOnUse" x1="16.999" y1="9.1604" x2="54.8485" y2="63.2152">
					<stop offset="0.309" style="stop-color:#13B5EA"/>
					<stop offset="0.4731" style="stop-color:#008FC9"/>
					<stop offset="0.7645" style="stop-color:#005C9C"/>
					<stop offset="0.8989" style="stop-color:#004B8D"/>
				</linearGradient>
				<path fill="url(#SVGID_3_)" d="M68.945,36.132c0,18.26-14.804,33.061-33.064,33.061c-15.523,0-28.537-10.703-32.097-25.121      c6.472-0.072,12.607-1.52,18.151-4.049V27.157c0-1.021-0.359-1.767-1.064-2.239c-0.708-0.466-1.962-0.704-3.773-0.704v-1.19      c2.396-0.084,4.593-0.223,6.589-0.421c1.998-0.199,3.716-0.501,5.167-0.908v14.4c0.007-0.011,0.026-0.017,0.036-0.025v4.311      c0,1.061,0,2.221,0,3.475c0,1.219-0.024,2.414-0.065,3.59c-0.037,1.18-0.099,2.281-0.176,3.295      c-0.08,1.021-0.175,1.881-0.292,2.592c1.96,1.135,4.138,2.076,6.539,2.826c2.395,0.746,4.634,1.115,6.717,1.115      c1.766,0,3.474-0.266,5.126-0.793c1.653-0.523,3.114-1.311,4.393-2.33c1.275-1.018,2.305-2.277,3.091-3.771      c0.788-1.494,1.175-3.188,1.175-5.068c0-1.731-0.296-3.318-0.883-4.775c-0.586-1.455-1.416-2.713-2.478-3.77      c-1.064-1.065-2.319-1.897-3.777-2.511c-1.45-0.604-3.045-0.918-4.777-0.918c-1.301,0-2.624,0.235-3.981,0.686      c-1.36,0.458-2.588,1.026-3.692,1.694v-5.566c5.955-6.215,10.147-14.141,11.76-22.968c-7.37-3.128-15.906-3.535-23.983-0.472      c-8.977,3.405-15.54,10.396-18.685,18.722c3.03-8.958,9.891-16.548,19.423-20.172c7.968-3.019,16.29-2.782,23.551,0.057      c0.005-0.008-0.004,0.014,0,0C60.204,10.122,68.945,22.101,68.945,36.132z M36.821,53.062c0.9,1.555,2.433,2.322,4.585,2.322      c2.166,0,3.691-0.768,4.6-2.322c0.899-1.551,1.352-3.996,1.352-7.336c0-3.332-0.453-5.781-1.352-7.328      c-0.909-1.553-2.434-2.325-4.6-2.325c-2.153,0-3.686,0.772-4.585,2.325c-0.908,1.547-1.356,3.996-1.356,7.328      C35.465,49.066,35.914,51.511,36.821,53.062z M28.203,17.976c0.915-0.892,1.375-2.012,1.375-3.355      c0-1.343-0.46-2.46-1.375-3.356c-0.919-0.894-2.021-1.345-3.326-1.345c-1.307,0-2.411,0.45-3.328,1.345      c-0.921,0.897-1.372,2.014-1.372,3.356c0,1.344,0.451,2.464,1.372,3.355c0.917,0.9,2.021,1.347,3.328,1.347      C26.182,19.323,27.284,18.877,28.203,17.976z"/>
			</g>
		</g>
	</g>
</g>
<path fill="#FFFFFF" d="M25.75,43.058"/>
<g>
	<path fill="#FFFFFF" d="M93.435,23.55c-0.12-2.256-0.264-4.969-0.239-6.985h-0.072c-0.553,1.896-1.225,3.913-2.04,6.145   l-2.856,7.849h-1.584l-2.616-7.705c-0.769-2.28-1.416-4.368-1.872-6.289h-0.049c-0.048,2.016-0.168,4.729-0.312,7.153l-0.432,6.937   H79.37l1.128-16.177h2.664l2.76,7.825c0.673,1.992,1.225,3.768,1.633,5.448h0.071c0.408-1.632,0.984-3.408,1.704-5.448l2.881-7.825   h2.664l1.008,16.177h-2.04L93.435,23.55z"/>
	<path fill="#FFFFFF" d="M101.665,15.773c0.023,0.72-0.504,1.296-1.345,1.296c-0.743,0-1.271-0.576-1.271-1.296   c0-0.744,0.552-1.32,1.32-1.32C101.161,14.453,101.665,15.029,101.665,15.773z M99.313,30.654V19.037h2.112v11.617H99.313z"/>
	<path fill="#FFFFFF" d="M114.962,13.613v14.041c0,1.032,0.024,2.209,0.096,3.001h-1.896l-0.097-2.016h-0.048   c-0.648,1.296-2.064,2.28-3.96,2.28c-2.809,0-4.969-2.376-4.969-5.905c-0.024-3.864,2.376-6.24,5.208-6.24   c1.776,0,2.977,0.84,3.505,1.776h0.048v-6.937H114.962z M112.85,23.766c0-0.264-0.024-0.624-0.096-0.888   c-0.312-1.344-1.465-2.448-3.049-2.448c-2.184,0-3.481,1.92-3.481,4.489c0,2.352,1.152,4.296,3.433,4.296   c1.416,0,2.712-0.936,3.097-2.521c0.071-0.288,0.096-0.576,0.096-0.912V23.766z"/>
	<path fill="#FFFFFF" d="M128.498,13.613v14.041c0,1.032,0.023,2.209,0.096,3.001h-1.896l-0.096-2.016h-0.047   c-0.648,1.296-2.064,2.28-3.961,2.28c-2.808,0-4.968-2.376-4.968-5.905c-0.024-3.864,2.376-6.24,5.208-6.24   c1.775,0,2.977,0.84,3.504,1.776h0.049v-6.937H128.498z M126.386,23.766c0-0.264-0.025-0.624-0.096-0.888   c-0.313-1.344-1.465-2.448-3.049-2.448c-2.184,0-3.481,1.92-3.481,4.489c0,2.352,1.152,4.296,3.432,4.296   c1.416,0,2.713-0.936,3.098-2.521c0.07-0.288,0.096-0.576,0.096-0.912V23.766z"/>
	<path fill="#FFFFFF" d="M132.001,13.613h2.111v17.042h-2.111V13.613z"/>
	<path fill="#FFFFFF" d="M138.841,25.23c0.048,2.856,1.872,4.032,3.983,4.032c1.513,0,2.425-0.264,3.217-0.6l0.36,1.512   c-0.744,0.336-2.017,0.72-3.864,0.72c-3.577,0-5.714-2.353-5.714-5.857c0-3.504,2.065-6.264,5.449-6.264   c3.793,0,4.801,3.336,4.801,5.472c0,0.432-0.048,0.768-0.072,0.984H138.841z M145.034,23.718c0.023-1.344-0.553-3.432-2.929-3.432   c-2.136,0-3.072,1.968-3.24,3.432H145.034z"/>
	<path fill="#FFFFFF" d="M157.345,30.654v-6.865l-5.112-9.312h2.376l2.28,4.464c0.624,1.224,1.104,2.208,1.607,3.336h0.049   c0.456-1.056,1.008-2.112,1.632-3.336l2.328-4.464h2.376l-5.424,9.289v6.889H157.345z"/>
	<path fill="#FFFFFF" d="M166.009,25.23c0.048,2.856,1.872,4.032,3.983,4.032c1.513,0,2.425-0.264,3.217-0.6l0.36,1.512   c-0.744,0.336-2.017,0.72-3.864,0.72c-3.577,0-5.713-2.353-5.713-5.857c0-3.504,2.064-6.264,5.448-6.264   c3.793,0,4.801,3.336,4.801,5.472c0,0.432-0.048,0.768-0.072,0.984H166.009z M172.202,23.718c0.023-1.344-0.553-3.432-2.929-3.432   c-2.136,0-3.072,1.968-3.24,3.432H172.202z"/>
	<path fill="#FFFFFF" d="M183.289,30.654l-0.168-1.464h-0.072c-0.648,0.912-1.896,1.729-3.552,1.729   c-2.353,0-3.553-1.656-3.553-3.336c0-2.808,2.496-4.344,6.984-4.32v-0.24c0-0.96-0.264-2.688-2.64-2.688   c-1.08,0-2.208,0.336-3.024,0.864l-0.48-1.392c0.961-0.624,2.353-1.032,3.816-1.032c3.553,0,4.417,2.424,4.417,4.752v4.344   c0,1.008,0.048,1.992,0.191,2.784H183.289z M182.977,24.726c-2.305-0.048-4.921,0.36-4.921,2.616c0,1.368,0.912,2.017,1.992,2.017   c1.513,0,2.473-0.961,2.808-1.944c0.071-0.216,0.12-0.456,0.12-0.672V24.726z"/>
	<path fill="#FFFFFF" d="M188.424,22.662c0-1.368-0.023-2.545-0.096-3.625h1.848l0.072,2.28h0.096   c0.528-1.56,1.801-2.544,3.217-2.544c0.24,0,0.408,0.024,0.6,0.072v1.992c-0.216-0.048-0.432-0.072-0.72-0.072   c-1.488,0-2.544,1.128-2.832,2.712c-0.048,0.288-0.097,0.624-0.097,0.984v6.192h-2.088V22.662z"/>
	<path fill="#FFFFFF" d="M195.984,28.494c0.624,0.408,1.729,0.84,2.784,0.84c1.536,0,2.257-0.768,2.257-1.728   c0-1.008-0.601-1.56-2.16-2.136c-2.089-0.744-3.072-1.896-3.072-3.288c0-1.872,1.512-3.408,4.008-3.408   c1.177,0,2.208,0.336,2.857,0.72l-0.528,1.536c-0.456-0.288-1.296-0.672-2.376-0.672c-1.248,0-1.944,0.72-1.944,1.584   c0,0.96,0.696,1.392,2.208,1.968c2.017,0.768,3.049,1.776,3.049,3.504c0,2.04-1.584,3.481-4.345,3.481   c-1.271,0-2.448-0.312-3.264-0.793L195.984,28.494z"/>
	<path fill="#FFFFFF" d="M79.802,37.669c1.008-0.168,2.328-0.313,4.008-0.313c2.064,0,3.577,0.48,4.537,1.344   c0.888,0.769,1.416,1.944,1.416,3.385c0,1.464-0.433,2.616-1.248,3.456c-1.104,1.177-2.904,1.776-4.944,1.776   c-0.624,0-1.2-0.023-1.681-0.144v6.48h-2.088V37.669z M81.89,45.47c0.456,0.119,1.032,0.168,1.729,0.168   c2.521,0,4.057-1.225,4.057-3.457c0-2.137-1.513-3.168-3.816-3.168c-0.912,0-1.608,0.072-1.969,0.168V45.47z"/>
	<path fill="#FFFFFF" d="M92.113,45.662c0-1.368-0.023-2.545-0.096-3.625h1.848l0.072,2.281h0.096   c0.528-1.56,1.801-2.545,3.217-2.545c0.24,0,0.408,0.024,0.6,0.072v1.992c-0.216-0.048-0.432-0.072-0.72-0.072   c-1.488,0-2.544,1.129-2.832,2.713c-0.048,0.287-0.097,0.623-0.097,0.984v6.191h-2.088V45.662z"/>
	<path fill="#FFFFFF" d="M110.234,47.75c0,4.297-2.976,6.169-5.784,6.169c-3.145,0-5.568-2.304-5.568-5.977   c0-3.889,2.544-6.169,5.761-6.169C107.979,41.773,110.234,44.197,110.234,47.75z M101.018,47.87c0,2.544,1.465,4.464,3.528,4.464   c2.017,0,3.528-1.896,3.528-4.512c0-1.969-0.983-4.465-3.479-4.465C102.098,43.357,101.018,45.662,101.018,47.87z"/>
	<path fill="#FFFFFF" d="M122.906,42.037c-0.047,0.841-0.096,1.777-0.096,3.193v6.744c0,2.664-0.527,4.297-1.656,5.305   c-1.127,1.056-2.759,1.392-4.224,1.392c-1.392,0-2.928-0.337-3.864-0.961l0.528-1.607c0.768,0.479,1.968,0.912,3.408,0.912   c2.16,0,3.744-1.129,3.744-4.057v-1.297h-0.048c-0.648,1.08-1.896,1.945-3.696,1.945c-2.88,0-4.944-2.449-4.944-5.665   c0-3.937,2.568-6.169,5.233-6.169c2.017,0,3.12,1.057,3.624,2.017h0.048l0.096-1.753H122.906z M120.723,46.621   c0-0.36-0.024-0.672-0.12-0.96c-0.384-1.225-1.416-2.232-2.952-2.232c-2.017,0-3.457,1.705-3.457,4.393   c0,2.28,1.152,4.176,3.433,4.176c1.296,0,2.473-0.815,2.929-2.16c0.12-0.359,0.168-0.768,0.168-1.127V46.621z"/>
	<path fill="#FFFFFF" d="M126.169,45.662c0-1.368-0.023-2.545-0.096-3.625h1.848l0.072,2.281h0.096   c0.529-1.56,1.801-2.545,3.217-2.545c0.24,0,0.408,0.024,0.6,0.072v1.992c-0.215-0.048-0.432-0.072-0.719-0.072   c-1.488,0-2.545,1.129-2.832,2.713c-0.049,0.287-0.098,0.623-0.098,0.984v6.191h-2.088V45.662z"/>
	<path fill="#FFFFFF" d="M140.331,53.654l-0.168-1.464h-0.072c-0.647,0.912-1.896,1.729-3.552,1.729   c-2.354,0-3.553-1.656-3.553-3.337c0-2.808,2.496-4.344,6.984-4.32v-0.24c0-0.959-0.264-2.688-2.64-2.688   c-1.081,0-2.208,0.336-3.024,0.863l-0.48-1.392c0.961-0.624,2.352-1.032,3.816-1.032c3.553,0,4.417,2.424,4.417,4.753v4.345   c0,1.008,0.048,1.992,0.191,2.783H140.331z M140.019,47.726c-2.305-0.049-4.922,0.359-4.922,2.615c0,1.369,0.912,2.017,1.993,2.017   c1.513,0,2.473-0.961,2.809-1.945c0.071-0.216,0.12-0.455,0.12-0.672V47.726z"/>
	<path fill="#FFFFFF" d="M145.466,45.181c0-1.199-0.023-2.184-0.096-3.145h1.848l0.097,1.873h0.071   c0.648-1.104,1.729-2.137,3.648-2.137c1.584,0,2.784,0.961,3.289,2.328h0.048c0.359-0.647,0.815-1.152,1.296-1.512   c0.696-0.527,1.464-0.816,2.568-0.816c1.536,0,3.816,1.008,3.816,5.041v6.84h-2.064v-6.576c0-2.232-0.816-3.576-2.52-3.576   c-1.2,0-2.136,0.889-2.496,1.92c-0.096,0.288-0.168,0.672-0.168,1.057v7.176h-2.064v-6.96c0-1.849-0.815-3.192-2.424-3.192   c-1.32,0-2.28,1.057-2.616,2.112c-0.12,0.312-0.168,0.672-0.168,1.032v7.008h-2.064V45.181z"/>
	<path fill="#FFFFFF" d="M165.482,45.181c0-1.199-0.023-2.184-0.096-3.145h1.848l0.097,1.873h0.071   c0.648-1.104,1.729-2.137,3.648-2.137c1.584,0,2.784,0.961,3.289,2.328h0.048c0.359-0.647,0.816-1.152,1.296-1.512   c0.696-0.527,1.464-0.816,2.568-0.816c1.536,0,3.816,1.008,3.816,5.041v6.84h-2.064v-6.576c0-2.232-0.816-3.576-2.521-3.576   c-1.2,0-2.136,0.889-2.496,1.92c-0.096,0.288-0.168,0.672-0.168,1.057v7.176h-2.064v-6.96c0-1.849-0.815-3.192-2.424-3.192   c-1.32,0-2.28,1.057-2.616,2.112c-0.12,0.312-0.168,0.672-0.168,1.032v7.008h-2.064V45.181z"/>
	<path fill="#FFFFFF" d="M186.674,48.23c0.048,2.855,1.872,4.032,3.984,4.032c1.512,0,2.424-0.265,3.216-0.601l0.36,1.513   c-0.744,0.336-2.017,0.72-3.864,0.72c-3.577,0-5.713-2.352-5.713-5.856c0-3.504,2.064-6.265,5.448-6.265   c3.793,0,4.801,3.336,4.801,5.473c0,0.432-0.048,0.767-0.072,0.984H186.674z M192.867,46.718c0.023-1.345-0.553-3.433-2.929-3.433   c-2.136,0-3.072,1.968-3.24,3.433H192.867z"/>
</g>
</svg>