<!-- Generator: Adobe Illustrator 19.2.1, SVG Export Plug-In . SVG Version: 6.00 Build 0)  -->
<svg xmlns="http://www.w3.org/2000/svg" xmlns:xlink="http://www.w3.org/1999/xlink" version="1.1" id="Layer_1" x="0px" y="0px" width="289.134px" height="72.283px" viewBox="0 0 289.134 72.283" enable-background="new 0 0 289.134 72.283" xml:space="preserve">
<g>
	<path fill="#FFFFFF" d="M288.943,6.635l0.19-3.012l-57.223,0.003l-0.01-0.003H51.996C47.221,1.304,41.865,0,36.208,0   C16.243,0,0,16.213,0,36.142s16.243,36.142,36.208,36.142c5.657,0,11.013-1.304,15.788-3.623h172.376h18.898h34.509l-0.199-3.02   c-0.023-0.363-0.632-8.674-5.643-20.096c0.094-0.113,0.193-0.226,0.283-0.34C287.573,25.838,288.895,7.41,288.943,6.635z"/>
	<g>
		<g>
			<linearGradient id="SVGID_1_" gradientUnits="userSpaceOnUse" x1="258.7847" y1="6.457" x2="258.7847" y2="65.7344">
				<stop offset="0" style="stop-color:#F68C6B"/>
				<stop offset="0.258" style="stop-color:#F47853"/>
				<stop offset="0.5306" style="stop-color:#F2653F"/>
				<stop offset="0.7725" style="stop-color:#F15934"/>
				<stop offset="0.9571" style="stop-color:#F15530"/>
			</linearGradient>
			<path fill="url(#SVGID_1_)" d="M231.46,6.457c0,0,12.587,4.047,27.141,22.412c4.457,5.622,7.68,11.178,10.022,16.215     c0.438-0.532,0.93-1.08,1.37-1.638c14.978-18.894,16.116-36.989,16.116-36.989H231.46z"/>
			<path fill="#F68C6B" d="M242.79,65.826h31.957c0,0-0.579-8.811-6.124-20.742C254.596,62.104,242.79,65.826,242.79,65.826z"/>
			<linearGradient id="SVGID_2_" gradientUnits="userSpaceOnUse" x1="162.7103" y1="6.2912" x2="162.7103" y2="65.826">
				<stop offset="0.1779" style="stop-color:#F15A2C"/>
				<stop offset="0.532" style="stop-color:#ED572C"/>
				<stop offset="0.7069" style="stop-color:#E34E2D"/>
				<stop offset="0.8425" style="stop-color:#D6402D"/>
				<stop offset="0.9573" style="stop-color:#C62A2D"/>
				<stop offset="1" style="stop-color:#BE1E2D"/>
			</linearGradient>
			<path fill="url(#SVGID_2_)" d="M56.797,65.826H242.83c0,0,11.787-3.749,25.793-20.742c-2.347-5.045-5.576-10.608-10.041-16.24     C244.004,10.445,231.46,6.457,231.46,6.457H56.797"/>
		</g>
		<g>
			<path fill="#FFFFFF" d="M36.142,0C16.213,0,0,16.213,0,36.142s16.213,36.142,36.142,36.142c19.928,0,36.141-16.213,36.141-36.142     S56.07,0,36.142,0z"/>
			<g>
				<linearGradient id="SVGID_3_" gradientUnits="userSpaceOnUse" x1="16.9989" y1="9.1605" x2="54.8482" y2="63.2149">
					<stop offset="0.309" style="stop-color:#13B5EA"/>
					<stop offset="0.4731" style="stop-color:#008FC9"/>
					<stop offset="0.7645" style="stop-color:#005C9C"/>
					<stop offset="0.8989" style="stop-color:#004B8D"/>
				</linearGradient>
				<path fill="url(#SVGID_3_)" d="M68.945,36.132c0,18.26-14.804,33.06-33.064,33.06c-15.523,0-28.537-10.702-32.097-25.12      c6.472-0.073,12.607-1.52,18.151-4.049V27.157c0-1.021-0.359-1.767-1.064-2.239c-0.709-0.466-1.962-0.704-3.773-0.704v-1.19      c2.396-0.084,4.593-0.223,6.589-0.421c1.998-0.199,3.716-0.501,5.167-0.908v14.4c0.007-0.011,0.026-0.017,0.036-0.025v4.311      c0,1.061,0,2.22,0,3.474c0,1.22-0.024,2.414-0.065,3.591c-0.037,1.18-0.099,2.281-0.176,3.295      c-0.08,1.021-0.175,1.88-0.292,2.592c1.961,1.134,4.138,2.076,6.539,2.825c2.395,0.747,4.634,1.115,6.717,1.115      c1.766,0,3.474-0.265,5.126-0.793c1.653-0.523,3.114-1.311,4.393-2.329c1.275-1.019,2.305-2.277,3.091-3.772      c0.788-1.493,1.175-3.187,1.175-5.067c0-1.731-0.296-3.318-0.883-4.776c-0.586-1.455-1.415-2.713-2.478-3.77      c-1.064-1.064-2.319-1.896-3.777-2.511c-1.45-0.604-3.045-0.918-4.777-0.918c-1.301,0-2.624,0.235-3.98,0.686      c-1.36,0.458-2.588,1.026-3.692,1.694v-5.566c5.955-6.215,10.147-14.141,11.76-22.968c-7.37-3.128-15.906-3.535-23.983-0.472      C14.611,10.115,8.048,17.106,4.903,25.432c3.03-8.958,9.891-16.548,19.423-20.172c7.968-3.019,16.29-2.782,23.551,0.057      c0.005-0.008-0.003,0.014,0,0C60.204,10.122,68.945,22.101,68.945,36.132z M36.821,53.063c0.9,1.554,2.433,2.321,4.585,2.321      c2.166,0,3.691-0.768,4.6-2.321c0.899-1.552,1.353-3.997,1.353-7.336c0-3.333-0.453-5.782-1.353-7.329      c-0.909-1.552-2.434-2.324-4.6-2.324c-2.153,0-3.686,0.772-4.585,2.324c-0.908,1.547-1.356,3.996-1.356,7.329      C35.465,49.065,35.914,51.511,36.821,53.063z M28.203,17.976c0.915-0.892,1.375-2.012,1.375-3.355      c0-1.343-0.46-2.46-1.375-3.357c-0.919-0.894-2.021-1.345-3.326-1.345c-1.307,0-2.411,0.45-3.328,1.345      c-0.921,0.897-1.372,2.014-1.372,3.357c0,1.344,0.451,2.464,1.372,3.355c0.917,0.9,2.021,1.347,3.328,1.347      C26.182,19.323,27.284,18.877,28.203,17.976z"/>
			</g>
		</g>
	</g>
</g>
<g>
	<path fill="#FFFFFF" d="M80.594,15.545c1.008-0.168,2.328-0.312,4.008-0.312c2.064,0,3.576,0.48,4.536,1.344   c0.888,0.768,1.417,1.944,1.417,3.384c0,1.464-0.432,2.616-1.248,3.456c-1.104,1.176-2.904,1.776-4.945,1.776   c-0.624,0-1.2-0.024-1.68-0.144v6.48h-2.088V15.545z M82.682,23.346c0.456,0.12,1.032,0.168,1.729,0.168   c2.52,0,4.056-1.224,4.056-3.456c0-2.136-1.512-3.168-3.816-3.168c-0.912,0-1.608,0.072-1.968,0.168V23.346z"/>
	<path fill="#FFFFFF" d="M92.906,23.538c0-1.368-0.024-2.545-0.096-3.625h1.848l0.072,2.28h0.096c0.528-1.56,1.8-2.544,3.216-2.544   c0.24,0,0.408,0.024,0.6,0.072v1.992c-0.216-0.048-0.432-0.072-0.72-0.072c-1.488,0-2.544,1.128-2.832,2.712   c-0.048,0.288-0.096,0.624-0.096,0.984v6.192h-2.088V23.538z"/>
	<path fill="#FFFFFF" d="M111.027,25.626c0,4.296-2.977,6.168-5.785,6.168c-3.144,0-5.568-2.304-5.568-5.977   c0-3.889,2.544-6.168,5.76-6.168C108.771,19.649,111.027,22.073,111.027,25.626z M101.811,25.746c0,2.544,1.464,4.464,3.528,4.464   c2.016,0,3.528-1.896,3.528-4.512c0-1.968-0.984-4.464-3.48-4.464C102.891,21.233,101.811,23.538,101.811,25.746z"/>
	<path fill="#FFFFFF" d="M123.699,19.913c-0.048,0.84-0.096,1.776-0.096,3.192v6.745c0,2.664-0.528,4.296-1.656,5.305   c-1.128,1.056-2.76,1.392-4.224,1.392c-1.392,0-2.928-0.336-3.864-0.96l0.528-1.608c0.768,0.48,1.968,0.912,3.408,0.912   c2.16,0,3.745-1.128,3.745-4.057v-1.296h-0.048c-0.648,1.08-1.896,1.944-3.696,1.944c-2.88,0-4.944-2.448-4.944-5.665   c0-3.937,2.568-6.168,5.232-6.168c2.016,0,3.12,1.056,3.625,2.016h0.048l0.096-1.752H123.699z M121.515,24.497   c0-0.36-0.024-0.672-0.12-0.96c-0.384-1.224-1.416-2.233-2.953-2.233c-2.016,0-3.456,1.705-3.456,4.393   c0,2.28,1.152,4.176,3.432,4.176c1.296,0,2.472-0.816,2.928-2.16c0.12-0.36,0.168-0.768,0.168-1.128V24.497z"/>
	<path fill="#FFFFFF" d="M126.962,23.538c0-1.368-0.024-2.545-0.096-3.625h1.848l0.072,2.28h0.096c0.528-1.56,1.8-2.544,3.216-2.544   c0.24,0,0.408,0.024,0.6,0.072v1.992c-0.216-0.048-0.432-0.072-0.72-0.072c-1.488,0-2.544,1.128-2.832,2.712   c-0.048,0.288-0.096,0.624-0.096,0.984v6.192h-2.088V23.538z"/>
	<path fill="#FFFFFF" d="M141.123,31.53l-0.168-1.464h-0.071c-0.648,0.912-1.896,1.728-3.553,1.728   c-2.353,0-3.553-1.656-3.553-3.336c0-2.808,2.497-4.344,6.985-4.32v-0.24c0-0.96-0.265-2.688-2.641-2.688   c-1.08,0-2.209,0.336-3.024,0.864l-0.48-1.392c0.96-0.624,2.352-1.032,3.817-1.032c3.552,0,4.416,2.424,4.416,4.752v4.344   c0,1.008,0.048,1.992,0.192,2.784H141.123z M140.811,25.601c-2.305-0.048-4.921,0.36-4.921,2.616c0,1.368,0.912,2.017,1.992,2.017   c1.513,0,2.473-0.96,2.809-1.944c0.072-0.216,0.12-0.456,0.12-0.672V25.601z"/>
	<path fill="#FFFFFF" d="M146.258,23.058c0-1.2-0.023-2.184-0.096-3.145h1.848l0.096,1.873h0.072   c0.648-1.104,1.729-2.136,3.648-2.136c1.584,0,2.785,0.96,3.289,2.328h0.047c0.361-0.648,0.816-1.152,1.297-1.512   c0.695-0.528,1.465-0.816,2.568-0.816c1.537,0,3.816,1.008,3.816,5.04v6.841h-2.064v-6.577c0-2.232-0.816-3.576-2.52-3.576   c-1.201,0-2.137,0.888-2.496,1.92c-0.096,0.288-0.168,0.672-0.168,1.056v7.177h-2.064v-6.96c0-1.848-0.816-3.192-2.424-3.192   c-1.32,0-2.281,1.056-2.617,2.112c-0.119,0.312-0.168,0.672-0.168,1.032v7.009h-2.064V23.058z"/>
	<path fill="#FFFFFF" d="M172.706,31.53l-0.168-1.464h-0.072c-0.647,0.912-1.895,1.728-3.552,1.728   c-2.353,0-3.553-1.656-3.553-3.336c0-2.808,2.496-4.344,6.984-4.32v-0.24c0-0.96-0.264-2.688-2.64-2.688   c-1.08,0-2.208,0.336-3.024,0.864l-0.48-1.392c0.961-0.624,2.352-1.032,3.816-1.032c3.553,0,4.417,2.424,4.417,4.752v4.344   c0,1.008,0.048,1.992,0.191,2.784H172.706z M172.395,25.601c-2.305-0.048-4.921,0.36-4.921,2.616c0,1.368,0.912,2.017,1.992,2.017   c1.513,0,2.473-0.96,2.809-1.944c0.071-0.216,0.12-0.456,0.12-0.672V25.601z"/>
	<path fill="#FFFFFF" d="M192.963,14.489V28.53c0,1.032,0.023,2.208,0.096,3h-1.897l-0.096-2.016h-0.048   c-0.648,1.296-2.064,2.28-3.96,2.28c-2.809,0-4.969-2.376-4.969-5.905c-0.024-3.864,2.376-6.24,5.208-6.24   c1.776,0,2.977,0.84,3.505,1.776h0.048v-6.937H192.963z M190.851,24.642c0-0.264-0.024-0.624-0.096-0.888   c-0.313-1.344-1.465-2.448-3.049-2.448c-2.184,0-3.48,1.92-3.48,4.489c0,2.352,1.152,4.296,3.433,4.296   c1.416,0,2.712-0.936,3.097-2.521c0.071-0.288,0.096-0.576,0.096-0.912V24.642z"/>
	<path fill="#FFFFFF" d="M197.643,26.106c0.048,2.856,1.872,4.032,3.984,4.032c1.512,0,2.424-0.264,3.216-0.6l0.36,1.512   c-0.744,0.336-2.017,0.72-3.864,0.72c-3.577,0-5.713-2.353-5.713-5.857c0-3.504,2.064-6.264,5.448-6.264   c3.793,0,4.801,3.336,4.801,5.472c0,0.432-0.048,0.768-0.072,0.984H197.643z M203.835,24.594c0.023-1.344-0.553-3.432-2.929-3.432   c-2.136,0-3.072,1.968-3.24,3.432H203.835z"/>
	<path fill="#FFFFFF" d="M213.577,14.489h2.112V31.53h-2.112V14.489z"/>
	<path fill="#FFFFFF" d="M229.754,25.626c0,4.296-2.976,6.168-5.784,6.168c-3.145,0-5.568-2.304-5.568-5.977   c0-3.889,2.544-6.168,5.761-6.168C227.498,19.649,229.754,22.073,229.754,25.626z M220.537,25.746c0,2.544,1.465,4.464,3.528,4.464   c2.017,0,3.528-1.896,3.528-4.512c0-1.968-0.983-4.464-3.48-4.464C221.617,21.233,220.537,23.538,220.537,25.746z"/>
	<path fill="#FFFFFF" d="M232.129,29.37c0.624,0.408,1.729,0.84,2.784,0.84c1.536,0,2.257-0.768,2.257-1.728   c0-1.008-0.6-1.56-2.16-2.136c-2.089-0.744-3.072-1.896-3.072-3.288c0-1.872,1.512-3.408,4.008-3.408   c1.177,0,2.208,0.336,2.856,0.72l-0.528,1.536c-0.456-0.288-1.296-0.672-2.376-0.672c-1.248,0-1.944,0.72-1.944,1.584   c0,0.96,0.696,1.392,2.208,1.968c2.017,0.768,3.049,1.776,3.049,3.504c0,2.04-1.584,3.48-4.345,3.48   c-1.271,0-2.448-0.312-3.264-0.792L232.129,29.37z"/>
	<path fill="#FFFFFF" d="M83.21,52.441l-1.68,5.089h-2.16l5.497-16.177h2.52l5.521,16.177h-2.232l-1.728-5.089H83.21z M88.515,50.81   l-1.584-4.656c-0.36-1.056-0.6-2.017-0.84-2.952h-0.048c-0.24,0.96-0.504,1.943-0.816,2.928l-1.584,4.681H88.515z"/>
	<path fill="#FFFFFF" d="M95.138,49.058c0-1.2-0.024-2.185-0.096-3.144h1.872l0.12,1.921h0.048c0.576-1.104,1.921-2.185,3.84-2.185   c1.608,0,4.104,0.96,4.104,4.944v6.937h-2.112v-6.696c0-1.873-0.696-3.433-2.688-3.433c-1.393,0-2.473,0.983-2.832,2.16   c-0.096,0.265-0.144,0.624-0.144,0.984v6.984h-2.112V49.058z M97.106,43.921c-0.048-1.56,0.6-2.496,1.632-2.496   c0.528,0,0.936,0.216,1.488,0.528c0.384,0.216,0.72,0.408,1.008,0.408c0.384,0,0.624-0.217,0.672-1.032h1.128   c0.024,1.608-0.528,2.424-1.656,2.424c-0.504,0-0.96-0.216-1.464-0.479c-0.48-0.289-0.744-0.433-1.032-0.433   c-0.384,0-0.576,0.408-0.624,1.08H97.106z"/>
	<path fill="#FFFFFF" d="M118.971,51.626c0,4.296-2.977,6.169-5.785,6.169c-3.144,0-5.568-2.305-5.568-5.977   c0-3.889,2.544-6.169,5.76-6.169C116.715,45.649,118.971,48.073,118.971,51.626z M109.754,51.746c0,2.544,1.464,4.464,3.528,4.464   c2.016,0,3.528-1.896,3.528-4.513c0-1.968-0.984-4.464-3.48-4.464C110.834,47.233,109.754,49.537,109.754,51.746z"/>
	<path fill="#FFFFFF" d="M121.346,55.37c0.624,0.408,1.728,0.84,2.784,0.84c1.536,0,2.256-0.769,2.256-1.728   c0-1.008-0.6-1.561-2.16-2.137c-2.088-0.744-3.072-1.896-3.072-3.288c0-1.872,1.512-3.408,4.008-3.408   c1.176,0,2.209,0.336,2.857,0.72l-0.528,1.536c-0.456-0.288-1.296-0.672-2.376-0.672c-1.248,0-1.944,0.72-1.944,1.584   c0,0.96,0.696,1.392,2.208,1.968c2.016,0.769,3.048,1.777,3.048,3.505c0,2.04-1.585,3.48-4.345,3.48   c-1.272,0-2.448-0.312-3.264-0.792L121.346,55.37z"/>
	<path fill="#FFFFFF" d="M138.386,41.354V57.53h-2.088V41.354H138.386z"/>
	<path fill="#FFFFFF" d="M142.202,49.058c0-1.2-0.024-2.185-0.096-3.144h1.872l0.12,1.921h0.048c0.576-1.104,1.92-2.185,3.84-2.185   c1.607,0,4.104,0.96,4.104,4.944v6.937h-2.111v-6.696c0-1.873-0.695-3.433-2.688-3.433c-1.393,0-2.473,0.983-2.834,2.16   c-0.096,0.265-0.143,0.624-0.143,0.984v6.984h-2.112V49.058z"/>
	<path fill="#FFFFFF" d="M157.971,42.577v3.336h3.023v1.608h-3.023v6.265c0,1.44,0.408,2.256,1.584,2.256   c0.551,0,0.959-0.071,1.225-0.144l0.096,1.584c-0.408,0.168-1.057,0.288-1.873,0.288c-0.984,0-1.775-0.312-2.279-0.888   c-0.602-0.625-0.816-1.656-0.816-3.025v-6.336h-1.801v-1.608h1.801v-2.784L157.971,42.577z"/>
	<path fill="#FFFFFF" d="M164.402,52.105c0.049,2.856,1.872,4.033,3.984,4.033c1.512,0,2.424-0.265,3.216-0.6l0.36,1.513   c-0.744,0.336-2.017,0.72-3.864,0.72c-3.577,0-5.712-2.353-5.712-5.856c0-3.504,2.064-6.265,5.447-6.265   c3.793,0,4.801,3.336,4.801,5.472c0,0.433-0.048,0.768-0.072,0.984H164.402z M170.595,50.594c0.023-1.344-0.553-3.432-2.929-3.432   c-2.136,0-3.072,1.967-3.24,3.432H170.595z"/>
	<path fill="#FFFFFF" d="M175.249,49.537c0-1.367-0.023-2.544-0.096-3.624h1.848l0.072,2.28h0.096   c0.528-1.56,1.801-2.544,3.217-2.544c0.24,0,0.408,0.024,0.6,0.071v1.992c-0.216-0.047-0.432-0.071-0.72-0.071   c-1.488,0-2.544,1.128-2.832,2.712c-0.048,0.288-0.096,0.624-0.096,0.984v6.192h-2.089V49.537z"/>
	<path fill="#FFFFFF" d="M183.193,49.058c0-1.2-0.023-2.185-0.096-3.144h1.848l0.097,1.872h0.071   c0.648-1.104,1.729-2.136,3.648-2.136c1.584,0,2.784,0.96,3.289,2.328h0.048c0.359-0.647,0.815-1.152,1.296-1.513   c0.696-0.527,1.464-0.815,2.568-0.815c1.536,0,3.816,1.008,3.816,5.04v6.841h-2.064v-6.577c0-2.231-0.816-3.576-2.52-3.576   c-1.2,0-2.136,0.889-2.496,1.92c-0.096,0.289-0.168,0.673-0.168,1.057v7.177h-2.064v-6.96c0-1.849-0.815-3.193-2.424-3.193   c-1.32,0-2.28,1.057-2.616,2.113c-0.12,0.312-0.168,0.672-0.168,1.031v7.009h-2.064V49.058z"/>
	<path fill="#FFFFFF" d="M204.386,52.105c0.048,2.856,1.872,4.033,3.983,4.033c1.513,0,2.425-0.265,3.217-0.6l0.36,1.513   c-0.744,0.336-2.017,0.72-3.864,0.72c-3.577,0-5.713-2.353-5.713-5.856c0-3.504,2.064-6.265,5.448-6.265   c3.793,0,4.801,3.336,4.801,5.472c0,0.433-0.048,0.768-0.072,0.984H204.386z M210.578,50.594c0.024-1.344-0.553-3.432-2.929-3.432   c-2.136,0-3.072,1.967-3.24,3.432H210.578z"/>
	<path fill="#FFFFFF" d="M225.266,40.488v14.041c0,1.033,0.023,2.209,0.096,3.001h-1.896l-0.096-2.017h-0.048   c-0.648,1.297-2.064,2.281-3.96,2.281c-2.809,0-4.969-2.377-4.969-5.905c-0.024-3.864,2.376-6.24,5.208-6.24   c1.776,0,2.977,0.84,3.505,1.776h0.048v-6.938H225.266z M223.153,50.642c0-0.265-0.024-0.624-0.096-0.888   c-0.313-1.344-1.465-2.449-3.049-2.449c-2.184,0-3.48,1.921-3.48,4.489c0,2.353,1.152,4.296,3.433,4.296   c1.416,0,2.712-0.936,3.097-2.52c0.071-0.289,0.096-0.576,0.096-0.912V50.642z"/>
	<path fill="#FFFFFF" d="M231.121,42.648c0.024,0.721-0.504,1.297-1.345,1.297c-0.743,0-1.271-0.576-1.271-1.297   c0-0.744,0.552-1.319,1.32-1.319C230.617,41.329,231.121,41.904,231.121,42.648z M228.769,57.53V45.913h2.112V57.53H228.769z"/>
	<path fill="#FFFFFF" d="M244.897,51.626c0,4.296-2.976,6.169-5.784,6.169c-3.145,0-5.568-2.305-5.568-5.977   c0-3.889,2.544-6.169,5.761-6.169C242.642,45.649,244.897,48.073,244.897,51.626z M235.681,51.746c0,2.544,1.465,4.464,3.528,4.464   c2.017,0,3.528-1.896,3.528-4.513c0-1.968-0.983-4.464-3.479-4.464C236.761,47.233,235.681,49.537,235.681,51.746z"/>
	<path fill="#FFFFFF" d="M247.272,55.37c0.624,0.408,1.729,0.84,2.784,0.84c1.536,0,2.257-0.769,2.257-1.728   c0-1.008-0.601-1.561-2.16-2.137c-2.089-0.744-3.072-1.896-3.072-3.288c0-1.872,1.512-3.408,4.008-3.408   c1.177,0,2.208,0.336,2.856,0.72l-0.528,1.536c-0.456-0.288-1.296-0.672-2.376-0.672c-1.248,0-1.944,0.72-1.944,1.584   c0,0.96,0.696,1.392,2.208,1.968c2.017,0.769,3.049,1.777,3.049,3.505c0,2.04-1.584,3.48-4.345,3.48   c-1.271,0-2.448-0.312-3.264-0.792L247.272,55.37z"/>
</g>
</svg>