<!-- Generator: Adobe Illustrator 19.2.1, SVG Export Plug-In . SVG Version: 6.00 Build 0)  -->
<svg xmlns="http://www.w3.org/2000/svg" xmlns:xlink="http://www.w3.org/1999/xlink" version="1.1" id="Layer_2" x="0px" y="0px" width="277.795px" height="72.283px" viewBox="0 0 277.795 72.283" enable-background="new 0 0 277.795 72.283" xml:space="preserve">
<g>
	<g>
		<path fill="#FFFFFF" d="M277.592,6.635l0.203-3.012l-60.958,0.003l-0.011-0.003H55.389C50.303,1.304,44.596,0,38.571,0    C17.303,0,0,16.213,0,36.142s17.303,36.142,38.571,36.142c6.025,0,11.732-1.304,16.818-3.623h153.417h20.132h36.76l-0.211-3.02    c-0.025-0.364-0.674-8.674-6.011-20.095c0.102-0.114,0.206-0.226,0.303-0.34C276.131,25.838,277.538,7.41,277.592,6.635z"/>
		<g>
			<g>
				<linearGradient id="SVGID_1_" gradientUnits="userSpaceOnUse" x1="245.4644" y1="6.4571" x2="245.4644" y2="65.7343">
					<stop offset="0" style="stop-color:#FFD957"/>
					<stop offset="0.3374" style="stop-color:#FFD200"/>
					<stop offset="0.4689" style="stop-color:#FFD000"/>
					<stop offset="0.5914" style="stop-color:#FFC808"/>
					<stop offset="0.7102" style="stop-color:#FDBA12"/>
					<stop offset="0.8262" style="stop-color:#FAA71A"/>
					<stop offset="0.9018" style="stop-color:#F8971D"/>
				</linearGradient>
				<path fill="url(#SVGID_1_)" d="M216.356,6.457c0,0,13.408,4.047,28.911,22.412c4.748,5.622,8.182,11.178,10.676,16.215      c0.468-0.532,0.992-1.08,1.462-1.638c15.953-18.894,17.167-36.989,17.167-36.989H216.356z"/>
				<path fill="#FADF18" d="M228.426,65.826h34.043c0,0-0.618-8.811-6.525-20.742C241.002,62.104,228.426,65.826,228.426,65.826z"/>
				<linearGradient id="SVGID_2_" gradientUnits="userSpaceOnUse" x1="156.2232" y1="6.2913" x2="156.2232" y2="65.8261">
					<stop offset="0" style="stop-color:#FFC709"/>
					<stop offset="0.2866" style="stop-color:#F6BA18"/>
					<stop offset="0.8337" style="stop-color:#E49B25"/>
					<stop offset="1" style="stop-color:#DE9227"/>
				</linearGradient>
				<path fill="url(#SVGID_2_)" d="M56.503,65.826h171.965c0,0,12.558-3.749,27.476-20.742c-2.498-5.045-5.939-10.608-10.695-16.24      C229.72,10.445,216.356,6.457,216.356,6.457H56.503"/>
			</g>
			<g>
				<path fill="#FFFFFF" d="M36.142,0C16.213,0,0,16.213,0,36.142s16.213,36.142,36.142,36.142      c19.928,0,36.141-16.213,36.141-36.142S56.07,0,36.142,0z"/>
				<g>
					<linearGradient id="SVGID_3_" gradientUnits="userSpaceOnUse" x1="16.9989" y1="9.1606" x2="54.8482" y2="63.215">
						<stop offset="0.309" style="stop-color:#13B5EA"/>
						<stop offset="0.4731" style="stop-color:#008FC9"/>
						<stop offset="0.7645" style="stop-color:#005C9C"/>
						<stop offset="0.8989" style="stop-color:#004B8D"/>
					</linearGradient>
					<path fill="url(#SVGID_3_)" d="M68.945,36.132c0,18.26-14.804,33.06-33.064,33.06c-15.523,0-28.537-10.702-32.097-25.12       c6.472-0.073,12.607-1.52,18.151-4.049V27.157c0-1.021-0.359-1.767-1.064-2.239c-0.709-0.466-1.962-0.704-3.773-0.704v-1.19       c2.396-0.084,4.593-0.223,6.589-0.421c1.998-0.199,3.716-0.501,5.167-0.908v14.4c0.007-0.011,0.026-0.017,0.036-0.025v4.312       c0,1.06,0,2.22,0,3.474c0,1.22-0.024,2.414-0.065,3.591c-0.037,1.18-0.099,2.281-0.176,3.295       c-0.08,1.021-0.175,1.88-0.292,2.592c1.961,1.134,4.138,2.076,6.539,2.825c2.395,0.747,4.634,1.115,6.717,1.115       c1.766,0,3.474-0.265,5.126-0.793c1.653-0.523,3.114-1.311,4.393-2.329c1.275-1.018,2.305-2.277,3.091-3.772       c0.788-1.493,1.175-3.187,1.175-5.067c0-1.731-0.296-3.318-0.883-4.776c-0.586-1.455-1.415-2.713-2.478-3.769       c-1.064-1.065-2.319-1.897-3.777-2.511c-1.45-0.604-3.045-0.918-4.777-0.918c-1.301,0-2.624,0.235-3.98,0.686       c-1.36,0.458-2.588,1.026-3.692,1.694v-5.566c5.955-6.215,10.147-14.141,11.76-22.968c-7.37-3.128-15.906-3.535-23.983-0.472       C14.611,10.115,8.048,17.107,4.903,25.432c3.03-8.958,9.891-16.548,19.423-20.172c7.968-3.02,16.29-2.782,23.551,0.057       c0.005-0.008-0.003,0.014,0,0C60.204,10.122,68.945,22.102,68.945,36.132z M36.821,53.063c0.9,1.554,2.433,2.321,4.585,2.321       c2.166,0,3.691-0.768,4.6-2.321c0.899-1.552,1.353-3.997,1.353-7.336c0-3.333-0.453-5.782-1.353-7.329       c-0.909-1.552-2.434-2.324-4.6-2.324c-2.153,0-3.686,0.772-4.585,2.324c-0.908,1.547-1.356,3.996-1.356,7.329       C35.465,49.065,35.914,51.511,36.821,53.063z M28.203,17.977c0.915-0.892,1.375-2.012,1.375-3.356       c0-1.343-0.46-2.46-1.375-3.356c-0.919-0.895-2.021-1.345-3.326-1.345c-1.307,0-2.411,0.45-3.328,1.345       c-0.921,0.896-1.372,2.014-1.372,3.356c0,1.344,0.451,2.464,1.372,3.356c0.917,0.9,2.021,1.347,3.328,1.347       C26.182,19.323,27.284,18.877,28.203,17.977z"/>
				</g>
			</g>
		</g>
	</g>
	<g>
		<path fill="#FFFFFF" d="M79.37,15.545c1.008-0.168,2.328-0.312,4.008-0.312c2.064,0,3.576,0.48,4.536,1.344    c0.888,0.768,1.416,1.944,1.416,3.384c0,1.464-0.432,2.616-1.248,3.456c-1.104,1.176-2.904,1.776-4.945,1.776    c-0.624,0-1.2-0.024-1.68-0.144v6.48H79.37V15.545z M81.458,23.346c0.456,0.12,1.032,0.168,1.729,0.168    c2.52,0,4.056-1.224,4.056-3.457c0-2.136-1.512-3.168-3.816-3.168c-0.912,0-1.608,0.072-1.968,0.168V23.346z"/>
		<path fill="#FFFFFF" d="M91.682,23.538c0-1.368-0.024-2.544-0.096-3.625h1.848l0.072,2.28h0.096c0.528-1.56,1.8-2.544,3.216-2.544    c0.24,0,0.408,0.024,0.6,0.072v1.992c-0.216-0.048-0.432-0.072-0.72-0.072c-1.488,0-2.544,1.128-2.832,2.712    c-0.048,0.288-0.096,0.624-0.096,0.984v6.192h-2.088V23.538z"/>
		<path fill="#FFFFFF" d="M109.803,25.626c0,4.296-2.977,6.169-5.785,6.169c-3.144,0-5.568-2.304-5.568-5.977    c0-3.889,2.545-6.168,5.76-6.168C107.547,19.649,109.803,22.073,109.803,25.626z M100.586,25.746c0,2.545,1.464,4.464,3.528,4.464    c2.016,0,3.528-1.896,3.528-4.512c0-1.968-0.984-4.464-3.48-4.464C101.666,21.233,100.586,23.538,100.586,25.746z"/>
		<path fill="#FFFFFF" d="M122.475,19.913c-0.048,0.84-0.096,1.776-0.096,3.192v6.745c0,2.664-0.528,4.296-1.656,5.305    c-1.128,1.056-2.76,1.392-4.224,1.392c-1.392,0-2.928-0.336-3.864-0.96l0.528-1.608c0.768,0.48,1.968,0.912,3.408,0.912    c2.16,0,3.745-1.128,3.745-4.057v-1.296h-0.048c-0.648,1.08-1.896,1.944-3.696,1.944c-2.88,0-4.944-2.448-4.944-5.665    c0-3.937,2.568-6.168,5.232-6.168c2.016,0,3.12,1.056,3.624,2.016h0.048l0.096-1.753H122.475z M120.29,24.498    c0-0.36-0.024-0.672-0.12-0.96c-0.384-1.224-1.417-2.232-2.953-2.232c-2.016,0-3.456,1.705-3.456,4.393    c0,2.28,1.152,4.176,3.432,4.176c1.296,0,2.472-0.816,2.928-2.16c0.12-0.36,0.168-0.768,0.168-1.128V24.498z"/>
		<path fill="#FFFFFF" d="M125.738,23.538c0-1.368-0.024-2.544-0.096-3.625h1.848l0.072,2.28h0.096    c0.528-1.56,1.8-2.544,3.216-2.544c0.24,0,0.408,0.024,0.6,0.072v1.992c-0.216-0.048-0.432-0.072-0.72-0.072    c-1.488,0-2.544,1.128-2.832,2.712c-0.048,0.288-0.096,0.624-0.096,0.984v6.192h-2.088V23.538z"/>
		<path fill="#FFFFFF" d="M139.899,31.53l-0.168-1.464h-0.072c-0.648,0.912-1.896,1.729-3.552,1.729    c-2.353,0-3.553-1.656-3.553-3.337c0-2.808,2.497-4.344,6.985-4.32v-0.24c0-0.96-0.264-2.688-2.64-2.688    c-1.08,0-2.208,0.336-3.025,0.864l-0.48-1.392c0.96-0.624,2.352-1.032,3.816-1.032c3.553,0,4.417,2.424,4.417,4.752v4.344    c0,1.008,0.048,1.992,0.191,2.784H139.899z M139.586,25.602c-2.304-0.048-4.92,0.36-4.92,2.616c0,1.368,0.912,2.017,1.992,2.017    c1.512,0,2.472-0.96,2.808-1.944c0.072-0.216,0.12-0.456,0.12-0.672V25.602z"/>
		<path fill="#FFFFFF" d="M145.034,23.058c0-1.2-0.023-2.184-0.096-3.145h1.848l0.097,1.873h0.071    c0.648-1.104,1.729-2.136,3.648-2.136c1.584,0,2.784,0.96,3.289,2.328h0.048c0.359-0.648,0.815-1.152,1.296-1.512    c0.696-0.528,1.464-0.816,2.568-0.816c1.536,0,3.816,1.008,3.816,5.04v6.841h-2.064v-6.577c0-2.232-0.816-3.576-2.52-3.576    c-1.2,0-2.136,0.888-2.496,1.92c-0.096,0.288-0.168,0.672-0.168,1.056v7.177h-2.064v-6.96c0-1.848-0.816-3.192-2.424-3.192    c-1.32,0-2.28,1.056-2.616,2.112c-0.12,0.312-0.168,0.672-0.168,1.032v7.009h-2.064V23.058z"/>
		<path fill="#FFFFFF" d="M171.481,31.53l-0.168-1.464h-0.072c-0.647,0.912-1.895,1.729-3.552,1.729    c-2.353,0-3.552-1.656-3.552-3.337c0-2.808,2.496-4.344,6.984-4.32v-0.24c0-0.96-0.264-2.688-2.64-2.688    c-1.08,0-2.208,0.336-3.024,0.864l-0.48-1.392c0.96-0.624,2.352-1.032,3.816-1.032c3.553,0,4.417,2.424,4.417,4.752v4.344    c0,1.008,0.048,1.992,0.191,2.784H171.481z M171.17,25.602c-2.305-0.048-4.921,0.36-4.921,2.616c0,1.368,0.912,2.017,1.992,2.017    c1.513,0,2.473-0.96,2.809-1.944c0.071-0.216,0.12-0.456,0.12-0.672V25.602z"/>
		<path fill="#FFFFFF" d="M191.738,14.489V28.53c0,1.032,0.023,2.208,0.096,3h-1.896l-0.096-2.016h-0.048    c-0.648,1.296-2.064,2.28-3.96,2.28c-2.809,0-4.969-2.377-4.969-5.905c-0.025-3.864,2.376-6.24,5.208-6.24    c1.776,0,2.977,0.84,3.505,1.776h0.048v-6.937H191.738z M189.626,24.642c0-0.264-0.024-0.624-0.096-0.888    c-0.313-1.344-1.465-2.448-3.049-2.448c-2.184,0-3.48,1.92-3.48,4.489c0,2.352,1.152,4.296,3.433,4.296    c1.416,0,2.712-0.936,3.097-2.521c0.071-0.288,0.096-0.576,0.096-0.912V24.642z"/>
		<path fill="#FFFFFF" d="M196.418,26.106c0.048,2.856,1.872,4.032,3.984,4.032c1.512,0,2.424-0.264,3.216-0.6l0.36,1.512    c-0.744,0.336-2.017,0.72-3.864,0.72c-3.577,0-5.713-2.353-5.713-5.857c0-3.504,2.064-6.264,5.448-6.264    c3.793,0,4.801,3.336,4.801,5.472c0,0.432-0.048,0.768-0.072,0.984H196.418z M202.61,24.594c0.023-1.344-0.553-3.432-2.929-3.432    c-2.136,0-3.072,1.968-3.24,3.432H202.61z"/>
		<path fill="#FFFFFF" d="M212.353,14.489h2.112V31.53h-2.112V14.489z"/>
		<path fill="#FFFFFF" d="M224.449,31.53l-0.168-1.464h-0.072c-0.648,0.912-1.896,1.729-3.552,1.729    c-2.353,0-3.553-1.656-3.553-3.337c0-2.808,2.496-4.344,6.984-4.32v-0.24c0-0.96-0.264-2.688-2.64-2.688    c-1.08,0-2.208,0.336-3.024,0.864l-0.48-1.392c0.961-0.624,2.352-1.032,3.816-1.032c3.553,0,4.417,2.424,4.417,4.752v4.344    c0,1.008,0.048,1.992,0.191,2.784H224.449z M224.138,25.602c-2.305-0.048-4.921,0.36-4.921,2.616c0,1.368,0.912,2.017,1.992,2.017    c1.513,0,2.473-0.96,2.809-1.944c0.071-0.216,0.12-0.456,0.12-0.672V25.602z"/>
		<path fill="#FFFFFF" d="M87.747,49.946h-6.289v5.833h7.009v1.752H79.37V41.353h8.737v1.752h-6.649v5.112h6.289V49.946z"/>
		<path fill="#FFFFFF" d="M90.818,55.37c0.624,0.408,1.728,0.84,2.784,0.84c1.536,0,2.256-0.768,2.256-1.728    c0-1.008-0.6-1.56-2.16-2.136c-2.088-0.744-3.072-1.896-3.072-3.288c0-1.872,1.512-3.408,4.008-3.408    c1.176,0,2.209,0.336,2.856,0.72l-0.528,1.536c-0.456-0.288-1.296-0.672-2.376-0.672c-1.248,0-1.944,0.72-1.944,1.584    c0,0.96,0.696,1.392,2.208,1.968c2.016,0.768,3.048,1.776,3.048,3.504c0,2.04-1.585,3.48-4.345,3.48    c-1.272,0-2.448-0.312-3.264-0.792L90.818,55.37z"/>
		<path fill="#FFFFFF" d="M108.89,57.098c-0.552,0.288-1.776,0.672-3.336,0.672c-3.504,0-5.785-2.376-5.785-5.929    c0-3.576,2.448-6.168,6.241-6.168c1.248,0,2.352,0.312,2.928,0.6l-0.48,1.632c-0.504-0.288-1.296-0.552-2.448-0.552    c-2.665,0-4.104,1.968-4.104,4.392c0,2.688,1.728,4.345,4.032,4.345c1.2,0,1.992-0.312,2.592-0.576L108.89,57.098z"/>
		<path fill="#FFFFFF" d="M121.082,54.362c0,1.2,0.024,2.256,0.096,3.168h-1.872l-0.12-1.896h-0.048    c-0.552,0.936-1.776,2.16-3.84,2.16c-1.824,0-4.008-1.008-4.008-5.088v-6.793h2.112v6.433c0,2.208,0.672,3.696,2.592,3.696    c1.416,0,2.4-0.984,2.784-1.92c0.12-0.312,0.192-0.696,0.192-1.08v-7.129h2.112V54.362z"/>
		<path fill="#FFFFFF" d="M125.762,52.106c0.048,2.856,1.872,4.032,3.984,4.032c1.512,0,2.424-0.264,3.216-0.6l0.36,1.512    c-0.744,0.336-2.016,0.72-3.864,0.72c-3.576,0-5.712-2.353-5.712-5.857c0-3.504,2.064-6.264,5.448-6.264    c3.792,0,4.801,3.336,4.801,5.472c0,0.432-0.048,0.768-0.072,0.984H125.762z M131.954,50.594c0.024-1.344-0.552-3.432-2.928-3.432    c-2.136,0-3.072,1.968-3.24,3.432H131.954z"/>
		<path fill="#FFFFFF" d="M136.609,40.489h2.112V57.53h-2.112V40.489z"/>
		<path fill="#FFFFFF" d="M148.706,57.53l-0.168-1.464h-0.072c-0.647,0.912-1.896,1.728-3.552,1.728    c-2.353,0-3.553-1.656-3.553-3.336c0-2.808,2.497-4.344,6.984-4.32v-0.24c0-0.96-0.264-2.688-2.64-2.688    c-1.08,0-2.208,0.336-3.024,0.864l-0.48-1.392c0.96-0.624,2.352-1.032,3.816-1.032c3.552,0,4.416,2.424,4.416,4.753v4.344    c0,1.008,0.048,1.992,0.191,2.784H148.706z M148.394,51.602c-2.305-0.048-4.921,0.36-4.921,2.616c0,1.368,0.912,2.017,1.992,2.017    c1.513,0,2.473-0.96,2.809-1.944c0.071-0.216,0.12-0.456,0.12-0.672V51.602z"/>
		<path fill="#FFFFFF" d="M159.001,41.545c1.008-0.168,2.328-0.312,4.008-0.312c2.064,0,3.577,0.48,4.537,1.344    c0.888,0.768,1.416,1.944,1.416,3.384c0,1.464-0.433,2.616-1.248,3.456c-1.104,1.176-2.904,1.776-4.944,1.776    c-0.624,0-1.2-0.024-1.681-0.144v6.48h-2.088V41.545z M161.088,49.346c0.456,0.12,1.032,0.168,1.729,0.168    c2.52,0,4.056-1.224,4.056-3.456c0-2.136-1.513-3.168-3.816-3.168c-0.912,0-1.608,0.072-1.969,0.168V49.346z"/>
		<path fill="#FFFFFF" d="M171.313,49.538c0-1.368-0.023-2.544-0.096-3.625h1.848l0.072,2.28h0.096    c0.528-1.56,1.801-2.544,3.217-2.544c0.24,0,0.408,0.024,0.6,0.072v1.992c-0.216-0.048-0.432-0.072-0.72-0.072    c-1.488,0-2.544,1.128-2.832,2.712c-0.048,0.288-0.097,0.624-0.097,0.984v6.192h-2.088V49.538z"/>
		<path fill="#FFFFFF" d="M181.608,42.649c0.023,0.72-0.504,1.296-1.345,1.296c-0.743,0-1.271-0.576-1.271-1.296    c0-0.744,0.552-1.32,1.32-1.32C181.104,41.329,181.608,41.905,181.608,42.649z M179.256,57.53V45.913h2.112V57.53H179.256z"/>
		<path fill="#FFFFFF" d="M184.872,49.058c0-1.2-0.023-2.184-0.096-3.144h1.848l0.097,1.873h0.071    c0.648-1.105,1.729-2.136,3.648-2.136c1.584,0,2.784,0.96,3.289,2.328h0.048c0.359-0.648,0.815-1.152,1.296-1.512    c0.696-0.528,1.464-0.816,2.568-0.816c1.536,0,3.816,1.008,3.816,5.04v6.841h-2.064v-6.577c0-2.232-0.816-3.576-2.521-3.576    c-1.2,0-2.136,0.888-2.496,1.92c-0.096,0.288-0.168,0.672-0.168,1.056v7.177h-2.064v-6.96c0-1.848-0.816-3.192-2.424-3.192    c-1.32,0-2.28,1.056-2.616,2.112c-0.12,0.312-0.168,0.672-0.168,1.032v7.009h-2.064V49.058z"/>
		<path fill="#FFFFFF" d="M211.32,57.53l-0.168-1.464h-0.072c-0.647,0.912-1.895,1.728-3.552,1.728    c-2.352,0-3.553-1.656-3.553-3.336c0-2.808,2.496-4.344,6.984-4.32v-0.24c0-0.96-0.264-2.688-2.64-2.688    c-1.08,0-2.208,0.336-3.024,0.864l-0.48-1.392c0.961-0.624,2.353-1.032,3.816-1.032c3.553,0,4.417,2.424,4.417,4.753v4.344    c0,1.008,0.048,1.992,0.191,2.784H211.32z M211.009,51.602c-2.305-0.048-4.921,0.36-4.921,2.616c0,1.368,0.912,2.017,1.992,2.017    c1.513,0,2.473-0.96,2.809-1.944c0.071-0.216,0.12-0.456,0.12-0.672V51.602z"/>
		<path fill="#FFFFFF" d="M216.456,49.538c0-1.368-0.023-2.544-0.096-3.625h1.848l0.072,2.28h0.096    c0.528-1.56,1.801-2.544,3.217-2.544c0.24,0,0.408,0.024,0.6,0.072v1.992c-0.216-0.048-0.432-0.072-0.72-0.072    c-1.488,0-2.544,1.128-2.832,2.712c-0.048,0.288-0.096,0.624-0.096,0.984v6.192h-2.089V49.538z"/>
		<path fill="#FFFFFF" d="M226.752,42.649c0.023,0.72-0.504,1.296-1.345,1.296c-0.743,0-1.271-0.576-1.271-1.296    c0-0.744,0.552-1.32,1.32-1.32C226.248,41.329,226.752,41.905,226.752,42.649z M224.399,57.53V45.913h2.112V57.53H224.399z"/>
		<path fill="#FFFFFF" d="M236.448,57.53l-0.168-1.464h-0.072c-0.647,0.912-1.895,1.728-3.552,1.728    c-2.353,0-3.553-1.656-3.553-3.336c0-2.808,2.496-4.344,6.984-4.32v-0.24c0-0.96-0.264-2.688-2.64-2.688    c-1.08,0-2.208,0.336-3.024,0.864l-0.48-1.392c0.961-0.624,2.353-1.032,3.816-1.032c3.553,0,4.417,2.424,4.417,4.753v4.344    c0,1.008,0.048,1.992,0.191,2.784H236.448z M236.137,51.602c-2.305-0.048-4.921,0.36-4.921,2.616c0,1.368,0.912,2.017,1.992,2.017    c1.513,0,2.473-0.96,2.809-1.944c0.071-0.216,0.12-0.456,0.12-0.672V51.602z"/>
	</g>
</g>
</svg>