<!-- Generator: Adobe Illustrator 19.2.1, SVG Export Plug-In . SVG Version: 6.00 Build 0)  -->
<svg xmlns="http://www.w3.org/2000/svg" xmlns:xlink="http://www.w3.org/1999/xlink" version="1.1" id="Layer_1" x="0px" y="0px" width="240.977px" height="72.283px" viewBox="0 0 240.977 72.283" enable-background="new 0 0 240.977 72.283" xml:space="preserve">
<g>
	<path fill="#FFFFFF" d="M240.788,6.635l0.189-3.012L51.924,3.622C47.16,1.304,41.814,0,36.169,0   C16.243,0,0.032,16.213,0.032,36.142s16.21,36.142,36.137,36.142c5.646,0,10.992-1.305,15.756-3.623h177.72l-0.198-3.02   c-0.023-0.364-0.619-8.669-5.624-20.095c0.093-0.113,0.184-0.227,0.274-0.341C239.419,25.838,240.739,7.41,240.788,6.635z"/>
	<g>
		<g>
			<linearGradient id="SVGID_1_" gradientUnits="userSpaceOnUse" x1="210.2632" y1="6.4571" x2="210.2632" y2="65.7343">
				<stop offset="0" style="stop-color:#FFD957"/>
				<stop offset="0.3374" style="stop-color:#FFD200"/>
				<stop offset="0.4689" style="stop-color:#FFD000"/>
				<stop offset="0.5914" style="stop-color:#FFC808"/>
				<stop offset="0.7102" style="stop-color:#FDBA12"/>
				<stop offset="0.8262" style="stop-color:#FAA71A"/>
				<stop offset="0.9018" style="stop-color:#F8971D"/>
			</linearGradient>
			<path fill="url(#SVGID_1_)" d="M182.993,6.457c0,0,12.562,4.047,27.087,22.412c4.448,5.622,7.665,11.178,10.002,16.215     c0.438-0.532,0.929-1.08,1.369-1.638c14.947-18.894,16.083-36.989,16.083-36.989H182.993z"/>
			<path fill="#FADF18" d="M194.299,65.826h31.895c0,0-0.578-8.811-6.112-20.742C206.082,62.104,194.299,65.826,194.299,65.826z"/>
			<linearGradient id="SVGID_2_" gradientUnits="userSpaceOnUse" x1="135.5654" y1="6.2913" x2="135.5654" y2="65.8261">
				<stop offset="0" style="stop-color:#FFC709"/>
				<stop offset="0.2866" style="stop-color:#F6BA18"/>
				<stop offset="0.8337" style="stop-color:#E49B25"/>
				<stop offset="1" style="stop-color:#DE9227"/>
			</linearGradient>
			<path fill="url(#SVGID_2_)" d="M51.049,65.826h143.29c0,0,11.765-3.749,25.742-20.742c-2.341-5.045-5.564-10.608-10.021-16.24     c-14.55-18.398-27.068-22.387-27.068-22.387H51.049"/>
		</g>
		<g>
			<path fill="#FFFFFF" d="M36.142,0C16.213,0,0,16.213,0,36.142s16.213,36.142,36.142,36.142c19.928,0,36.141-16.213,36.141-36.142     S56.07,0,36.142,0z"/>
			<g>
				<linearGradient id="SVGID_3_" gradientUnits="userSpaceOnUse" x1="16.9989" y1="9.1606" x2="54.8482" y2="63.215">
					<stop offset="0.309" style="stop-color:#13B5EA"/>
					<stop offset="0.4731" style="stop-color:#008FC9"/>
					<stop offset="0.7645" style="stop-color:#005C9C"/>
					<stop offset="0.8989" style="stop-color:#004B8D"/>
				</linearGradient>
				<path fill="url(#SVGID_3_)" d="M68.945,36.132c0,18.26-14.804,33.06-33.064,33.06c-15.523,0-28.537-10.702-32.097-25.12      c6.472-0.073,12.607-1.52,18.151-4.049V27.157c0-1.021-0.359-1.767-1.064-2.239c-0.708-0.466-1.962-0.704-3.773-0.704v-1.19      c2.396-0.084,4.593-0.223,6.589-0.421c1.998-0.199,3.716-0.501,5.167-0.908v14.4c0.007-0.011,0.026-0.017,0.036-0.025v4.312      c0,1.06,0,2.22,0,3.474c0,1.22-0.024,2.414-0.065,3.591c-0.037,1.18-0.099,2.281-0.176,3.295      c-0.08,1.021-0.175,1.88-0.292,2.592c1.96,1.134,4.138,2.076,6.539,2.825c2.395,0.747,4.634,1.115,6.717,1.115      c1.766,0,3.474-0.265,5.126-0.793c1.653-0.523,3.114-1.311,4.393-2.329c1.275-1.018,2.305-2.277,3.091-3.772      c0.788-1.493,1.175-3.187,1.175-5.067c0-1.731-0.296-3.318-0.883-4.776c-0.586-1.455-1.416-2.713-2.478-3.769      c-1.064-1.065-2.319-1.897-3.777-2.511c-1.45-0.604-3.045-0.918-4.777-0.918c-1.301,0-2.624,0.235-3.981,0.686      c-1.36,0.458-2.588,1.026-3.692,1.694v-5.566c5.955-6.215,10.147-14.141,11.76-22.968c-7.37-3.128-15.906-3.535-23.983-0.472      c-8.977,3.405-15.54,10.397-18.685,18.722c3.03-8.958,9.891-16.548,19.423-20.172c7.968-3.02,16.29-2.782,23.551,0.057      c0.005-0.008-0.004,0.014,0,0C60.204,10.122,68.945,22.102,68.945,36.132z M36.821,53.063c0.9,1.554,2.433,2.321,4.585,2.321      c2.166,0,3.691-0.768,4.6-2.321c0.899-1.552,1.352-3.997,1.352-7.336c0-3.333-0.453-5.782-1.352-7.329      c-0.909-1.552-2.434-2.324-4.6-2.324c-2.153,0-3.686,0.772-4.585,2.324c-0.908,1.547-1.356,3.996-1.356,7.329      C35.465,49.065,35.914,51.511,36.821,53.063z M28.203,17.977c0.915-0.892,1.375-2.012,1.375-3.356      c0-1.343-0.46-2.46-1.375-3.356c-0.919-0.895-2.021-1.345-3.326-1.345c-1.307,0-2.411,0.45-3.328,1.345      c-0.921,0.896-1.372,2.014-1.372,3.356c0,1.344,0.451,2.464,1.372,3.356c0.917,0.9,2.021,1.347,3.328,1.347      C26.182,19.323,27.284,18.877,28.203,17.977z"/>
			</g>
		</g>
	</g>
</g>
<path fill="#FFFFFF" d="M25.75,43.058"/>
<g>
	<path fill="#FFFFFF" d="M79.37,14.296c1.008-0.168,2.328-0.312,4.008-0.312c2.065,0,3.577,0.48,4.537,1.344   c0.888,0.768,1.416,1.944,1.416,3.384c0,1.464-0.433,2.616-1.248,3.456c-1.104,1.176-2.904,1.776-4.944,1.776   c-0.624,0-1.2-0.024-1.681-0.144v6.48H79.37V14.296z M81.458,22.097c0.456,0.12,1.032,0.168,1.729,0.168   c2.521,0,4.057-1.224,4.057-3.457c0-2.136-1.513-3.168-3.816-3.168c-0.912,0-1.608,0.072-1.969,0.168V22.097z"/>
	<path fill="#FFFFFF" d="M91.682,22.289c0-1.368-0.023-2.545-0.096-3.625h1.848l0.072,2.28h0.096   c0.528-1.56,1.801-2.544,3.217-2.544c0.24,0,0.408,0.024,0.6,0.072v1.992c-0.216-0.048-0.432-0.072-0.72-0.072   c-1.488,0-2.544,1.128-2.832,2.712c-0.048,0.288-0.097,0.624-0.097,0.984v6.192h-2.088V22.289z"/>
	<path fill="#FFFFFF" d="M101.979,15.4c0.023,0.72-0.504,1.296-1.345,1.296c-0.743,0-1.271-0.576-1.271-1.296   c0-0.744,0.552-1.32,1.32-1.32C101.475,14.081,101.979,14.656,101.979,15.4z M99.626,30.282V18.665h2.112v11.617H99.626z"/>
	<path fill="#FFFFFF" d="M105.242,21.809c0-1.2-0.023-2.184-0.096-3.144h1.848l0.097,1.872h0.071   c0.649-1.104,1.729-2.136,3.649-2.136c1.584,0,2.784,0.96,3.289,2.328h0.048c0.359-0.648,0.815-1.152,1.296-1.512   c0.696-0.528,1.464-0.816,2.568-0.816c1.536,0,3.816,1.008,3.816,5.04v6.841h-2.064v-6.577c0-2.232-0.816-3.576-2.521-3.576   c-1.2,0-2.136,0.888-2.496,1.92c-0.096,0.288-0.168,0.672-0.168,1.056v7.177h-2.064v-6.96c0-1.848-0.815-3.192-2.424-3.192   c-1.32,0-2.28,1.056-2.616,2.112c-0.12,0.312-0.168,0.672-0.168,1.032v7.009h-2.064V21.809z"/>
	<path fill="#FFFFFF" d="M131.691,30.282l-0.168-1.464h-0.072c-0.648,0.912-1.896,1.729-3.553,1.729   c-2.352,0-3.553-1.656-3.553-3.336c0-2.808,2.496-4.344,6.984-4.32v-0.24c0-0.96-0.264-2.688-2.639-2.688   c-1.08,0-2.209,0.336-3.025,0.864l-0.48-1.392c0.961-0.624,2.354-1.032,3.816-1.032c3.553,0,4.418,2.424,4.418,4.752v4.344   c0,1.008,0.047,1.992,0.191,2.784H131.691z M131.378,24.353c-2.305-0.048-4.92,0.36-4.92,2.616c0,1.368,0.912,2.017,1.992,2.017   c1.512,0,2.473-0.961,2.809-1.944c0.07-0.216,0.119-0.456,0.119-0.672V24.353z"/>
	<path fill="#FFFFFF" d="M136.825,22.289c0-1.368-0.023-2.545-0.096-3.625h1.848l0.072,2.28h0.096   c0.528-1.56,1.801-2.544,3.217-2.544c0.24,0,0.408,0.024,0.6,0.072v1.992c-0.216-0.048-0.432-0.072-0.72-0.072   c-1.488,0-2.544,1.128-2.832,2.712c-0.048,0.288-0.096,0.624-0.096,0.984v6.192h-2.089V22.289z"/>
	<path fill="#FFFFFF" d="M146.042,18.665l2.544,6.865c0.264,0.768,0.552,1.68,0.744,2.376h0.048   c0.216-0.696,0.456-1.584,0.744-2.424l2.304-6.817h2.232l-3.168,8.281c-1.512,3.984-2.544,6.024-3.984,7.273   c-1.032,0.912-2.064,1.272-2.592,1.368l-0.528-1.776c0.528-0.168,1.224-0.504,1.848-1.032c0.576-0.456,1.297-1.272,1.776-2.352   c0.096-0.216,0.168-0.384,0.168-0.504c0-0.12-0.048-0.288-0.144-0.552l-4.297-10.705H146.042z"/>
	<path fill="#FFFFFF" d="M164.234,30.282v-6.865l-5.112-9.313h2.376l2.28,4.464c0.624,1.224,1.104,2.208,1.607,3.336h0.049   c0.456-1.056,1.008-2.112,1.632-3.336l2.328-4.464h2.376l-5.424,9.289v6.889H164.234z"/>
	<path fill="#FFFFFF" d="M172.897,24.857c0.048,2.856,1.872,4.032,3.983,4.032c1.513,0,2.425-0.264,3.217-0.6l0.36,1.512   c-0.744,0.336-2.017,0.72-3.864,0.72c-3.577,0-5.713-2.352-5.713-5.857c0-3.504,2.064-6.264,5.448-6.264   c3.793,0,4.801,3.336,4.801,5.472c0,0.432-0.048,0.768-0.072,0.984H172.897z M179.089,23.345c0.023-1.344-0.553-3.432-2.929-3.432   c-2.136,0-3.072,1.968-3.24,3.432H179.089z"/>
	<path fill="#FFFFFF" d="M190.177,30.282l-0.168-1.464h-0.072c-0.647,0.912-1.896,1.729-3.552,1.729   c-2.353,0-3.553-1.656-3.553-3.336c0-2.808,2.496-4.344,6.984-4.32v-0.24c0-0.96-0.264-2.688-2.64-2.688   c-1.08,0-2.208,0.336-3.024,0.864l-0.48-1.392c0.961-0.624,2.352-1.032,3.816-1.032c3.553,0,4.417,2.424,4.417,4.752v4.344   c0,1.008,0.048,1.992,0.191,2.784H190.177z M189.866,24.353c-2.305-0.048-4.921,0.36-4.921,2.616c0,1.368,0.912,2.017,1.992,2.017   c1.513,0,2.473-0.961,2.809-1.944c0.071-0.216,0.12-0.456,0.12-0.672V24.353z"/>
	<path fill="#FFFFFF" d="M195.312,22.289c0-1.368-0.023-2.545-0.096-3.625h1.848l0.072,2.28h0.096   c0.528-1.56,1.801-2.544,3.217-2.544c0.24,0,0.408,0.024,0.6,0.072v1.992c-0.216-0.048-0.432-0.072-0.72-0.072   c-1.488,0-2.544,1.128-2.832,2.712c-0.048,0.288-0.097,0.624-0.097,0.984v6.192h-2.088V22.289z"/>
	<path fill="#FFFFFF" d="M202.872,28.122c0.624,0.408,1.729,0.84,2.784,0.84c1.536,0,2.257-0.768,2.257-1.728   c0-1.008-0.601-1.56-2.16-2.136c-2.089-0.744-3.072-1.896-3.072-3.288c0-1.872,1.512-3.408,4.008-3.408   c1.177,0,2.208,0.336,2.856,0.72l-0.528,1.536c-0.456-0.288-1.296-0.672-2.376-0.672c-1.248,0-1.944,0.72-1.944,1.584   c0,0.96,0.696,1.392,2.208,1.968c2.017,0.768,3.049,1.776,3.049,3.504c0,2.04-1.584,3.48-4.345,3.48   c-1.271,0-2.448-0.312-3.264-0.792L202.872,28.122z"/>
	<path fill="#FFFFFF" d="M79.37,37.296c1.008-0.168,2.328-0.311,4.008-0.311c2.065,0,3.577,0.479,4.537,1.345   c0.888,0.768,1.416,1.943,1.416,3.384c0,1.464-0.433,2.616-1.248,3.456c-1.104,1.176-2.904,1.776-4.944,1.776   c-0.624,0-1.2-0.024-1.681-0.144v6.48H79.37V37.296z M81.458,45.097c0.456,0.12,1.032,0.168,1.729,0.168   c2.521,0,4.057-1.224,4.057-3.456c0-2.136-1.513-3.168-3.816-3.168c-0.912,0-1.608,0.071-1.969,0.168V45.097z"/>
	<path fill="#FFFFFF" d="M91.682,45.289c0-1.368-0.023-2.544-0.096-3.624h1.848l0.072,2.279h0.096   c0.528-1.56,1.801-2.543,3.217-2.543c0.24,0,0.408,0.023,0.6,0.071v1.992c-0.216-0.048-0.432-0.071-0.72-0.071   c-1.488,0-2.544,1.127-2.832,2.711c-0.048,0.289-0.097,0.625-0.097,0.984v6.193h-2.088V45.289z"/>
	<path fill="#FFFFFF" d="M109.803,47.378c0,4.296-2.976,6.168-5.784,6.168c-3.145,0-5.568-2.305-5.568-5.976   c0-3.889,2.544-6.168,5.761-6.168C107.547,41.401,109.803,43.825,109.803,47.378z M100.586,47.497c0,2.545,1.465,4.465,3.528,4.465   c2.017,0,3.528-1.896,3.528-4.513c0-1.968-0.983-4.464-3.48-4.464C101.666,42.985,100.586,45.289,100.586,47.497z"/>
	<path fill="#FFFFFF" d="M122.474,41.665c-0.047,0.84-0.096,1.775-0.096,3.191v6.745c0,2.664-0.527,4.296-1.656,5.305   c-1.128,1.056-2.76,1.392-4.225,1.392c-1.392,0-2.928-0.336-3.864-0.96l0.528-1.608c0.768,0.48,1.968,0.912,3.408,0.912   c2.16,0,3.744-1.127,3.744-4.057V51.29h-0.048c-0.648,1.08-1.896,1.943-3.696,1.943c-2.88,0-4.944-2.447-4.944-5.664   c0-3.937,2.568-6.168,5.232-6.168c2.017,0,3.12,1.056,3.624,2.016h0.048l0.097-1.752H122.474z M120.291,46.249   c0-0.359-0.024-0.672-0.12-0.96c-0.384-1.224-1.416-2.232-2.952-2.232c-2.017,0-3.457,1.704-3.457,4.392   c0,2.28,1.152,4.177,3.433,4.177c1.296,0,2.473-0.816,2.929-2.16c0.12-0.36,0.168-0.769,0.168-1.129V46.249z"/>
	<path fill="#FFFFFF" d="M125.738,45.289c0-1.368-0.023-2.544-0.096-3.624h1.848l0.072,2.279h0.096   c0.529-1.56,1.801-2.543,3.217-2.543c0.24,0,0.408,0.023,0.6,0.071v1.992c-0.215-0.048-0.432-0.071-0.719-0.071   c-1.488,0-2.545,1.127-2.832,2.711c-0.049,0.289-0.098,0.625-0.098,0.984v6.193h-2.088V45.289z"/>
	<path fill="#FFFFFF" d="M139.898,53.282l-0.168-1.465h-0.072c-0.647,0.912-1.896,1.728-3.552,1.728   c-2.353,0-3.552-1.656-3.552-3.336c0-2.809,2.495-4.345,6.983-4.32v-0.24c0-0.961-0.264-2.688-2.64-2.688   c-1.08,0-2.208,0.336-3.023,0.864l-0.48-1.393c0.96-0.624,2.351-1.031,3.815-1.031c3.553,0,4.417,2.424,4.417,4.752v4.344   c0,1.008,0.048,1.992,0.191,2.785H139.898z M139.586,47.353c-2.305-0.047-4.921,0.361-4.921,2.617c0,1.367,0.912,2.016,1.992,2.016   c1.513,0,2.473-0.96,2.809-1.943c0.071-0.217,0.12-0.457,0.12-0.672V47.353z"/>
	<path fill="#FFFFFF" d="M145.034,44.81c0-1.201-0.023-2.185-0.096-3.145h1.848l0.097,1.872h0.071   c0.648-1.105,1.729-2.136,3.648-2.136c1.584,0,2.784,0.959,3.289,2.328h0.048c0.359-0.648,0.815-1.152,1.296-1.513   c0.696-0.528,1.464-0.815,2.568-0.815c1.536,0,3.816,1.008,3.816,5.039v6.842h-2.064v-6.577c0-2.231-0.816-3.576-2.52-3.576   c-1.2,0-2.136,0.888-2.496,1.92c-0.096,0.288-0.168,0.673-0.168,1.056v7.178h-2.064v-6.961c0-1.848-0.816-3.192-2.424-3.192   c-1.32,0-2.28,1.056-2.616,2.112c-0.12,0.313-0.168,0.672-0.168,1.031v7.01h-2.064V44.81z"/>
	<path fill="#FFFFFF" d="M165.049,44.81c0-1.201-0.023-2.185-0.096-3.145h1.848l0.097,1.872h0.071   c0.648-1.105,1.729-2.136,3.648-2.136c1.584,0,2.784,0.959,3.289,2.328h0.048c0.359-0.648,0.815-1.152,1.296-1.513   c0.696-0.528,1.464-0.815,2.568-0.815c1.536,0,3.816,1.008,3.816,5.039v6.842h-2.064v-6.577c0-2.231-0.816-3.576-2.521-3.576   c-1.2,0-2.136,0.888-2.496,1.92c-0.096,0.288-0.168,0.673-0.168,1.056v7.178h-2.064v-6.961c0-1.848-0.815-3.192-2.424-3.192   c-1.32,0-2.28,1.056-2.616,2.112c-0.12,0.313-0.168,0.672-0.168,1.031v7.01h-2.064V44.81z"/>
	<path fill="#FFFFFF" d="M186.242,47.857c0.048,2.857,1.872,4.032,3.984,4.032c1.512,0,2.424-0.264,3.216-0.6l0.36,1.512   c-0.744,0.336-2.017,0.721-3.864,0.721c-3.577,0-5.713-2.354-5.713-5.857s2.064-6.264,5.448-6.264c3.793,0,4.801,3.336,4.801,5.472   c0,0.433-0.048,0.769-0.072,0.984H186.242z M192.434,46.345c0.023-1.344-0.553-3.432-2.929-3.432c-2.136,0-3.072,1.968-3.24,3.432   H192.434z"/>
</g>
</svg>